<svg xmlns="http://www.w3.org/2000/svg" viewBox="0 -0.5 16 16" shape-rendering="crispEdges"><path stroke="#b26411" d="M9 3h2M6 4h3m2 0h1M3 5h3m6 0h1M1 6h2M0 7h1M0 8h1m1 4h2"/><path stroke="#fad64a" d="M9 4h2m0 1h1M3 6h1"/><path stroke="#fdf55f" d="M6 5h5M4 6h6M2 7h5m3 0h2M3 8h1"/><path stroke="#fffde0" d="M10 6h3M1 7h1m5 0h3M2 8h1m2 0h2"/><path stroke="#752802" d="M13 6h1m-1 1h1m-1 1h1"/><path stroke="#e9b115" d="M12 7h1"/><path stroke="#bba037" d="M1 8h1m1 3h1"/><path stroke="#fff" d="M4 8h1"/><path stroke="#beb847" d="M7 8h3M4 9h3"/><path stroke="#af8510" d="M10 8h2m-7 2h1m-4 1h1"/><path stroke="#a5700e" d="M12 8h1"/><path stroke="#854b0d" d="M0 9h1m-1 1h1m0 1h1"/><path stroke="#fdec70" d="M1 9h1m2 1h1"/><path stroke="#c7bf4c" d="M2 9h1"/><path stroke="#bfbea8" d="M3 9h1"/><path stroke="#efb431" d="M7 9h3m-4 1h1"/><path stroke="#e5a030" d="M10 9h1m-4 1h1"/><path stroke="#984d23" d="M11 9h2m-4 1h2"/><path stroke="#000" d="M13 9h2m0 1h1m-1 1h1M5 12h1m2 0h5m2 0h1M6 13h2m5 0h3"/><path stroke="#eeb939" d="M1 10h1m2 1h1"/><path stroke="#fbd561" d="M2 10h1"/><path stroke="#fff2d1" d="M3 10h1"/><path stroke="#581e01" d="M8 10h1m-5 2h1"/><path stroke="#ffbd86" d="M11 10h1"/><path stroke="#fed2a4" d="M12 10h1m-5 1h5m-7 1h2"/><path stroke="#57a4ff" d="M13 10h2m-2 1h2m-2 1h2"/><path stroke="#97532b" d="M5 11h3"/></svg>