<svg xmlns="http://www.w3.org/2000/svg" viewBox="0 -0.5 16 16" shape-rendering="crispEdges"><path stroke="#000" d="M4 1h1m1 0h1m1 0h1m2 0h1M3 2h1m1 0h1m1 0h1m1 0h2m1 0h1M2 3h1m2 0h1m3 0h2m2 0h1M1 4h1m3 0h1m4 0h1m3 0h1M2 5h3m1 0h4m1 0h3M2 6h2m1 0h1m4 0h1m3 0h1M1 7h1m3 0h1m4 0h1m2 0h1M2 8h1m2 0h1m4 0h1m3 0h1M1 9h1m3 0h1m4 0h1m1 0h2M2 10h3m1 0h4m1 0h3M1 11h1m3 0h1m4 0h1m3 0h1M2 12h1m2 0h2m3 0h1m2 0h1M3 13h1m1 0h2m1 0h1m1 0h1m1 0h1m-9 1h1m2 0h1m1 0h1m1 0h1"/><path stroke="#e8f2ff" d="M4 2h1m1 0h1m1 0h1m2 0h1M3 3h2m1 0h3m2 0h2M2 4h3m6 0h1M2 7h2"/><path stroke="#fff" d="M6 4h4M5 5h1m4 0h1M4 6h1m6 0h1M4 7h1m6 0h1M4 8h1m6 0h1M4 9h1m6 0h1m-7 1h1m4 0h1m-5 1h4"/><path stroke="#a8cfff" d="M12 4h2m-2 2h2m-2 1h1M3 8h1"/><path stroke="#77a9ff" d="M12 8h2M2 9h2m-2 2h3m6 0h3M3 12h2m2 0h3m1 0h2m-9 1h1m2 0h1m1 0h1m1 0h1"/></svg>