<svg xmlns="http://www.w3.org/2000/svg" viewBox="0 -0.5 16 16" shape-rendering="crispEdges"><path stroke="#000" d="M2 1h4m3 0h4M1 2h1m4 0h1m1 0h1m4 0h1M0 3h2m5 0h1m5 0h2M0 4h2m1 0h1m1 0h1m1 0h1m1 0h3m1 0h2M0 5h2m3 0h1m1 0h1m5 0h2M0 6h2m1 0h1m1 0h1m1 0h1m1 0h3m1 0h2M0 7h2m1 0h1m3 0h1m2 0h1m2 0h2M0 8h2m1 0h1m1 0h1m1 0h1m2 0h1m2 0h2M0 9h2m5 0h1m5 0h2M0 10h2m5 0h1m5 0h2M0 11h1m1 0h11m1 0h1M1 12h1m5 0h1m5 0h1M2 13h11"/><path stroke="#d2d2d2" d="M2 2h3m5 0h3M4 3h1m4 0h3M2 4h1m1 0h1m7 0h1M2 5h2m6 0h3M2 6h1m1 0h1m1 0h1m5 0h1M6 7h1m2 0h1M4 8h1m1 0h1m2 0h1m1 0h2M2 9h2m1 0h2m1 0h1m1 0h3M2 10h4m4 0h3"/><path stroke="#dadada" d="M5 2h1m3 0h1M2 3h2m1 0h2m1 0h1m3 0h1M6 4h1m1 0h1M4 5h1m1 0h1m1 0h2M8 6h1M2 7h1m1 0h2m2 0h1m2 0h2M2 8h1m5 0h1M4 9h1m4 0h1m-4 1h1m1 0h2"/><path stroke="#6b2814" d="M1 11h1m11 0h1M4 12h1m1 0h1m1 0h1"/><path stroke="#76331f" d="M2 12h2m5 0h1"/><path stroke="#74311d" d="M5 12h1m4 0h3"/></svg>