<svg xmlns="http://www.w3.org/2000/svg" viewBox="0 -0.5 16 16" shape-rendering="crispEdges"><path stroke="#000" d="M4 1h3m1 0h3M4 2h3m1 0h3M2 3h2m3 0h1m3 0h2M1 4h1m11 0h1M1 5h1m11 0h1M1 6h1m11 0h1M1 7h1m11 0h1M1 8h1m11 0h1M2 9h2m7 0h2m-9 1h1m5 0h1m-7 1h1m5 0h1m-6 1h2m1 0h2m-3 1h1m-1 1h1"/><path stroke="#ff1313" d="M4 3h3m1 0h2M2 4h2m1 0h3M2 5h2m1 0h3M2 6h8M4 7h4M4 8h4M5 9h5m-3 1h1m-1 1h1"/><path stroke="#282828" d="M10 3h1M8 4h5M8 5h5m-3 1h3M8 7h5M8 8h5m-3 1h1m-3 1h2m-2 1h2"/><path stroke="#ffc8c8" d="M4 4h1M4 5h1"/><path stroke="#bb1313" d="M2 7h2M2 8h2m0 1h1m0 1h2m-2 1h2m0 1h1"/></svg>