<svg xmlns="http://www.w3.org/2000/svg" viewBox="0 -0.5 16 16" shape-rendering="crispEdges"><path stroke="#b5b4b0" d="M1 0h1M0 2h1m2 0h1m8 0h1M4 3h1m6 0h1M3 4h1m1 0h1m4 0h1M4 5h1m6 0h1m-2 1h1m0 1h1m-2 1h1m-6 2h1m4 0h1m-8 1h1m1 0h2m1 0h1m1 0h1m1 0h1M2 12h1m8 0h1m1 0h1m-2 1h1m1 0h1m-3 1h1"/><path stroke="#8c8b84" d="M2 0h1m10 0h1M1 1h1m12 0h1M0 13h1m0 1h1"/><path stroke="#777869" d="M14 0h1"/><path stroke="#c8c7c4" d="M2 1h1m10 0h1M1 2h2m10 0h2M6 4h4M4 6h2m5 0h1M4 7h1m5 0h1M5 8h1m3 0h1M6 9h1m2 0h1m-3 1h1m-7 2h1m12 0h1M2 14h1m10 0h1"/><path stroke="#797870" d="M3 1h1m11 1h1M1 3h2m10 0h2m-3 1h1m-4 6h1m-3 1h1m-4 1h1m-2 1h1m11 0h1M3 14h1m10 0h2M2 15h1m10 0h1"/><path stroke="#d3d3d1" d="M12 1h1M3 3h1m8 0h1M7 5h2M8 6h1M5 7h5M6 8h1m-4 4h1m8 0h1M1 13h2m10 0h1"/><path stroke="#9a9a97" d="M5 3h1M4 4h1M3 5h1"/><path stroke="#848482" d="M6 3h4M3 6h1M3 7h1m1 2h1m-2 1h1m-1 1h1"/><path stroke="#686760" d="M10 3h1m0 1h1m0 1h1m-1 1h1m-1 1h1M8 8h1m2 0h1m-2 1h1m0 1h1m-3 1h1m1 0h1m-7 1h1m1 0h3"/><path stroke="#930" d="M5 5h2m2 0h1M7 6h1m1 0h1"/><path stroke="#900" d="M10 5h1M6 6h1"/><path stroke="#787771" d="M4 8h1"/><path stroke="#706f68" d="M7 8h1m-2 2h1m1 0h1"/><path stroke="#8a8983" d="M7 9h2"/><path stroke="#807f79" d="M6 12h1m3 0h1"/><path stroke="#727877" d="M0 14h1"/></svg>