<svg xmlns="http://www.w3.org/2000/svg" viewBox="0 -0.5 16 16" shape-rendering="crispEdges"><path stroke="#000" d="M7 0h2M6 1h1m2 0h1M6 2h1m2 0h1M5 3h1m4 0h1M4 4h1m6 0h1M4 5h1m6 0h1M3 6h1m8 0h1M3 7h1m8 0h1M3 8h1m8 0h1M2 9h1m10 0h1M2 10h1m10 0h1M2 11h1m10 0h1M2 12h1m10 0h1M3 13h1m8 0h1m-9 1h2m4 0h2m-6 1h4"/><path stroke="#d78686" d="M7 1h1M7 2h1m0 1h1m0 1h1M9 5h1M7 6h1m2 0h1M7 7h2m1 0h1M6 9h3m2 0h1m-1 1h2M3 12h1m0 1h1m4 0h1"/><path stroke="#bc6b6b" d="M8 1h1M8 2h1m0 1h1m0 1h1m-1 1h1m0 1h1m-1 1h1m-2 1h2m-2 1h1m1 0h1m-4 1h1m-3 1h2"/><path stroke="#ea9898" d="M6 3h2M5 4h1m0 1h1M5 6h1M4 7h1m5 4h2m-4 1h1m1 0h1"/><path stroke="#dd8c8c" d="M6 4h1M5 5h1M4 6h1m0 1h1M4 8h1m2 0h1m2 2h1m-2 1h1m-5 2h4"/><path stroke="#cf7d7d" d="M7 4h2M7 5h2M6 6h1m1 0h2M6 7h1M5 8h2m1 0h2M5 9h1m0 1h2m4 1h1m-2 1h1m-2 1h1"/><path stroke="#c27070" d="M9 7h1M9 9h1m-2 1h1m3 2h1m-2 1h1m-6 1h4"/><path stroke="#fbaaaa" d="M3 9h2m-2 1h1m-1 1h1m2 0h1m-3 1h4m1 0h1"/><path stroke="#ffe6e6" d="M4 10h2m-1 1h1"/><path stroke="#ffdada" d="M4 11h1"/></svg>