<svg xmlns="http://www.w3.org/2000/svg" viewBox="0 -0.5 16 16" shape-rendering="crispEdges"><path stroke="#fff" d="M3 1h2M3 2h1M3 3h1"/><path stroke="#f0ede8" d="M5 1h1M4 2h1M4 3h1M3 4h1"/><path stroke="#d3d1cb" d="M5 2h1M5 3h1M4 4h2"/><path stroke="#523000" d="M6 2h1m5 0h1"/><path stroke="#815d07" d="M7 2h5"/><path stroke="#341100" d="M6 3h7"/><path stroke="#787670" d="M2 6h12"/><path stroke="#6b6763" d="M2 7h1M2 8h1M2 9h1m2 3h1m-2 1h1m-1 1h1"/><path stroke="#5f5e57" d="M3 7h8M3 8h6"/><path stroke="#474441" d="M11 7h3M9 8h2M3 9h6"/><path stroke="#2f2d2b" d="M6 10h3m-3 1h2m1 0h1m-1 1h1m0 1h1m-6 1h6"/><path stroke="#514f4b" d="M8 11h1m-3 1h3m-4 1h5"/></svg>