<svg xmlns="http://www.w3.org/2000/svg" viewBox="0 -0.5 16 16" shape-rendering="crispEdges"><path stroke="#000" d="M3 0h4M4 1h1m2 0h1M5 2h1m2 0h1m3 0h1M2 3h1m2 0h1m3 0h1m1 0h1m1 0h1M2 4h2m1 0h1m3 0h1m1 0h1m2 0h1M2 5h1m1 0h1m4 0h1m1 0h1m3 0h1M2 6h1m6 0h2m1 0h3M1 7h1m7 0h1m1 0h2m2 0h1M0 8h1m9 0h1m3 0h1M0 9h1m5 0h1m2 0h1m2 0h1m2 0h1M0 10h1m4 0h4m2 0h1m1 0h2M0 11h1m4 0h1m1 0h1m2 0h1m1 0h3M1 12h1m2 0h1m1 0h1m1 0h1m1 0h2m3 0h1M2 13h2m2 0h2m3 0h1m2 0h1M4 14h1m1 0h2m1 0h1m1 0h1m1 0h1m-9 1h1m2 0h1m1 0h1m1 0h1"/><path stroke="#ffe000" d="M5 1h2M6 2h2M6 3h3M7 4h2M3 5h1m4 0h1M3 6h2M2 7h2m6 0h1"/><path stroke="#e8f2ff" d="M12 3h1m-1 1h2m-2 1h1m-2 1h1"/><path stroke="#ffa300" d="M6 4h1M5 5h3M5 6h1m1 0h2M4 7h2m1 0h2M1 8h4m3 0h2M1 9h1m1 0h1"/><path stroke="#a8cfff" d="M13 5h2m-2 2h2m-4 1h3m-4 1h1m-2 1h1"/><path stroke="#e54720" d="M6 6h1M6 7h1M5 8h3M2 9h1m1 0h2m1 0h2m-8 1h4m-4 1h4m-3 1h2"/><path stroke="#77a9ff" d="M11 9h1m1 0h2m-5 1h1m-5 1h1m1 0h2m1 0h1m-7 1h1m3 0h1m2 0h3M4 13h2m2 0h3m1 0h2m-9 1h1m2 0h1m1 0h1m1 0h1"/></svg>