<svg xmlns="http://www.w3.org/2000/svg" viewBox="0 -0.5 16 16" shape-rendering="crispEdges"><path stroke="#ffb600" d="M2 1h1m9 0h1M3 2h1m3 0h1m3 0h1M2 4h1m5 0h1m3 0h1M8 5h1M3 6h1m4 0h1m2 0h1M1 7h1m11 0h1M6 8h1M3 9h1m2 0h1m4 0h1M1 12h1m1 0h1m2 0h1m4 0h1m1 0h1"/><path stroke="#d84c45" d="M3 1h1m3 0h1m3 0h1M2 3h1m5 0h1m3 0h1M7 5h1M1 6h1m11 0h1M3 7h1m2 0h1m4 0h1M8 8h1m-8 2h1m11 0h1"/><path stroke="#8b8b8b" d="M13 1h1m-1 1h1M4 3h1M4 4h1M4 5h1m4 0h1m3 0h1M4 6h1m4 0h1M4 7h1m4 0h1m4 0h1M3 8h1m5 0h1m4 0h1M8 9h2m4 0h1M4 10h1m3 0h1m5 0h1M4 11h1m8 0h1M4 12h1m4 0h1m-8 1h3m2 0h3m2 0h3M2 14h3m2 0h3m2 0h3"/><path stroke="#ffff1f" d="M3 3h1m3 0h1m3 0h1M3 4h1m7 0h1M2 5h1m9 0h1M2 6h1m4 0h1m4 0h1M8 7h1m3 0h1M1 8h1m5 0h1m5 0h1m-1 1h1M3 10h1m2 0h1m4 0h1m-6 1h1m1 0h1"/><path stroke="#fff" d="M3 5h1m7 0h1M2 7h1m4 0h1M2 8h1m9 0h1M1 9h2m4 0h1m4 0h1M2 10h1m4 0h1m4 0h1M2 11h2m3 0h1m3 0h2M2 12h1m4 0h2m3 0h1"/></svg>