<svg xmlns="http://www.w3.org/2000/svg" viewBox="0 -0.5 16 16" shape-rendering="crispEdges"><path stroke="#afcaca" d="M6 2h4M4 3h2m4 0h1M3 4h1m7 0h1M3 5h1M2 6h1m9 0h1M2 7h1M2 8h1M2 9h1m9 0h1M3 10h1m0 1h1m6 0h1m-6 1h1m2 0h1"/><path stroke="#d0f1f1" d="M6 3h1m2 0h1M4 4h1m2 0h1m2 0h1m0 1h1M4 6h1m5 0h1M3 7h1m7 0h1M3 8h1m5 0h1m2 0h1m-2 1h1m-8 1h1m3 0h1m1 1h1m-4 1h1"/><path stroke="#e8f8f8" d="M7 3h2M5 4h1m3 0h1M4 5h1m1 0h1m2 0h1M3 6h1m4 0h1m2 0h1m-2 1h1M4 8h1m1 0h1m1 0h1m1 0h1M5 9h1m1 0h1m1 0h1m-3 1h1"/><path stroke="#7ba6a6" d="M11 3h1m0 1h1m-1 1h1m0 1h1m-1 1h1m-1 1h1m-1 1h1m-2 1h1M3 11h1m8 0h1m-9 1h2m4 0h2m-6 1h4"/><path stroke="#fff" d="M6 4h1m1 0h1M5 5h1m1 0h2m1 0h1M5 6h3m1 0h1M4 7h6M5 8h1m1 0h1M6 9h1m1 0h1"/><path stroke="#c2dada" d="M12 7h1m-2 1h1M3 9h2m5 0h1m-6 1h2m2 0h3m-7 1h5m-2 1h1"/></svg>