<svg xmlns="http://www.w3.org/2000/svg" viewBox="0 -0.5 16 16" shape-rendering="crispEdges"><path stroke="#8d773d" d="M10 0h1m1 1h1m-3 1h1m4 0h1M8 3h1m1 0h1m3 0h1M7 4h1m1 0h1m1 0h1m1 0h1M7 5h1m1 0h1m1 0h1m1 0h2m-5 1h1m1 0h2m-4 1h1m0 1h1M9 9h1m1 1h1M1 13h1m-1 1h1"/><path stroke="#565138" d="M8 1h1M6 2h1M6 3h1m8 2h1m-2 1h1m0 1h1m-3 1h2M5 9h1m5 0h2m-9 1h1m1 0h1m2 0h2M1 11h1m3 0h4m2 0h3m-9 1h2m-2 1h1m-4 1h2m1 0h1m-5 1h1m2 0h1"/><path stroke="#7f6a33" d="M9 1h1M8 2h1m2 0h1M7 3h1m4 0h1M6 4h1M5 7h1m8 0h1m-3 1h1M4 9h1m5 0h1m-8 1h1m1 0h1m2 0h1m3 0h1M2 11h1m-2 1h1m1 1h2m-1 1h1"/><path stroke="#a69553" d="M10 1h1M9 2h1m1 1h1m1 0h1m-4 1h1m1 0h1M6 5h1M6 6h1m2 0h1M6 7h1m1 0h1m3 0h2M5 8h1m3 0h1M8 9h1m-2 1h1m-4 1h1m-2 1h1m-2 1h1"/><path stroke="#cdb159" d="M9 3h1M8 4h1m1 1h1m1 0h1M7 6h1m3 0h1M9 7h1m1 0h1M6 8h1m3 0h1m-8 3h1m-2 1h1m1 0h1"/><path stroke="#dcbb65" d="M8 5h1M8 6h1M7 7h1M7 8h2M6 9h2"/></svg>