<svg xmlns="http://www.w3.org/2000/svg" viewBox="0 -0.5 16 16" shape-rendering="crispEdges"><path stroke="#000" d="M4 1h4M5 2h1m2 0h1M6 3h1m2 0h1M3 4h1m2 0h1m3 0h1M3 5h3m4 0h1m1 0h1M3 6h1m2 0h4m1 0h1m1 0h1M3 7h1m1 0h1m4 0h1m2 0h1M2 8h1m2 0h1m4 0h1m3 0h1M1 9h1m3 0h1m4 0h1m3 0h1M1 10h1m3 0h1m4 0h1m3 0h1M1 11h1m4 0h4m4 0h1M1 12h1m12 0h1M2 13h1m4 0h3m3 0h1M3 14h4m3 0h3"/><path stroke="#ffe000" d="M6 2h2M7 3h2M7 4h3M4 6h1m7 0h1m-1 1h1M3 8h1m8 0h2"/><path stroke="#fff" d="M6 5h4M5 6h1m4 0h1M4 7h1m6 0h1M4 8h1m6 0h1M4 9h1m6 0h1m-8 1h1m6 0h1m-7 1h1m4 0h1m-5 1h4"/><path stroke="#ffa300" d="M2 9h2m8 0h2M2 10h1m10 0h1"/><path stroke="#e54720" d="M3 10h1m8 0h1M2 11h3m6 0h3M2 12h4m4 0h4M3 13h4m3 0h3"/></svg>