<svg xmlns="http://www.w3.org/2000/svg" viewBox="0 -0.5 16 16" shape-rendering="crispEdges"><path stroke="#000" d="M3 0h1m7 0h1M2 1h1m1 0h2m4 0h1m1 0h1M1 2h1m2 0h1m1 0h1m3 0h1m1 0h3M0 3h1m5 0h1m2 0h1m5 0h1M0 4h1m5 0h1m2 0h1m5 0h1M1 5h1m3 0h1m1 0h2m5 0h1M2 6h3m1 0h1m1 0h1m4 0h1M6 7h1m5 0h1M5 8h1m5 0h1M4 9h1m5 0h1m-8 1h1m5 0h1m-8 1h1m5 0h1m-7 1h1m5 0h1m-7 1h1m5 0h1m-6 1h1m3 0h1m-4 1h3"/><path stroke="#ffe000" d="M3 1h1m7 0h1M2 2h2m1 0h1m5 0h1M2 3h1m1 0h1m5 0h1m1 0h1M9 5h1M7 6h1M6 8h1M5 9h1"/><path stroke="#ffa300" d="M1 3h1m1 0h1m1 0h1m5 0h1M2 4h1m1 0h1m5 0h1M9 6h1M7 7h1M6 9h1"/><path stroke="#fff" d="M13 3h2m-3 1h1m-2 1h1m-2 1h1M9 7h1M8 8h1M7 9h1m-4 1h3m-4 1h1m-1 1h1m-1 1h1"/><path stroke="#e54720" d="M1 4h1m1 0h1m1 0h1m5 0h1M2 5h3m5 0h1M8 7h1M7 8h1"/><path stroke="#ff8080" d="M13 4h1m-3 2h1M9 8h1m-3 2h1"/><path stroke="#e2e2e2" d="M14 4h1m-2 1h1m-2 1h1m-2 1h1m-2 1h1M9 9h1m-2 1h1m-2 1h1m-1 1h1m-1 1h1m-4 1h3"/><path stroke="red" d="M12 5h1m-3 2h1M8 9h1m-4 2h2m-1 1h1"/><path stroke="#ba0000" d="M4 11h1m-1 1h2m-2 1h3"/></svg>