<svg xmlns="http://www.w3.org/2000/svg" viewBox="0 -0.5 16 16" shape-rendering="crispEdges"><path stroke="#000" d="M1 0h1m1 0h1m1 0h1M0 1h1m1 0h1m1 0h1m1 0h1M1 2h1m3 0h1m7 0h2M0 3h1m2 0h1m2 0h1m5 0h1m2 0h1M1 4h1m3 0h1m5 0h1m1 0h1m1 0h1M0 5h1m1 0h1m1 0h1m1 0h1m3 0h1m1 0h1m2 0h1M1 6h1m1 0h1m1 0h1m3 0h1m1 0h1m3 0h1M8 7h1m1 0h1m3 0h1M7 8h1m4 0h1m1 0h1M4 9h3m5 0h2M3 10h1m6 0h1m1 0h1M2 11h1m7 0h2M2 12h1m7 0h1m-9 1h1m5 0h1m1 0h1m-8 1h1m3 0h1m1 0h1m-6 1h3"/><path stroke="#e8f2ff" d="M1 1h1m1 0h1m1 0h1M2 2h1m1 0h1M1 3h1m12 3h1m-2 2h1m-3 2h1m-4 2h1m0 1h1"/><path stroke="#a8cfff" d="M3 2h1M2 3h1m1 0h1M3 4h1m10 1h1m-3 2h2m-3 2h1m-4 2h1m0 1h1"/><path stroke="#77a9ff" d="M5 3h1M2 4h1m1 0h1M1 5h1m1 0h1m1 0h1m7 1h1m-3 2h1m-2 1h1m-2 1h1m-1 1h1"/><path stroke="#fff" d="M13 3h2m-3 1h1m-2 1h1m-2 1h1M9 7h1M8 8h1M7 9h1m-4 1h3m-4 1h1m-1 1h1m-1 1h1"/><path stroke="#e2e2e2" d="M14 4h1m-2 1h1m-2 1h1m-2 1h1m-2 1h1M9 9h1m-2 1h1m-2 1h1m-1 1h1m-1 1h1m-4 1h3"/><path stroke="#ff8080" d="M9 8h1m-3 2h1"/><path stroke="red" d="M8 9h1m-4 2h2m-1 1h1"/><path stroke="#ba0000" d="M4 11h1m-1 1h2m-2 1h3"/></svg>