<svg xmlns="http://www.w3.org/2000/svg" viewBox="0 -0.5 16 16" shape-rendering="crispEdges"><path stroke="#522c10" d="M10 1h1M8 2h2M7 3h1M6 4h1M6 5h1M5 6h1M4 7h1M3 8h1M2 9h1m-2 1h1m-1 1h1m0 1h2m-1 1h1"/><path stroke="#28140a" d="M11 1h1m-1 1h1m0 1h1m1 1h2m-1 1h1m-2 1h1m-2 1h1m-1 1h1m0 1h1m-2 1h1m-2 1h1m-4 1h3m-6 1h3m-5 1h2"/><path stroke="#8b3418" d="M10 2h1M7 4h1m1 1h1m1 0h1M7 7h1m2 0h1M6 8h1M5 9h1m5 0h1m1 0h1m-5 1h1m2 0h1m-7 1h1m1 0h1m-5 1h2m-2 1h1"/><path stroke="#b44420" d="M8 3h1m1 0h1M8 5h1M7 6h1m2 0h1M6 7h1m2 0h1M5 8h1m1 0h2m2 0h1M4 9h1m5 0h1m-8 1h1m2 0h1m-5 1h1m2 0h1m-1 2h1"/><path stroke="#834418" d="M9 3h1m1 0h1m-2 1h1m1 0h1m0 1h1M8 7h1m3 0h1m-9 3h1m5 0h1m-8 1h1"/><path stroke="#c56541" d="M8 4h1m1 1h1M9 6h1M5 7h1m5 0h1M9 8h1M3 9h1m2 0h1m1 0h1m-2 2h1"/><path stroke="#6f4d1b" d="M9 4h1m2 1h1m-2 1h1M4 8h1m2 2h1m-2 2h1"/><path stroke="#622c10" d="M11 4h1m1 0h1m0 1h1m-2 1h1m-2 2h1m-1 1h1m-2 1h1m-3 1h3m-5 1h2"/><path stroke="#c5815a" d="M7 5h1M6 6h1m3 2h1m-9 2h1m2 0h1m2 0h1m-5 1h1"/><path stroke="#6a5d18" d="M8 6h1m3 0h1M7 9h1"/><path stroke="#c5956a" d="M9 9h1"/></svg>