<svg xmlns="http://www.w3.org/2000/svg" viewBox="0 -0.5 16 16" shape-rendering="crispEdges"><path stroke="#000" d="M12 0h1M9 1h1m1 0h1m1 0h1M8 2h1m1 0h1m3 0h1M5 3h1m2 0h2m4 0h1M3 4h2m1 0h2m1 0h2m3 0h1M2 5h1m1 0h2m1 0h1m1 0h1m5 0h1M3 6h1m1 0h2m6 0h2M2 7h1m1 0h1m7 0h1m2 0h1M1 8h1m1 0h2m5 0h2m1 0h2M2 9h1m5 0h1m1 0h1m1 0h1m1 0h1M1 10h2m4 0h1m1 0h1m1 0h1m1 0h1M0 11h1m5 0h1m1 0h1m1 0h1M1 12h2m3 0h2m1 0h1M0 13h1m6 0h2m-8 1h3m1 0h2m1 0h1m-5 1h1m2 0h1"/><path stroke="#6e6e6e" d="M12 1h1M9 2h1m2 0h1m-3 1h4M5 4h1m2 0h1m2 0h1m1 0h1M3 5h1m2 0h1m1 0h1m1 0h1m1 0h2M8 6h5M5 7h3m2 0h2m1 0h2M2 8h1m2 0h5m2 0h1M3 9h2m1 0h2m5 0h1M3 10h3m4 0h1M1 11h2m1 0h2m1 0h1m-5 1h3m2 0h1m-8 1h3m1 0h2m-3 1h1m2 0h1"/><path stroke="#fff" d="M11 2h1m1 0h1"/><path stroke="#605b5b" d="M12 4h1m-2 1h1m2 0h1M4 6h1m2 0h1m0 1h2M5 9h1m3 0h1m-4 1h1m-4 1h1m0 2h1"/></svg>