<svg xmlns="http://www.w3.org/2000/svg" viewBox="0 -0.5 16 16" shape-rendering="crispEdges"><path stroke="#a4edfe" d="M2 0h2M1 1h1m3 0h4M1 2h1M1 3h1"/><path stroke="#67d0e8" d="M4 0h1m6 0h2M9 1h2m3 1h1m-1 1h1M1 4h1m5 0h2m5 0h1M1 5h1m5 0h1M1 6h1M1 8h1m12 1h1"/><path stroke="#285c69" d="M5 0h1m4 0h1m3 0h1M2 9h1m10 0h1M1 10h1m12 0h1M5 13h1m4 0h1m-5 1h4"/><path stroke="#3babc4" d="M13 0h1m0 1h1m-1 4h1m-1 1h1M1 7h1m4 1h1m1 0h3m3 0h1M1 9h1m7 0h1m-8 1h1m10 1h1M3 12h1m6 2h1m-3 1h2"/><path stroke="#9eb1b2" d="M2 1h2m8 0h2M4 2h8"/><path stroke="#7d98a8" d="M4 1h1m6 0h1M3 2h1m8 0h1M4 3h3m1 0h4M4 4h3m2 0h3M4 5h2m3 0h3M4 6h2m4 0h2M4 7h2m4 0h2M4 8h1m6 0h1M4 9h2m4 0h2m-7 1h2m3 0h1m-6 1h3m1 0h2m-5 1h4"/><path stroke="#507a83" d="M2 2h1m10 0h1M2 3h1m10 0h1M2 4h1m10 0h1M3 8h1m8 0h1M3 9h1m8 0h1M3 10h1m8 0h1m-9 2h1m6 0h1m-6 1h1m2 0h1"/><path stroke="#658592" d="M3 3h1m8 0h1M3 4h1m8 0h1M3 5h1m8 0h1M3 6h1m8 0h1M3 7h1m8 0h1m-9 3h1m6 0h1m-8 1h1m6 0h1m-7 1h1m4 0h1m-4 1h2"/><path stroke="#7aa0b2" d="M7 3h1M6 5h1M6 6h1m2 0h1M6 7h1m2 0h1m-1 3h1m-2 1h1"/><path stroke="#3f6778" d="M2 5h1m10 0h1M2 6h1m10 0h1M2 7h1m10 0h1M2 8h1m10 0h1M3 11h1m8 0h1"/><path stroke="#46b3cd" d="M8 5h1M7 6h2M7 7h2M7 8h1M7 9h2"/><path stroke="#347e8c" d="M14 7h1m-2 3h1M2 11h1m9 1h1M3 13h2m6 0h1m-7 1h1m0 1h2"/><path stroke="#3e9bb0" d="M5 8h1m0 1h1m0 1h2"/></svg>