<svg xmlns="http://www.w3.org/2000/svg" viewBox="0 -0.5 16 16" shape-rendering="crispEdges"><path stroke="#4e2719" d="M9 3h4M8 4h1m4 0h1M7 5h1m6 0h1M6 6h1M4 7h2M3 8h1M3 9h1m-2 1h1m-1 1h1m0 1h1"/><path stroke="#713f2d" d="M9 4h1m1 0h1m0 1h1m0 1h1m-2 1h1m-2 1h1M4 9h1m-2 1h1m5 0h1m-6 1h1m3 0h1"/><path stroke="#7c4835" d="M10 4h1m-1 2h1m0 1h1M5 8h1m-2 2h1m0 1h1m3 0h1m-3 1h1"/><path stroke="#8e523c" d="M12 4h1m-3 1h1M7 6h2m2 0h1M9 7h1M6 8h1m3 0h1M7 9h2m-1 1h1m-4 2h2"/><path stroke="#522f1f" d="M8 5h1m0 1h1m2 0h1M7 7h1m2 0h1m2 0h1M4 8h1m3 0h1M5 9h1m3 0h1m-4 1h1m3 0h1m-4 1h1m-3 2h1"/><path stroke="#985c43" d="M9 5h1M8 7h1m0 1h1M6 9h1m3 0h1m-6 1h1m1 0h1m-5 1h1m2 0h1m-3 1h1"/><path stroke="#673728" d="M11 5h1m1 0h1M6 7h1m0 1h1m4 0h1m-2 1h1m-2 2h1m-3 1h1"/><path stroke="#2a160d" d="M14 6h1m-1 1h1m-1 1h1m-2 1h1m-1 1h1m-2 1h1m-2 1h1m-9 1h2m4 0h2m-6 1h4"/><path stroke="#3f2116" d="M13 8h1m-2 1h1m-2 1h2m-2 1h1m-3 1h2m-5 1h3"/></svg>