<svg xmlns="http://www.w3.org/2000/svg" viewBox="0 -0.5 9 9" shape-rendering="crispEdges"><path stroke="#e9d262" d="M2 0h2"/><path stroke="#ddc241" d="M1 1h1m2 0h1"/><path stroke="#d42a2a" d="M2 1h1M1 2h1m1 0h1M2 3h1"/><path stroke="#b21818" d="M3 1h1M1 3h1"/><path stroke="#c2a100" d="M0 2h1m4 0h1M0 3h1m5 0h1M6 4h1M6 5h1m0 1h2M8 7h1"/><path stroke="#dfb18f" d="M2 2h1"/><path stroke="#b88458" d="M4 2h1M3 3h1m1 0h1"/><path stroke="#9d6d43" d="M4 3h1M4 4h2"/><path stroke="#9f8609" d="M1 4h1m0 1h1m0 1h3m0 1h1M6 8h2"/><path stroke="#613c1b" d="M2 4h1m0 1h1"/><path stroke="#7b512d" d="M3 4h1m0 1h2"/><path stroke="#e2d5aa" d="M6 6h1"/><path stroke="#fff7dc" d="M7 7h1"/></svg>