<svg xmlns="http://www.w3.org/2000/svg" viewBox="0 -0.5 16 16" shape-rendering="crispEdges"><path stroke="#000" d="M7 0h2M6 1h1m2 0h1M6 2h1m2 0h1M5 3h1m4 0h1M4 4h1m6 0h1M4 5h1m6 0h1M3 6h1m8 0h1M3 7h1m8 0h1M3 8h1m8 0h1M2 9h1m10 0h1M2 10h1m10 0h1M2 11h1m10 0h1M2 12h1m10 0h1M3 13h1m8 0h1m-9 1h2m4 0h2m-6 1h4"/><path stroke="#61d51a" d="M7 1h1M7 2h1m0 1h1m0 1h1M9 5h1m0 1h1m-1 1h1m0 2h1m-1 1h1"/><path stroke="#53b118" d="M8 1h1M8 2h1m0 1h1m0 1h1m-1 1h1m0 1h1m-1 1h1m-1 1h1m0 1h1"/><path stroke="#6cf11a" d="M6 3h2M5 4h1m0 1h1M5 6h1M4 7h1m5 4h1"/><path stroke="#64dd1a" d="M6 4h1M5 5h1M4 6h1M4 8h1m4 3h1"/><path stroke="#70c70e" d="M7 4h1M7 5h1m0 1h1M6 7h2M6 8h1m1 0h2m-3 2h1"/><path stroke="#6dbe0f" d="M8 4h1M8 5h1M6 6h1m2 0h1M5 8h1"/><path stroke="#77d511" d="M7 6h1m0 1h1M7 8h1M6 9h3m2 2h1m-2 1h1"/><path stroke="#67e319" d="M5 7h1m4 3h1"/><path stroke="#65b00e" d="M9 7h1M9 9h2m-3 1h2m-2 1h1"/><path stroke="#5b9e0f" d="M10 8h1m-4 3h1"/><path stroke="#8aef20" d="M3 9h1m2 3h4"/><path stroke="#91f552" d="M4 9h1m1 2h1"/><path stroke="#77c11a" d="M5 9h1m0 1h1m5 0h1"/><path stroke="#a6f33f" d="M3 10h1m1 2h1"/><path stroke="#ddfcca" d="M4 10h2m-1 1h1"/><path stroke="#b5e14d" d="M3 11h1m0 1h1"/><path stroke="#dbf894" d="M4 11h1"/><path stroke="#84b516" d="M12 11h1M3 12h1m7 0h1m-8 1h1m5 0h1"/><path stroke="#80a016" d="M12 12h1m-2 1h1m-6 1h4"/><path stroke="#8aca17" d="M5 13h5"/></svg>