<svg xmlns="http://www.w3.org/2000/svg" viewBox="0 -0.5 16 16" shape-rendering="crispEdges"><path stroke="#000" d="M7 0h2M6 1h1m2 0h1M6 2h1m2 0h1M5 3h1m4 0h1M4 4h1m6 0h1M4 5h1m6 0h1M3 6h1m8 0h1M3 7h1m8 0h1M3 8h1m8 0h1M2 9h1m10 0h1M2 10h1m10 0h1M2 11h1m10 0h1M2 12h1m10 0h1M3 13h1m8 0h1m-9 1h2m4 0h2m-6 1h4"/><path stroke="#1364e7" d="M7 1h1M7 2h1m0 1h1M6 4h1m2 0h1M5 5h1m1 0h1m1 0h1M4 6h1m1 0h1m1 0h1m1 0h1M5 7h1m1 0h1m1 0h2M4 8h1m1 0h1m1 0h1m1 0h1M7 9h1m1 0h1m1 0h1m-4 1h1m1 0h2m-5 1h1m1 0h1m1 0h1m-9 1h1m4 0h1m1 0h1m-7 1h6"/><path stroke="#1353bb" d="M8 1h1M8 2h1m0 1h1m0 1h1m-1 1h1m0 1h1m-1 1h1m-1 1h1m0 1h1m-1 1h1m-1 1h1m-2 1h2m-3 1h2m-6 1h4"/><path stroke="#136dff" d="M6 3h2M5 4h1m1 0h2M6 5h1m1 0h1M5 6h1m1 0h1m1 0h1M4 7h1m1 0h1m1 0h1M5 8h1m1 0h1m1 0h1M6 9h1m1 0h1m1 0h1m-4 1h1m1 0h1m-2 1h1m1 0h1m-4 1h1m1 0h1"/><path stroke="#2b7cff" d="M3 9h1m1 0h1m0 1h1m-1 2h1"/><path stroke="#5395ff" d="M4 9h1m-2 1h1m-1 1h1m2 0h1m-3 1h2"/><path stroke="#c8ddff" d="M4 10h2m-2 1h2"/></svg>