<svg xmlns="http://www.w3.org/2000/svg" viewBox="0 -0.5 16 16" shape-rendering="crispEdges"><path stroke="#3f2b0b" d="M5 5h6M3 6h2m6 0h2M2 7h1M2 8h1M2 9h1"/><path stroke="#84160d" d="M5 6h2M3 7h1m5 0h3M6 8h4"/><path stroke="#6d1615" d="M7 6h4m1 1h1M5 8h1m4 0h1"/><path stroke="#b82a30" d="M4 7h5"/><path stroke="#1f1502" d="M13 7h1m-1 1h1m-1 1h1m-2 1h1m-9 1h2m4 0h2m-6 1h4"/><path stroke="#45320d" d="M3 8h2m6 0h2M5 9h6"/><path stroke="#714f0f" d="M3 9h1m0 1h6m-3 1h2"/><path stroke="#533909" d="M4 9h1m6 0h1m-2 1h1m-5 1h1m2 0h1"/><path stroke="#3a2706" d="M12 9h1m-2 1h1"/><path stroke="#302109" d="M3 10h1"/></svg>