<svg xmlns="http://www.w3.org/2000/svg" viewBox="0 -0.5 16 16" shape-rendering="crispEdges"><path stroke="#33be30" d="M7 1h2m0 1h1m2 0h1M6 3h1m2 0h1m2 0h1M8 4h1m2 0h1"/><path stroke="#1f9a1c" d="M9 1h1M8 2h1m4 0h1M5 3h1m2 0h1m2 0h1M6 4h1m3 0h1m1 0h1m-2 1h1m1 1h1"/><path stroke="#036703" d="M10 2h1M7 3h1m2 0h1m2 0h1M7 4h1m1 0h1M9 5h2m2 0h1m-2 1h1m1 0h1m-2 1h1m1 0h1m-4 1h2m-1 1h1"/><path stroke="#752802" d="M6 5h1m3 1h1m0 1h1m-1 1h1m-2 1h1m-2 1h1m-3 1h2m-3 1h1m-3 1h2m-4 1h2"/><path stroke="#ff8e09" d="M7 5h1M6 6h1m2 1h1M8 8h1M7 9h1m-2 1h1m-3 1h1m-2 1h1"/><path stroke="#d36a0d" d="M8 5h1m0 1h1m0 1h1M5 8h1m3 0h1M8 9h2m-6 1h1m2 0h1m-3 1h2m-3 1h1m-2 1h1"/><path stroke="#005000" d="M12 5h1m-2 1h1m0 1h1m1 0h1m-4 2h1"/><path stroke="#ac3900" d="M5 6h1M5 7h1M4 8h1m5 0h1M4 9h1m-2 1h1m4 0h1m-6 1h1m-2 1h1m2 0h1m-4 1h1"/><path stroke="#ffa73f" d="M7 6h2M6 7h1m1 0h1M5 9h2m-2 1h1"/><path stroke="#ffc177" d="M7 7h1M6 8h2"/></svg>