<svg xmlns="http://www.w3.org/2000/svg" viewBox="0 -0.5 16 16" shape-rendering="crispEdges"><path stroke="#0b081d" d="M6 4h4M4 5h2m4 0h2M2 6h2m8 0h2M1 7h1m12 0h1"/><path stroke="#a4a5cf" d="M6 5h1m1 0h2M5 6h1m5 0h1M2 7h3m6 0h1m1 0h1M1 8h1m2 0h1m9 0h1M4 9h1m6 0h1m1 0h1m-7 2h1"/><path stroke="#c6c7f6" d="M7 5h1M4 6h1m5 0h1m1 1h1M2 8h1m7 2h1"/><path stroke="#000" d="M6 6h4M5 7h1m4 0h1M0 8h1m4 0h1m4 0h1m4 0h1M1 9h1m3 0h1m4 0h1m3 0h1M2 10h2m2 0h4m2 0h2M4 11h2m4 0h2m-6 1h4"/><path stroke="#fff" d="M6 7h1m2 0h1M6 8h1m2 0h1M6 9h4"/><path stroke="#ff4518" d="M7 7h1M7 8h1"/><path stroke="#e4340c" d="M8 7h1"/><path stroke="#a396be" d="M3 8h1m7 0h3M2 9h2m8 0h1m-9 1h2m5 0h1m-6 1h1m1 0h2"/><path stroke="#72121b" d="M8 8h1"/></svg>