<svg xmlns="http://www.w3.org/2000/svg" viewBox="0 -0.5 16 16" shape-rendering="crispEdges"><path stroke="#060608" d="M6 1h1m2 1h1M4 3h1m7 2h1M3 6h1m3 0h1M1 8h2M1 9h1m1 0h1m2 0h1m7 0h1M2 10h1m1 0h1m-2 1h3m6 0h1m-9 1h1m1 0h1m2 0h1m-5 1h1m1 0h1m-2 1h2"/><path stroke="#14131c" d="M7 1h2M5 2h1m4 1h1M3 4h1m5 0h3M3 5h1m4 0h1m4 1h1M2 7h1m3 0h1m7 0h1M6 8h1m7 0h1M2 9h1m2 0h1m7 0h1M3 10h1m1 0h1m6 0h2m-5 1h3m-7 1h1m2 0h1m1 0h2m-6 1h1m1 0h1"/><path stroke="#3b2754" d="M6 2h3M5 3h2m2 0h1M4 4h5M4 5h2m3 0h3M4 6h1m3 0h2m2 0h1M3 7h1m3 0h7M7 8h2M7 9h1m-2 1h1"/><path stroke="#e6dcff" d="M7 3h2m1 3h2"/><path stroke="#271e3d" d="M6 5h2M5 6h2M4 7h2M3 8h3m3 0h5M4 9h1m3 0h5m-6 1h5m-6 1h3m-2 1h1"/></svg>