<svg xmlns="http://www.w3.org/2000/svg" viewBox="0 -0.5 16 16" shape-rendering="crispEdges"><path stroke="#c96400" d="M4 4h1m2 0h2M3 5h1m1 0h2m2 0h1M3 6h1M3 7h1M3 8h1M3 9h1"/><path stroke="#882300" d="M11 4h1m-2 1h1m1 0h1m-1 1h1m-1 1h1m-1 1h1M6 9h4m2 0h1m-9 1h8"/><path stroke="#fff550" d="M4 5h1m2 0h2M4 6h5M4 7h1M4 8h1m1 0h1"/><path stroke="#f8a900" d="M11 5h1M9 6h3M9 7h2M9 8h2"/><path stroke="#fff" d="M5 7h2M5 8h1"/><path stroke="#ff3d3d" d="M7 7h1"/><path stroke="#ff7979" d="M8 7h1"/><path stroke="#ffd738" d="M11 7h1m-1 1h1M4 9h2m4 0h2"/><path stroke="#b61a1a" d="M7 8h2"/></svg>