<svg xmlns="http://www.w3.org/2000/svg" viewBox="0 -0.5 16 16" shape-rendering="crispEdges"><path stroke="#fb71be" d="M7 2h1M7 4h1"/><path stroke="#d85197" d="M8 2h2M8 4h2"/><path stroke="#fff0ff" d="M6 3h1m3 0h1M6 4h1M6 7h1M5 8h1m1 0h1M4 9h1m1 0h1m-1 1h1"/><path stroke="#f9c1ff" d="M7 3h3M9 14h2"/><path stroke="#f7d9ff" d="M10 4h1M7 5h1M7 6h1m-4 4h1m-1 1h1m-1 1h1m-1 1h1"/><path stroke="#e3c4ff" d="M9 5h1M9 6h1m0 1h1m0 1h1m0 1h1m-1 1h1m-3 1h1m1 0h1m-3 1h1m-6 1h1m0 1h1"/><path stroke="#a5b2ff" d="M6 8h1m-1 3h1m-1 1h1m0 1h2"/><path stroke="#9193ff" d="M8 8h1M7 9h3m-3 1h1m1 0h1m-3 1h1m1 0h1m-3 1h1m1 0h1"/><path stroke="#8690ff" d="M9 8h1M5 9h1m5 0h1m-7 1h1m5 0h1m-7 1h1m-1 1h1m0 1h1"/><path stroke="#9eb0ff" d="M10 8h1m-1 1h1m-1 1h1"/><path stroke="#7a78ff" d="M8 10h1m-1 1h1m2 0h1m-4 1h1m2 0h1m-2 1h1"/><path stroke="#ecc7ff" d="M12 12h1m-4 1h1m1 0h2m-6 1h2"/></svg>