<svg xmlns="http://www.w3.org/2000/svg" viewBox="0 -0.5 16 16" shape-rendering="crispEdges"><path stroke="#f37498" d="M7 2h1"/><path stroke="#df5e8c" d="M8 2h1"/><path stroke="#d24f89" d="M9 2h1M8 4h1"/><path stroke="#fff1ff" d="M6 3h1m3 0h1M6 4h1M6 7h1M5 8h1m1 0h1M4 9h1m1 0h1m-1 1h1"/><path stroke="#eeb7f7" d="M7 3h1"/><path stroke="#f5baff" d="M8 3h2"/><path stroke="#e66696" d="M7 4h1"/><path stroke="#c13b85" d="M9 4h1m1 7h1m-4 1h1m2 0h1"/><path stroke="#f7d8ff" d="M10 4h1M7 5h1M7 6h1"/><path stroke="#e4c4ff" d="M9 5h1M9 6h1m0 1h1m0 1h1m0 1h1m-1 1h1m-3 1h1m-1 1h1m1 0h1m-2 1h2m-5 1h1m1 0h1"/><path stroke="#ff54af" d="M6 8h1m-1 3h1m-1 1h1m0 1h1"/><path stroke="#de427b" d="M8 8h2M8 9h2m-1 1h1"/><path stroke="#ff5193" d="M10 8h1m-1 1h1m-1 1h1m-3 3h1"/><path stroke="#ee46a8" d="M5 9h1m-1 1h1m-1 1h1m-1 1h1m1 0h1m-2 1h1"/><path stroke="#e3438b" d="M7 9h1m3 0h1m-5 1h1m3 0h1m-5 1h1m1 0h1m-1 1h1"/><path stroke="#fedaff" d="M4 10h1m-1 1h1m-1 1h1m-1 1h1"/><path stroke="#ba377b" d="M8 10h1m-1 1h1m1 2h1"/><path stroke="#dfc2ff" d="M12 11h1m-4 2h1m-1 1h1"/><path stroke="#f6c9ff" d="M5 13h1m0 1h2"/></svg>