<svg xmlns="http://www.w3.org/2000/svg" viewBox="0 -0.5 16 16" shape-rendering="crispEdges"><path stroke="#fff5e9" d="M4 2h1m3 3h2M8 6h1M7 7h1m-7 4h1m12 0h1M4 14h1"/><path stroke="#efbcac" d="M5 3h2m1 1h1M7 5h1m4 2h1M5 8h1m4 0h1M9 9h1m3 0h1M2 10h1m10 0h1m-8 1h1m-2 2h1"/><path stroke="#daa08c" d="M7 3h1m3 5h1m1 0h1M6 9h1m-2 1h1m2 0h1m-6 2h1"/><path stroke="#b88473" d="M8 3h2M7 4h1m3 0h1M6 5h1M6 6h1M5 7h1M4 8h1M4 9h1m-2 1h1"/><path stroke="#ffe2d6" d="M9 4h1m0 1h2M7 6h1m1 0h4M6 7h1m1 0h4M6 8h4M5 9h1m1 0h2m-5 1h1m1 0h2m-3 1h1"/><path stroke="#b47864" d="M10 4h1m1 1h1m0 1h1m-1 1h1m-2 1h1m-3 1h2m-3 1h1m-6 1h1m2 0h2m-4 1h2"/></svg>