<svg xmlns="http://www.w3.org/2000/svg" viewBox="0 -0.5 16 16" shape-rendering="crispEdges"><path stroke="#231507" d="M9 0h4M7 1h2m4 0h1M5 2h2m7 0h2M2 3h3M1 4h1M0 5h1M0 6h1M0 7h1M0 8h1m0 1h1m-1 1h1m2 0h3m-5 1h2m3 0h5m0 1h2m0 1h2"/><path stroke="#352719" d="M9 1h1m2 0h1M7 2h2m4 0h1M5 3h1M2 4h1M1 5h1M1 8h1m0 2h2m3 0h1m4 1h1m1 1h1"/><path stroke="#5e4e34" d="M10 1h2M9 2h1m1 0h2M7 3h2m4 0h1M4 4h3m1 0h2m1 0h1m2 0h2M3 5h1m4 0h1m2 0h1M2 6h1m5 0h1m3 0h1M2 7h1m5 0h1m3 0h1M2 8h1m5 0h1m4 0h1M8 9h1m4 0h1m-1 1h1"/><path stroke="#4d3f30" d="M10 2h1M6 3h1m2 0h4m1 0h2M3 4h1m3 0h1m2 0h1m1 0h2M2 5h1m1 0h4m1 0h2m1 0h4M1 6h1m1 0h5m1 0h3m1 0h3M1 7h1m1 0h5m1 0h3m1 0h3M3 8h5m1 0h4m1 0h2M2 9h6m1 0h4m1 0h2m-8 1h5m1 0h2m-3 1h3m-1 1h1"/></svg>