<svg xmlns="http://www.w3.org/2000/svg" viewBox="0 -0.5 16 16" shape-rendering="crispEdges"><path stroke="#8a6e79" d="M5 1h6M3 2h2m6 0h1M2 3h2m8 0h1M0 5h2m11 1h1m-3 3h1m-8 1h2m1 0h1m-1 1h1m3 0h1m-2 1h3"/><path stroke="#dbced2" d="M5 2h1m2 0h2M5 3h5M4 4h4m1 0h1M8 5h1m2 0h1"/><path stroke="#f0eaf0" d="M6 2h2m2 0h1m-1 3h1"/><path stroke="#b39da2" d="M4 3h1m7 2h1m-1 1h1M1 7h2m8 0h2M4 8h1m3 0h1m1 0h1M4 9h5m3 1h1"/><path stroke="#cbbac2" d="M10 3h1M8 4h1m2 0h1M3 5h3m3 0h1M6 6h3m2 4h1"/><path stroke="#aa9398" d="M11 3h1M3 4h1M2 5h1m3 0h2M4 6h2m5 0h1M3 7h1m3 0h1M3 8h1m1 0h2m2 0h1m2 0h1m-3 5h1"/><path stroke="#a08688" d="M1 4h1M0 6h1m13 0h1m-4 2h1m1 0h1M9 9h1m2 0h1"/><path stroke="#c3b1b1" d="M2 4h1m7 0h1m2 0h1M3 6h1m6 0h1M5 7h2m1 0h1m1 3h1"/><path stroke="#8e727b" d="M12 4h1m0 1h1M1 6h1m12 1h1m-1 1h1m-5 1h1m-2 1h1m-1 1h2m1 0h2m-1 1h1"/><path stroke="#947881" d="M14 5h1M0 7h1m12 0h1m1 0h1M2 8h1m12 0h1m-3 1h3M6 10h1m6 0h3m-2 1h1"/><path stroke="#bca8af" d="M2 6h1m6 0h1M4 7h1m4 0h2M7 8h1"/><path stroke="#5a3135" d="M1 8h1m0 1h2m4 1h1m-1 1h1m-1 1h2m-1 1h1m0 1h1"/></svg>