<svg xmlns="http://www.w3.org/2000/svg" viewBox="0 -0.5 16 16" shape-rendering="crispEdges"><path stroke="#eac5a6" d="M4 2h1m3 3h2M8 6h1M7 7h1m-7 4h1m12 0h1M4 14h1"/><path stroke="#c87847" d="M5 3h2m1 1h1M7 5h1m4 2h1M5 8h1m4 0h1M9 9h1m3 0h1M2 10h1m10 0h1m-8 1h1m-2 2h1"/><path stroke="#a95f32" d="M7 3h1m3 5h1m1 0h1M6 9h1m-2 1h1m2 0h1m-6 2h1"/><path stroke="#884721" d="M8 3h2M7 4h1m3 0h1M6 5h1M6 6h1M5 7h1M4 8h1M4 9h1m-2 1h1"/><path stroke="#dba07b" d="M9 4h1m1 1h1M9 6h1m2 0h1m-3 1h2M9 8h1M5 9h1m1 0h2m-5 1h1m1 0h1m-2 1h1"/><path stroke="#7a3d1c" d="M10 4h1m1 1h1m0 1h1m-1 1h1m-2 1h1m-3 1h2m-3 1h1m-6 1h1m2 0h2m-4 1h2"/><path stroke="#e0b291" d="M10 5h1M7 6h1m2 0h1M8 7h2M6 8h2"/><path stroke="#d8966c" d="M11 6h1M6 7h1m1 1h1m-2 2h1"/></svg>