<svg xmlns="http://www.w3.org/2000/svg" viewBox="0 -0.5 16 16" shape-rendering="crispEdges"><path stroke="#4d9280" d="M6 1h2M5 3h1m0 1h1m2 0h1m2 1h1M8 6h1m2 0h2M7 7h1M2 8h1M2 9h1m5 0h1m-7 1h1m4 0h1m0 1h1m3 0h1m-5 1h1m1 0h2m-8 1h2m3 0h1"/><path stroke="#3b5e5d" d="M10 1h1M9 2h1m2 1h2m-4 4h1m-1 1h1m3 0h1M6 9h1m5 0h1m1 0h1M1 10h1m1 1h1m6 0h1m2 1h1m-7 1h2"/><path stroke="#27514b" d="M11 1h1m-1 1h1m2 1h1m-1 1h1M6 5h1M4 6h2M3 7h2m8 0h1M1 8h1m11 0h1M1 9h1m12 1h1M2 11h1m11 0h1M3 12h1m2 1h1m-3 1h2"/><path stroke="#506e6a" d="M5 2h1m2 0h1M7 3h1m7 1h1m-1 1h1M3 6h1m2 0h1m2 0h1m4 0h1M2 7h1m3 0h1m2 0h1M6 8h1m2 0h1M7 9h1m-7 2h1m0 1h1m0 1h1m7 0h2m-4 1h2"/><path stroke="#51b278" d="M6 2h2M6 3h1m5 9h1m-3 1h1"/><path stroke="#56847e" d="M10 2h1M8 3h4M7 4h2m1 0h4M7 5h5m1 0h1M7 6h1m2 0h1M5 7h1m5 0h1M3 8h3m6 0h1M3 9h3m3 0h3m1 0h1M3 10h2m1 0h1m1 0h3m1 0h2m-9 1h3m1 0h1m1 0h1m1 0h1M4 12h4m1 0h1"/><path stroke="#497372" d="M14 5h1m-2 1h1m-2 1h1m-2 1h1m-7 2h1m-2 1h1"/><path stroke="#73e6db" d="M8 7h1M7 8h2"/><path stroke="#31adb7" d="M11 10h1"/></svg>