<svg xmlns="http://www.w3.org/2000/svg" viewBox="0 -0.5 16 16" shape-rendering="crispEdges"><path stroke="#c9c3a9" d="M6 4h2M2 6h1M2 7h1m-1 4h1m0 2h1"/><path stroke="#ece9d6" d="M8 4h1M6 5h1m6 2h1m-1 1h1m-1 1h1"/><path stroke="#e5e2cb" d="M9 4h1M7 5h1m-5 5h1m0 1h1"/><path stroke="#d8d2b9" d="M10 4h1M4 6h1m-3 4h1m0 1h1m0 1h1m-1 1h1"/><path stroke="#e1e0dc" d="M11 4h1m1 2h1m-9 7h1"/><path stroke="#d2ccad" d="M3 5h2M3 6h1m-1 6h1m2 2h1"/><path stroke="#f4f2d7" d="M5 5h1M5 6h1M4 7h1M3 9h3m-2 1h2"/><path stroke="#f5df9b" d="M8 5h1m2 1h1M6 7h1"/><path stroke="#eece6d" d="M9 5h1m-3 5h1"/><path stroke="#e0c268" d="M10 5h1m1 2h1m-1 2h1m-2 1h1m-4 1h1m1 0h1"/><path stroke="#f2e9bc" d="M11 5h1M7 6h1m-2 4h1m5 0h1m-6 1h1m4 0h1m-3 2h1"/><path stroke="#fcfdf8" d="M12 5h1m0 6h1"/><path stroke="#faf8e4" d="M6 6h1M5 7h1M4 8h2m7 2h1"/><path stroke="#fed157" d="M8 6h1M7 7h1m1 0h1M8 8h2"/><path stroke="#fbb912" d="M9 6h2M7 8h1m2 0h1M9 9h1"/><path stroke="#eae4b9" d="M12 6h1m-2 6h1m-6 1h4m1 0h1m-5 1h4"/><path stroke="#dedabd" d="M3 7h1M2 8h1"/><path stroke="#fad56d" d="M8 7h1M6 8h1M6 9h1"/><path stroke="#f7c033" d="M10 7h1M8 9h1"/><path stroke="#d59807" d="M11 7h1m-1 1h1m-1 1h1m-4 1h3"/><path stroke="#f1eecc" d="M3 8h1M2 9h1m2 2h2m-2 1h6"/><path stroke="#dbb755" d="M12 8h1m-4 3h1"/><path stroke="#f5b004" d="M7 9h1m2 0h1"/><path stroke="#e5dda6" d="M11 11h1m0 1h1"/></svg>