<svg xmlns="http://www.w3.org/2000/svg" viewBox="0 -0.5 16 16" shape-rendering="crispEdges"><path stroke="#bcbcbc" d="M6 2h4M5 3h1m4 0h1M4 4h1m6 0h1M4 5h1m6 0h1M4 6h1m6 0h1M4 7h1m6 0h1M4 8h1m6 0h1M4 9h1m6 0h1m-8 1h1m6 0h1m-8 1h1m6 0h1m-7 1h1m4 0h1m-5 1h4"/><path stroke="#e0e0e0" d="M6 3h1m2 0h1M5 5h1m4 0h1M5 6h6M5 7h6m-6 3h1m4 0h1m-6 1h2m2 0h2m-5 1h4"/><path stroke="#fff" d="M7 3h2M5 4h6M6 5h4M7 8h2M6 9h4m-4 1h4"/><path stroke="#383838" d="M5 8h2m2 0h2"/><path stroke="#6b6b6b" d="M5 9h1m4 0h1m-4 2h2"/></svg>