<svg xmlns="http://www.w3.org/2000/svg" viewBox="0 -0.5 16 16" shape-rendering="crispEdges"><path stroke="#d8d8d8" d="M11 2h1m-2 1h1m1 0h1M9 4h1M8 5h1m0 1h1"/><path stroke="#483614" d="M12 2h1M7 7h1M6 8h1M5 9h1m-2 1h1m-2 1h1m-2 1h1m-2 1h1"/><path stroke="#281e0a" d="M13 2h1m-1 1h1M8 6h1m0 1h1M8 8h1M7 9h1m-2 1h1m-2 1h1m-2 1h1m-2 1h1m-3 1h2"/><path stroke="#fff" d="M11 3h1m-1 1h1M9 5h2"/><path stroke="#383838" d="M10 4h1m1 1h1"/><path stroke="#e2e2e2" d="M12 4h1m-2 1h1m-1 1h1"/><path stroke="#bcbcbc" d="M13 4h1m-1 1h1m-2 1h1m-3 1h2"/><path stroke="#624f2b" d="M10 6h1M8 7h1M6 9h1m-3 2h1"/><path stroke="#896626" d="M7 8h1m-3 2h1m-3 2h1m-2 1h1"/></svg>