<svg xmlns="http://www.w3.org/2000/svg" viewBox="0 -0.5 16 16" shape-rendering="crispEdges"><path stroke="#3653b8" d="M6 4h1m1 0h1M5 5h3M3 6h1m2 0h1"/><path stroke="#5970bd" d="M7 4h1M4 5h1M4 6h2"/><path stroke="#4c65b5" d="M8 5h1M4 7h1"/><path stroke="#263e95" d="M9 5h1M7 6h3M5 7h1"/><path stroke="#281c5e" d="M7 7h1"/><path stroke="#574177" d="M8 7h1"/><path stroke="#365a30" d="M7 8h2m0 2h1m-1 1h1m-1 1h1m-2 1h1"/><path stroke="#183513" d="M8 9h1m0 4h1m-2 1h1m-1 1h1"/><path stroke="#294224" d="M11 11h1m-2 1h2m-2 1h1"/></svg>