<svg xmlns="http://www.w3.org/2000/svg" viewBox="0 -0.5 16 16" shape-rendering="crispEdges"><path stroke="#bf2529" d="M7 1h2M6 2h1m2 1h1M2 4h2m7 0h2M4 5h1M1 6h1m11 0h1M6 7h2M5 8h1m2 0h1m-6 5h2m-3 2h1"/><path stroke="#f23531" d="M7 2h1m1 0h1M7 3h2M1 5h1m1 0h1m7 0h1m1 0h1M2 6h2m7 0h2M6 8h1M6 9h2m-6 4h1m-2 1h1m2 0h1m-2 1h2"/><path stroke="#9b221a" d="M8 2h1M2 5h1m9 0h1M3 7h1m7 0h1M7 8h1m-6 6h2"/><path stroke="#742303" d="M6 3h1m0 1h2m1 1h1M2 7h1m9 0h1m-6 3h1m-3 4h1"/><path stroke="#204626" d="M6 4h1m0 2h1m2 1h1m0 1h1m-4 2h1m3 0h1m-8 1h1m7 0h1m-8 1h1m6 0h1m-7 1h2"/><path stroke="#2b702a" d="M6 5h1M3 8h1m6 0h1M8 9h1m-5 1h1m6 0h1m0 1h1m-5 1h1m5 0h1m-3 1h1m-3 1h1m-1 1h1"/><path stroke="#4a8f28" d="M6 6h1M3 9h1m7 0h1m-4 2h1m-2 3h1m3 0h1m-5 1h1"/><path stroke="#265a25" d="M8 6h1M2 9h1m2 1h1m3 1h1m-3 1h1m-2 3h1"/><path stroke="#344620" d="M6 14h1m1 1h1"/></svg>