<svg xmlns="http://www.w3.org/2000/svg" viewBox="0 -0.5 16 16" shape-rendering="crispEdges"><path stroke="#8558ac" d="M4 3h2m0 1h1M4 6h1M2 7h1"/><path stroke="#724995" d="M6 3h1M6 6h1M5 7h1M3 8h2"/><path stroke="#9374ae" d="M3 4h1m1 0h1M2 5h1m3 0h1M2 6h1"/><path stroke="#a48fb4" d="M4 4h1M3 5h2M3 6h1M3 7h1"/><path stroke="#65388a" d="M7 4h1M7 5h1M7 6h1M6 7h1M5 8h1"/><path stroke="#7e5e9a" d="M5 5h1M5 6h1M4 7h1"/><path stroke="#35681c" d="M7 7h1"/><path stroke="#295216" d="M7 8h1m0 1h1m-1 1h1m0 1h1m-1 1h1"/><path stroke="#1e3b10" d="M9 13h1m-2 1h1"/><path stroke="rgba(0,0,0,0.15294117647058825)" d="M9 14h1"/><path stroke="#083200" d="M8 15h1"/></svg>