<svg xmlns="http://www.w3.org/2000/svg" viewBox="0 -0.5 16 16" shape-rendering="crispEdges"><path stroke="#a76c19" d="M2 6h1m0 1h1M2 8h2"/><path stroke="#894e1b" d="M3 6h2M4 7h2M4 8h1"/><path stroke="#0f5602" d="M6 8h1m0 1h1m-1 2h1"/><path stroke="#2b5417" d="M10 9h1m-2 1h1m-5 2h2m1 0h1m-4 1h1"/><path stroke="#32621a" d="M7 10h1m-3 1h1m3 0h1m-4 2h1"/><path stroke="#0b4300" d="M10 10h1m-1 1h1m-4 1h1"/><path stroke="#1d3a0e" d="M9 12h1m-3 1h2m-3 1h2"/><path stroke="#062b00" d="M10 12h1m-2 1h1m-2 1h1m-2 1h1"/></svg>