<svg xmlns="http://www.w3.org/2000/svg" viewBox="0 -0.5 16 16" shape-rendering="crispEdges"><path stroke="#84191c" d="M10 5h1m0 2h1"/><path stroke="#a72421" d="M11 5h2m-3 1h2m0 1h1"/><path stroke="#6b1712" d="M9 6h1m0 1h1"/><path stroke="#376b1d" d="M8 7h1M7 8h1M5 9h1m1 0h1m-1 1h1m2 0h3m-5 1h2"/><path stroke="#264d14" d="M4 8h1M4 9h1m0 1h1m-1 1h3m2 0h1m-5 1h3"/><path stroke="#113706" d="M4 10h1m0 2h1m3 0h1m-3 1h2m-2 1h2"/><path stroke="#0f5602" d="M13 10h1m-3 1h2m-3 1h1"/><path stroke="#062800" d="M4 11h1m-1 1h1m0 1h2m-1 1h1m0 1h1"/></svg>