<svg xmlns="http://www.w3.org/2000/svg" viewBox="0 -0.5 16 16" shape-rendering="crispEdges"><path stroke="rgba(142,106,83,0.984313725490196)" d="M6 8h2M7 9h1m-4 1h1"/><path stroke="#946f57" d="M8 8h1M5 9h2m-2 1h2"/><path stroke="#664c3b" d="M8 9h1m-2 1h2m-4 1h1m-1 1h2"/><path stroke="rgba(93,70,54,0.996078431372549)" d="M9 9h1m-1 1h1m-2 4h1m-2 1h1"/><path stroke="rgba(77,59,46,0.996078431372549)" d="M10 10h1m-5 1h3"/><path stroke="#6e5645" d="M4 11h1m3 2h1"/><path stroke="#352a23" d="M9 11h1m-2 1h2m-1 1h1"/><path stroke="#534439" d="M9 14h1m-2 1h1"/></svg>