<svg xmlns="http://www.w3.org/2000/svg" viewBox="0 -0.5 16 16" shape-rendering="crispEdges"><path stroke="#c5c5c5" d="M5 3h1M5 4h2M3 5h1M2 6h2"/><path stroke="#a9baba" d="M6 3h1M3 4h2m1 1h1M2 7h2"/><path stroke="#c07d1d" d="M4 5h1"/><path stroke="#ccb133" d="M5 5h1M4 6h2"/><path stroke="#889494" d="M7 5h1M4 7h1m1 0h1m1 0h1M3 8h1m2 0h2"/><path stroke="#9f7f1e" d="M6 6h1M5 7h1"/><path stroke="#9d9d9d" d="M7 6h2M4 8h2M5 9h1"/><path stroke="#707a7a" d="M7 7h1M6 9h1"/><path stroke="#2f5b19" d="M7 9h1m-1 1h1m0 1h1m-1 1h1"/><path stroke="#0e4f02" d="M8 9h1"/><path stroke="#294e16" d="M9 11h1m-2 2h1m-2 1h1"/><path stroke="#264814" d="M7 12h1"/><path stroke="#0b3f01" d="M7 15h1"/></svg>