<svg xmlns="http://www.w3.org/2000/svg" viewBox="0 -0.5 16 16" shape-rendering="crispEdges"><path stroke="#1a739a" d="M4 5h1M3 6h1m0 1h1m3 2h1m4 1h2m-7 1h2m-8 2h1"/><path stroke="#218ac0" d="M4 6h2m7 3h1m-5 1h1m-8 2h1"/><path stroke="#186592" d="M3 7h1m4 3h1m1 0h1m1 0h1M1 13h1"/><path stroke="#34681b" d="M5 7h1m5 1h1m-2 1h1"/><path stroke="#418422" d="M6 7h2"/><path stroke="#2a5216" d="M8 8h1m3 1h1m-6 3h1"/><path stroke="#10567f" d="M7 10h1m5 1h1M3 12h1"/><path stroke="#214011" d="M5 12h2m-3 1h1m3 0h1m-1 1h1"/><path stroke="#0d4567" d="M8 12h1m-6 1h1m-2 1h1"/><path stroke="#0a3801" d="M7 13h1m1 1h1m-2 1h1"/></svg>