<svg xmlns="http://www.w3.org/2000/svg" viewBox="0 -0.5 16 16" shape-rendering="crispEdges"><path stroke="#b80e0e" d="M6 9h1m-2 1h1m-2 1h3m-3 1h1"/><path stroke="#7da6a9" d="M7 9h1"/><path stroke="#cf2222" d="M8 9h1m-3 1h2"/><path stroke="#a61a1b" d="M8 10h2m-3 1h2m-3 1h1"/><path stroke="#740a0b" d="M9 11h1m-2 1h2"/><path stroke="#708a8c" d="M10 11h1m-6 1h1"/><path stroke="#960b0b" d="M7 12h1m-3 1h2"/><path stroke="#706b4c" d="M8 13h1m0 1h1m-2 1h1"/><path stroke="#5a5635" d="M9 13h1"/><path stroke="#807d6c" d="M8 14h1m-2 1h1"/></svg>