<svg xmlns="http://www.w3.org/2000/svg" viewBox="0 -0.5 16 16" shape-rendering="crispEdges"><path stroke="#bcbcbc" d="M3 5h2M4 6h1"/><path stroke="#779292" d="M5 5h1"/><path stroke="#738787" d="M5 6h2M5 7h1"/><path stroke="#9eabab" d="M3 7h2"/><path stroke="#396f1f" d="M7 7h1m0 1h1M8 9h1m-6 1h1m1 0h1m2 0h1m-2 1h1"/><path stroke="#244f13" d="M11 8h1m-1 1h1M2 10h1m7 0h1m-3 1h3m-3 1h1"/><path stroke="#33631b" d="M10 9h1m-7 1h1m1 1h1"/><path stroke="#12320b" d="M11 10h1m-1 1h1m-5 1h1m3 0h1m-3 1h2m-3 1h2"/><path stroke="#062a01" d="M3 11h2m0 1h2m0 1h1m-1 1h1m0 1h1"/><path stroke="#1f3c11" d="M5 11h1m3 1h2m-3 1h1"/></svg>