<svg xmlns="http://www.w3.org/2000/svg" viewBox="0 -0.5 16 16" shape-rendering="crispEdges"><path stroke="#92862c" d="M4 8h1m-3 4h1m3 0h1"/><path stroke="#8c8c8c" d="M5 8h1m-1 4h1m-4 1h1"/><path stroke="#a1afaf" d="M6 8h1M4 9h1m3 0h1m-4 1h1m5 0h1"/><path stroke="#3d7821" d="M5 9h3m-1 1h1m1 0h2m-7 1h3m1 0h1"/><path stroke="#c1b23b" d="M8 10h1"/><path stroke="#696969" d="M10 11h1m-8 2h1"/><path stroke="#6e6521" d="M11 11h1m-1 2h1"/><path stroke="#264d13" d="M3 12h1m4 0h1m-1 1h3m-4 1h1"/><path stroke="#1e3b10" d="M7 12h1m0 2h1m-2 1h1"/><path stroke="#494c4c" d="M10 14h2"/></svg>