<svg xmlns="http://www.w3.org/2000/svg" viewBox="0 -0.5 16 16" shape-rendering="crispEdges"><path stroke="silver" d="M2 6h1M2 7h1m2 1h1M5 9h1"/><path stroke="#adadad" d="M3 6h1m2 2h1M3 9h1m-1 1h1"/><path stroke="#59873d" d="M4 6h2m1 2h1"/><path stroke="#3e7021" d="M6 6h1M6 7h2m3 3h1"/><path stroke="#a2a2a2" d="M3 7h1m0 2h1m1 0h1m-3 1h1"/><path stroke="#2d690f" d="M8 8h1"/><path stroke="#244f0d" d="M13 8h1M9 9h1m-2 1h2m-1 1h1m1 0h1m-2 1h1"/><path stroke="#30561c" d="M8 9h1m3 0h2m-2 1h1m-3 1h1"/><path stroke="#1e3c10" d="M13 10h1m-5 2h1m1 0h1m-2 1h1m-2 1h1"/><path stroke="#153406" d="M12 11h1m-4 2h1m1 0h1m-4 1h1m-1 1h1"/></svg>