<svg xmlns="http://www.w3.org/2000/svg" viewBox="0 -0.5 16 16" shape-rendering="crispEdges"><path stroke="#b82c24" d="M9 4h3M7 5h2m3 0h1M6 6h1M5 7h1M4 8h1M3 9h1m-1 1h1m-1 1h1"/><path stroke="#f15249" d="M9 5h1m1 0h1M7 6h1m4 0h1M6 7h1M5 8h1"/><path stroke="#ee695b" d="M10 5h1M8 6h2m1 0h1M7 7h2m1 0h1M6 8h2M4 9h1m1 0h1m0 1h1"/><path stroke="#ee8978" d="M10 6h1M5 9h1m-2 1h3m-3 1h1"/><path stroke="#ad160e" d="M13 6h1m-1 1h1m-1 1h1m-2 1h1m-3 1h2m-6 1h4m-6 1h2"/><path stroke="#ef3930" d="M9 7h1m1 0h2M8 8h4M7 9h3m-2 1h1m-4 1h1"/><path stroke="#e71d12" d="M12 8h1m-3 1h2m-3 1h1"/></svg>