<svg xmlns="http://www.w3.org/2000/svg" viewBox="0 -0.5 16 16" shape-rendering="crispEdges"><path stroke="#463d2c" d="M9 3h2M8 4h1m4 0h1M8 5h1m5 0h1M7 6h1m5 0h1M6 7h1M3 8h3m1 0h1m2 0h3M2 9h1m7 0h1M1 10h1m7 0h1m-9 1h1m6 0h1m1 0h2M2 12h1m4 0h2m-6 1h1m0 1h1"/><path stroke="#252017" d="M11 3h2m1 1h2m-1 1h1m-2 1h1m-2 1h1m-1 1h1m0 1h1m-2 1h1m-2 1h1m-4 1h3m-6 1h3m-4 1h1"/><path stroke="#564d38" d="M9 4h1M9 5h2m1 0h1M8 6h2m1 0h2M7 7h2m1 0h3M6 8h1m1 0h1M3 9h5m1 0h1m1 0h3M3 10h4m1 0h1m1 0h3M2 11h4m1 0h1m1 0h1m-7 1h1m2 0h1m-3 1h2"/><path stroke="#6b6251" d="M10 4h3m-2 1h1m1 0h1m-4 1h1M9 7h1M9 8h1M8 9h1m-7 1h1m4 0h1m-2 1h1m-3 1h2"/></svg>