<svg xmlns="http://www.w3.org/2000/svg" viewBox="0 -0.5 16 16" shape-rendering="crispEdges"><path stroke="#6a8681" d="M10 1h1M8 2h2M6 5h1M5 6h1"/><path stroke="#537676" d="M11 1h1m-1 1h1m0 1h1m1 1h2m-1 1h1m-3 2h1m-2 4h1m-6 2h2"/><path stroke="#879990" d="M10 2h1m0 1h1m-2 1h1"/><path stroke="#636f67" d="M7 3h1M4 7h1"/><path stroke="#9eaba6" d="M8 3h1m1 0h1m-6 8h1"/><path stroke="#86a8a0" d="M9 3h1m2 1h1m0 1h1"/><path stroke="#729a96" d="M6 4h1m7 1h1M3 8h1"/><path stroke="#8a7b73" d="M7 4h1m0 7h1"/><path stroke="#b8a899" d="M8 4h1M7 5h1m1 4h1m-5 1h1m2 0h1"/><path stroke="#7a9588" d="M9 4h1m2 1h1M4 8h1"/><path stroke="#75928d" d="M11 4h1m1 0h1m-6 8h1"/><path stroke="#ab8276" d="M8 5h1M5 8h1m0 2h1"/><path stroke="#887164" d="M9 5h1m1 0h1M5 9h1m-2 1h1m4 0h2m1 0h1"/><path stroke="#b8998c" d="M10 5h1M6 9h1"/><path stroke="#bb9f90" d="M6 6h1m3 2h1m-4 3h1"/><path stroke="#b07364" d="M7 6h1m2 0h1M6 7h1m2 0h1M7 8h2m2 0h1m-2 1h1"/><path stroke="#6d6652" d="M8 6h1m2 0h1m-1 4h1m-1 1h1"/><path stroke="#c08d7d" d="M9 6h1M5 7h1m5 0h1M9 8h1M8 9h1"/><path stroke="#707a5b" d="M12 6h1M7 9h1"/><path stroke="#6e7168" d="M13 6h1m-5 5h2"/><path stroke="#5d8b8c" d="M14 6h1m-5 6h1m-5 1h1m-3 1h1"/><path stroke="#8a5e52" d="M7 7h1m2 0h1"/><path stroke="#83654f" d="M8 7h1m3 0h1"/><path stroke="#8a6155" d="M6 8h1m4 1h1m1 0h1"/><path stroke="#644a3d" d="M12 8h1m-1 1h1"/><path stroke="#4a6362" d="M13 8h1"/><path stroke="#708e88" d="M2 9h1m4 3h1"/><path stroke="#a7bdb6" d="M3 9h1m0 2h1"/><path stroke="#a6948b" d="M4 9h1m-2 1h1"/><path stroke="#578080" d="M14 9h1m-6 3h1"/><path stroke="#77afae" d="M1 10h1m-1 1h1m0 1h2m2 0h1m-4 1h1m1 1h1"/><path stroke="#9ac5c3" d="M2 10h1m-1 1h1m2 2h1"/><path stroke="#747560" d="M7 10h1"/><path stroke="#455a58" d="M13 10h1m-3 2h1"/><path stroke="#889e97" d="M3 11h1m2 0h1"/><path stroke="#8ab9b9" d="M4 12h2m-2 1h1"/></svg>