<svg xmlns="http://www.w3.org/2000/svg" viewBox="0 -0.5 16 16" shape-rendering="crispEdges"><path stroke="#4d360e" d="M10 1h1M8 2h2M7 3h1M6 4h1M6 5h1M5 6h1M4 7h1M4 8h1m0 1h1m-1 1h1m-2 1h1m-2 1h1m-1 1h1"/><path stroke="#2b2208" d="M11 1h1m-1 1h1m0 1h1m1 1h1m-1 1h1m-1 1h1m-2 1h1m-1 1h1m0 1h1m-2 1h1m-2 1h1m-4 1h3m-6 1h3m-5 1h2"/><path stroke="#645f20" d="M10 2h1M9 3h1m3 3h1M4 12h2m-2 1h1"/><path stroke="#d04217" d="M8 3h1M6 7h1m0 1h1m-2 2h1m-2 1h1"/><path stroke="#4e9151" d="M10 3h1m1 1h1m-1 1h1M9 6h1m0 2h1"/><path stroke="#2a7c2c" d="M11 3h1M9 4h1M8 5h1m3 1h1M9 7h1m1 0h2M8 8h1m2 0h1M9 9h1"/><path stroke="#9e360d" d="M7 4h1m5 1h1M6 8h1m6 1h1m-5 1h2m1 0h1"/><path stroke="#7f6a2e" d="M8 4h1M7 6h1M7 7h1m0 2h1m1 0h2m-4 2h1m-4 2h1"/><path stroke="#ff0a0a" d="M10 4h1m-1 1h2m-1 1h1"/><path stroke="#80cdd1" d="M11 4h1"/><path stroke="#64723a" d="M13 4h1m-8 7h1m2 0h3m-5 1h2"/><path stroke="#5a8241" d="M7 5h1m0 2h1m3 1h1"/><path stroke="#8dafb1" d="M9 5h1"/><path stroke="#888951" d="M6 6h1M5 7h1m2 3h1"/><path stroke="#6f5d04" d="M8 6h1M7 9h1"/><path stroke="#d9d1ac" d="M10 6h1m-1 1h1M9 8h1"/><path stroke="#956e38" d="M5 8h1"/><path stroke="#df653d" d="M6 9h1m0 2h1"/><path stroke="#702805" d="M12 9h1m-2 1h1"/><path stroke="#7a4c0e" d="M7 10h1m-2 2h1"/></svg>