<svg xmlns="http://www.w3.org/2000/svg" viewBox="0 -0.5 16 16" shape-rendering="crispEdges"><path stroke="#34290c" d="M10 0h3M9 1h1m3 0h2M8 2h1m6 0h1M7 3h1m7 0h1M7 4h1m6 0h1M6 5h1m6 0h1M6 6h1m5 0h1M5 7h1m6 0h1M3 8h2m6 0h1M2 9h1m8 0h1M1 10h1m8 0h1m-9 1h1m6 0h1m-8 1h1m5 0h1m-6 1h1m3 0h1m-4 1h3"/><path stroke="#c6cb91" d="M10 1h1M9 2h1m3 0h1M8 3h1m3 0h1m-2 1h1m-2 1h1M5 8h1m3 0h1M3 9h2m2 1h1m-2 1h1m-3 1h2"/><path stroke="#6a5826" d="M11 1h1m-1 1h1m2 0h1m-5 1h1m2 0h1M9 4h1m2 0h1m-2 1h1m-1 1h1M6 9h1m-4 1h1m2 0h1m-2 1h1m2 0h1m-2 1h1m-2 1h1"/><path stroke="#4b3b16" d="M12 1h1m1 2h1m-2 1h1M8 5h2m2 0h1M8 6h2M7 7h2m1 0h1M6 8h3m1 0h1M7 9h1m1 0h1m-8 1h1m5 0h1m-6 2h1m0 1h1"/><path stroke="#897536" d="M10 2h1m1 0h1M9 3h1m0 1h1M5 9h1m-2 1h1m-2 1h1m3 0h1m-2 1h1m-2 1h1"/><path stroke="#a89246" d="M11 3h1m-7 7h1m-2 1h1"/><path stroke="#b0b672" d="M8 4h1M7 5h1M7 6h1m2 0h1M6 7h1m2 0h1M8 9h1"/><path stroke="#2c1e06" d="M11 7h1m-2 2h1m-2 1h1"/></svg>