<svg xmlns="http://www.w3.org/2000/svg" viewBox="0 -0.5 16 16" shape-rendering="crispEdges"><path stroke="#8d8477" d="M8 2h1M8 3h1m2 0h1"/><path stroke="#4b463f" d="M9 2h1M9 3h1M7 6h1m1 0h1m1 2h1m-1 4h1"/><path stroke="#4d4841" d="M6 3h1M2 7h1m5 3h1"/><path stroke="#6a645a" d="M7 3h1m2 0h1M5 5h1m0 1h1"/><path stroke="#797267" d="M4 4h2m7 1h1m-4 1h1m-1 1h1m2 0h1M1 10h1"/><path stroke="#696359" d="M7 4h1M3 9h1m0 1h1m-2 1h1m6 2h1"/><path stroke="#6f695f" d="M8 4h1M4 9h1m2 4h1"/><path stroke="#504b44" d="M9 4h1M7 7h1M5 8h1m3 0h1M6 9h1m4 0h1m-6 2h1"/><path stroke="#6c665c" d="M10 4h1M7 5h1M7 9h2m-6 1h1m8 0h1m-6 2h1"/><path stroke="#8f8679" d="M11 4h1M4 5h1m1 2h1m-2 4h1m1 0h1m-3 1h1"/><path stroke="#696257" d="M3 5h1m2 0h1m5 2h1m-4 5h1"/><path stroke="#6d675d" d="M8 5h1M3 7h1m9 1h1m-2 1h1m-9 3h1"/><path stroke="#4c4740" d="M9 5h1M5 7h1m5 4h1"/><path stroke="#6c655a" d="M10 5h1M6 8h1m1 0h1"/><path stroke="#857c6f" d="M11 5h1"/><path stroke="#6e685e" d="M3 6h1m8 2h1"/><path stroke="#8c8376" d="M4 6h1m5 6h1"/><path stroke="#665f54" d="M5 6h1"/><path stroke="#877e71" d="M8 6h1"/><path stroke="#605b52" d="M11 6h1"/><path stroke="#48423a" d="M12 6h1"/><path stroke="#8e867a" d="M4 7h1"/><path stroke="#8e8578" d="M8 7h1"/><path stroke="#49443d" d="M9 7h1m-4 3h1"/><path stroke="#58524a" d="M11 7h1m-6 6h1"/><path stroke="#716b61" d="M3 8h1"/><path stroke="#898073" d="M4 8h1m0 1h1"/><path stroke="#4f4a43" d="M7 8h1m-6 2h1m8 0h1"/><path stroke="#887f72" d="M10 8h1"/><path stroke="#4a443c" d="M9 9h1"/><path stroke="#8a8174" d="M10 9h1"/><path stroke="#8b8275" d="M5 10h1"/><path stroke="#686156" d="M7 10h1"/><path stroke="#655e55" d="M9 10h1m-1 1h1"/><path stroke="#928a7e" d="M10 10h1"/><path stroke="#4e4942" d="M2 11h1m5 1h1"/><path stroke="#706a60" d="M4 11h1"/><path stroke="#48433c" d="M8 11h1m-3 1h1"/><path stroke="#90887c" d="M10 11h1"/></svg>