<svg xmlns="http://www.w3.org/2000/svg" viewBox="0 -0.5 16 16" shape-rendering="crispEdges"><path stroke="#618500" d="M2 0h1m4 0h2m6 0h1M2 1h1m11 1h1M6 3h1m8 0h1m-2 6h1m-2 2h1"/><path stroke="#749900" d="M3 1h2m9 0h2M1 2h3m2 0h1m5 0h2M0 3h3m2 0h1M0 4h1m5 0h2m6 2h1m-1 1h1m-2 1h2m-2 1h1"/><path stroke="#6f4c11" d="M7 1h1M7 2h2M8 3h1m5 0h1M2 4h1m8 0h1M2 5h1m6 0h2M9 6h1M4 7h1m3 0h1M7 8h1m1 0h1M6 9h1m0 1h1m-4 1h1m1 0h1m-4 1h1m2 0h1m1 0h1"/><path stroke="#775000" d="M8 1h1m0 2h1m2 0h1M8 4h2m3 0h1M8 5h1m3 0h1m1 0h1M3 6h1m7 0h1M3 7h1m6 0h1M4 8h1M3 9h2m3 0h1m3 0h1m-8 1h1m6 0h2m-4 1h2m-7 1h1m3 0h1m-8 1h1m1 0h2m-3 1h1"/><path stroke="#936101" d="M3 3h1m9 0h1M3 4h1m8 0h1M3 5h2m6 0h1m1 0h1M4 6h1m5 0h1M9 7h1M5 8h1m2 0h1M5 9h1m1 0h1m3 0h1m-6 1h1m3 0h2m-7 1h1m1 0h3m-6 1h1m2 0h1m-5 1h1m-2 1h1"/></svg>