<svg xmlns="http://www.w3.org/2000/svg" viewBox="0 -0.5 16 16" shape-rendering="crispEdges"><path stroke="#50504d" d="M9 1h3M4 2h5m3 0h1M3 3h1M2 4h1M1 5h1M1 6h1M1 7h1M1 8h1m8 1h1m1 0h1m-2 1h1m-2 1h1m-2 1h1m1 0h1"/><path stroke="#b1b2a9" d="M9 2h2M4 3h1m1 0h1m1 0h1m2 0h1M3 4h1m1 0h1m2 0h1m1 0h1M3 5h1m1 0h1m1 1h1M6 7h1"/><path stroke="#9ea096" d="M11 2h1M5 3h1m1 0h1m1 0h1M4 4h1m1 0h2M2 5h1m3 0h2m1 0h1M3 6h1m4 1h1m3 0h1m-2 1h1m-8 2h1"/><path stroke="#8e8f8e" d="M10 3h1m1 0h1M9 4h1m1 0h1m-2 1h1M2 6h1m1 0h1m5 0h1M3 7h1m1 0h1m3 0h1M6 8h1m1 0h1M7 9h1m-1 1h1"/><path stroke="#303230" d="M13 3h1m0 1h1m-1 1h1m-1 1h1m-1 1h1m-2 1h1M1 9h1m11 0h1M2 10h1m10 0h1M2 11h1m9 0h1M3 12h1m8 0h1m-9 1h1m4 0h3m-7 1h4"/><path stroke="#7e837e" d="M12 4h1M4 5h1m3 0h1m0 1h1m2 0h1M2 7h1m1 0h1m5 0h1M4 8h2m3 0h1M6 9h1m-1 1h1m0 1h2"/><path stroke="#717379" d="M13 4h1m-2 1h1m-2 1h1M3 8h1m6 0h1M2 9h2m1 0h1m3 0h1m-7 1h1m4 0h2m-7 1h4m-2 1h1m1 0h2m-2 1h1"/><path stroke="#6a6e6a" d="M11 5h1M5 6h2m1 0h1m4 0h1M7 7h1M2 8h1m4 0h1M4 9h1m3 0h1m-4 1h1m-2 2h1m1 0h1m-2 1h2m1 0h1"/><path stroke="#57585c" d="M13 5h1m-3 2h1m1 0h1m-2 1h1m-2 1h1m-2 1h1m1 0h1m-4 1h1m1 0h1m-2 1h1"/></svg>