<svg xmlns="http://www.w3.org/2000/svg" viewBox="0 -0.5 16 16" shape-rendering="crispEdges"><path stroke="#565656" d="M8 5h1M7 6h1M6 7h1m3 0h1m0 1h1m-2 1h1m-6 1h1m3 0h1m1 0h1M1 11h1m4 0h1m1 0h1m1 0h2m-6 1h5"/><path stroke="#3d3d3d" d="M9 5h1m0 1h1m0 1h1M5 8h1m6 0h1M5 9h1m-2 1h1m-3 2h1m10 1h1M3 14h1"/><path stroke="#979797" d="M8 6h2M7 7h2M7 8h1m1 0h1M6 9h1m1 0h1m-2 1h1"/><path stroke="#777" d="M9 7h1M6 8h1m1 0h1m1 0h1M7 9h1m1 0h1m1 0h1m-6 1h1m1 0h1m1 0h1m-9 1h1m2 0h1m1 0h1m1 0h1"/><path stroke="#262626" d="M12 9h1m-1 1h1m-9 1h1m7 0h1m-8 1h1m5 0h1m-6 1h5"/></svg>