<svg xmlns="http://www.w3.org/2000/svg" viewBox="0 -0.5 16 16" shape-rendering="crispEdges"><path stroke="#1d150e" d="M6 2h1m2 0h1M6 3h4M3 4h2m1 0h1m2 0h1m1 0h2M3 5h1m1 0h1m4 0h1m1 0h1M4 6h1m6 0h1M5 7h1m4 0h1M5 8h1m4 0h1M5 9h1m4 0h1m-6 1h1m4 0h1m-7 1h1m6 0h1m-8 1h1m1 0h1m2 0h1m1 0h1m-8 1h2m1 0h2m1 0h2"/><path stroke="#322518" d="M7 4h1M7 5h2m2 0h1M5 6h6M6 7h3M6 8h2m1 0h1M6 9h3m-3 1h1m1 0h1m-4 1h1m1 0h1m2 0h1m-3 1h1m1 0h1"/><path stroke="#423426" d="M8 4h1M4 5h1m1 0h1m2 0h1M9 7h1M8 8h1m0 1h1m-3 1h1m1 0h1m-4 1h1m1 0h2m-5 1h1m1 0h1"/></svg>