<svg xmlns="http://www.w3.org/2000/svg" viewBox="0 -0.5 16 16" shape-rendering="crispEdges"><path stroke="#68564d" d="M6 0h1M5 1h1m2 0h1M4 2h1m4 0h1M4 3h1m1 0h1M3 4h1m1 0h1m1 0h1M3 5h1m1 0h1m1 0h1M2 6h2m3 0h1M1 7h1m1 0h1m3 0h1m3 0h1M1 8h1m1 0h1m2 0h1m3 0h1m2 0h1M1 9h1m2 0h1m1 0h1m3 0h1m1 0h1M2 10h1m2 0h1m3 0h1m-7 1h1m4 0h1m-5 1h1"/><path stroke="#69442f" d="M7 0h2M6 1h1m2 0h1M5 2h1m4 0h1M5 3h1m1 0h1M4 4h1m1 0h1m1 0h1M4 5h1m3 0h1M4 6h1m3 0h1M2 7h1m1 0h1m3 0h1m3 0h2M2 8h1m1 0h1m2 0h1m3 0h1m2 0h1M2 9h1m2 0h1m1 0h1m3 0h1m1 0h1M3 10h1m2 0h1m3 0h1m-7 1h1m4 0h1m-5 1h4"/><path stroke="#7e5944" d="M8 2h1M8 3h1m0 1h2m0 1h1m0 1h1M5 7h2m2 1h1m-6 2h1m8 0h1m-9 1h3m4 0h1m-2 1h1m-4 1h3"/><path stroke="#6b615c" d="M10 3h1M9 5h2m0 1h1M5 8h1m2 0h1m0 1h1m1 1h1m-2 1h1m2 0h1m-5 1h1m2 0h1m-6 1h1m3 0h1m-4 1h3"/></svg>