<svg xmlns="http://www.w3.org/2000/svg" viewBox="0 -0.5 16 16" shape-rendering="crispEdges"><path stroke="#67a840" d="M8 0h3M7 1h1m3 0h4M6 2h2m3 0h2m2 0h1M6 3h1m4 0h1m3 0h1M5 4h2M5 5h1m7 0h1M4 6h1m7 0h3m-4 1h3m-4 1h2m-2 1h1"/><path stroke="#528f32" d="M8 1h1M7 3h1m2 0h1M9 4h2m3 0h1M6 5h1m2 0h1m4 0h1M6 6h1m2 3h1m1 0h1m-3 1h2m-1 1h1"/><path stroke="#b8b8b8" d="M9 1h1M8 2h1m1 0h1m2 0h1m-2 1h2M7 4h1m4 0h1M7 5h2m2 0h2M8 6h1m2 0h1M9 7h2M6 8h3M7 9h1m-3 2h2m-3 1h1m-2 1h1"/><path stroke="#a5a5a5" d="M10 1h1m3 1h1M9 6h1M8 7h1m0 1h1M6 9h1m-3 2h1m-3 2h1m-1 1h1"/><path stroke="#434343" d="M9 2h1M8 3h1M8 4h1m2 0h1m-2 1h1M7 6h1m2 0h1M7 7h1m0 2h1m-4 1h1m-3 2h1m1 0h1m-3 2h1"/><path stroke="#252525" d="M9 3h1m4 0h1m-2 1h1m-8 6h2m-4 3h1"/></svg>