<svg xmlns="http://www.w3.org/2000/svg" viewBox="0 -0.5 16 16" shape-rendering="crispEdges"><path stroke="#dbddd3" d="M8 2h1"/><path stroke="#e0dbd6" d="M9 2h1M2 7h1"/><path stroke="#e6efe3" d="M6 3h1"/><path stroke="#e6ebe4" d="M7 3h1"/><path stroke="#eae0e3" d="M8 3h1"/><path stroke="#e7eee3" d="M9 3h1"/><path stroke="#e8edde" d="M10 3h1M3 8h1"/><path stroke="#e7eae6" d="M11 3h1M4 8h1"/><path stroke="#edefe5" d="M4 4h1"/><path stroke="#ebeae0" d="M5 4h1"/><path stroke="#ebece5" d="M7 4h1"/><path stroke="#ddd6d0" d="M8 4h1"/><path stroke="#dcdad4" d="M9 4h1"/><path stroke="#dad6d8" d="M10 4h1M3 9h1"/><path stroke="#e7ece3" d="M11 4h1M4 9h1"/><path stroke="#e3eee1" d="M3 5h1"/><path stroke="#b1b8b1" d="M4 5h1"/><path stroke="#413c39" d="M5 5h1"/><path stroke="#151917" d="M6 5h1"/><path stroke="#201922" d="M7 5h1m0 1h1"/><path stroke="#3c363a" d="M8 5h1m-8 5h1"/><path stroke="#ede5e4" d="M9 5h1m-8 5h1"/><path stroke="#f1eae3" d="M10 5h1m-8 5h1"/><path stroke="#eae5e4" d="M11 5h1m-8 5h1"/><path stroke="#e8ede0" d="M13 5h1m-8 5h1"/><path stroke="#b6b4b0" d="M3 6h2m0 3h1"/><path stroke="#dde1d6" d="M5 6h1"/><path stroke="#3e3b35" d="M6 6h1"/><path stroke="#3d3b3a" d="M7 6h1"/><path stroke="#3e3e3b" d="M9 6h1m-8 5h1"/><path stroke="#e5e8e3" d="M10 6h1m-8 5h1"/><path stroke="#d9d8d6" d="M11 6h1m-8 5h1"/><path stroke="#d5ddd0" d="M12 6h1m-8 5h1"/><path stroke="#e4eae4" d="M3 7h1"/><path stroke="#fff" d="M4 7h3m4 0h2m-9 5h2m5 0h1"/><path stroke="#e9e7e7" d="M7 7h1"/><path stroke="#ebede4" d="M8 7h1"/><path stroke="#b1b6ab" d="M9 7h1"/><path stroke="#ebeae6" d="M10 7h1"/><path stroke="#edeae4" d="M13 7h1m-8 5h1"/><path stroke="#ebece4" d="M5 8h1"/><path stroke="#eaefdf" d="M6 8h1"/><path stroke="#ecebe4" d="M7 8h1"/><path stroke="#f1e8de" d="M8 8h1"/><path stroke="#e8eae3" d="M9 8h1"/><path stroke="#d9dbd4" d="M10 8h1"/><path stroke="#efeae1" d="M11 8h1"/><path stroke="#eae7e2" d="M12 8h1"/><path stroke="#b4b3b3" d="M13 8h1m-8 5h1"/><path stroke="#e8eae5" d="M6 9h1"/><path stroke="#e5ebe2" d="M7 9h1"/><path stroke="#d9d6d7" d="M8 9h1"/><path stroke="#dbd9d1" d="M9 9h1"/><path stroke="#bfb9b0" d="M10 9h1"/><path stroke="#e6ebe3" d="M11 9h1"/><path stroke="#eaefe7" d="M12 9h1"/><path stroke="#eef0e5" d="M5 10h1"/><path stroke="#edece1" d="M7 10h1"/><path stroke="#dadbd7" d="M8 10h1"/><path stroke="#eae9e5" d="M9 10h1"/><path stroke="#eaece3" d="M10 10h1"/><path stroke="#f0ede6" d="M11 10h1"/><path stroke="#ede2e7" d="M12 10h1"/><path stroke="#dbdad4" d="M6 11h1"/><path stroke="#e0d6d3" d="M7 11h1"/><path stroke="#423c39" d="M8 11h1"/><path stroke="#dad6d0" d="M9 11h1"/><path stroke="#d9d9c9" d="M10 11h1"/><path stroke="#d6dad6" d="M11 11h1"/><path stroke="#3c3b3d" d="M7 12h1"/><path stroke="#1d181a" d="M8 12h1"/><path stroke="#1a1c14" d="M9 12h1"/><path stroke="#eceade" d="M10 12h1"/><path stroke="#efe7e3" d="M7 13h1"/><path stroke="#edebe3" d="M10 13h1"/></svg>