<svg xmlns="http://www.w3.org/2000/svg" viewBox="0 -0.5 16 16" shape-rendering="crispEdges"><path stroke="#d8d8d8" d="M11 1h1m-2 1h1m1 0h1M9 3h1M8 4h1m0 1h1"/><path stroke="#b46613" d="M12 1h1M8 5h1M7 6h1M6 7h1m2 0h1M5 8h1M4 9h1m-2 1h1m-2 1h1m-2 1h1m2 0h1m-4 1h1m1 0h1"/><path stroke="#973f02" d="M13 1h1m0 1h1M1 14h1"/><path stroke="#fff" d="M11 2h1m-1 1h1M9 4h2"/><path stroke="#b9931c" d="M13 2h1M9 6h1M8 7h1M7 8h1M6 9h1m-2 1h1m-2 1h1m-2 1h1"/><path stroke="#f42424" d="M10 3h1m1 1h1"/><path stroke="#e2e2e2" d="M12 3h1m-2 1h1m-1 1h1m0 1h1m-1 1h1m-1 1h1"/><path stroke="#bcbcbc" d="M13 3h1m-1 1h1m-2 1h1m-3 1h2"/><path stroke="#515151" d="M10 5h1"/><path stroke="#fff32d" d="M8 6h1M6 8h1m-3 2h1m-3 2h1"/><path stroke="#fff87e" d="M7 7h1"/><path stroke="#ae3c00" d="M8 8h1M7 9h1m-2 1h1m-2 1h1m-4 3h1"/><path stroke="#ffc100" d="M5 9h1m-3 2h1"/><path stroke="#d8ae26" d="M2 13h1"/></svg>