<svg xmlns="http://www.w3.org/2000/svg" viewBox="0 -0.5 16 16" shape-rendering="crispEdges"><path stroke="#303030" d="M4 3h1m1 0h1m1 0h1M3 4h1m1 0h1m1 0h1m1 0h1M2 5h2m1 0h1m1 0h1m1 0h1M1 6h1m1 0h1m1 0h1m1 0h1m1 0h1M1 7h1m1 0h1m1 0h1m1 0h1m1 0h1m1 0h1M2 8h2m1 0h1m1 0h1m1 0h2m1 0h1M2 9h1m1 0h1m1 0h1m2 0h2m1 0h1M3 10h1m2 0h1m1 0h1m1 0h1m1 0h1m-9 1h1m3 0h2m1 0h1m-9 1h1m7 0h1m-9 1h1m5 0h2m-7 1h5"/><path stroke="#fff" d="M4 4h1m1 0h1m1 0h1M2 6h1m8 2h1M3 9h1m1 0h1m1 0h1m3 0h1m-7 2h1m1 0h1m2 0h1m-7 1h1m3 0h1"/><path stroke="#d7d7d7" d="M4 5h1m1 0h1m1 0h1M4 7h1m1 0h1m1 0h1m2 3h1m-6 2h1m-2 1h3"/><path stroke="#888" d="M4 6h1m1 0h1m1 0h1"/><path stroke="#e7e7e7" d="M2 7h1m1 1h1m1 0h1m1 0h1M8 9h1m-3 2h1m-2 1h1m1 0h1m2 0h1m-7 1h1m3 0h1"/><path stroke="#666" d="M4 10h2m1 0h1m1 2h1"/></svg>