<svg xmlns="http://www.w3.org/2000/svg" viewBox="0 -0.5 16 16" shape-rendering="crispEdges"><path stroke="#6a3e27" d="M13 0h3m-4 1h1m-2 1h1m-2 1h1M9 4h1M8 5h1M7 6h1M6 7h1m-3 4h1m-3 2h1"/><path stroke="#eb6834" d="M13 1h1m-2 1h1m1 0h1m-4 1h1m1 0h1m-4 1h1m1 0h1M9 5h1m1 0h1M8 6h1m1 0h1M7 7h1m1 0h1M6 8h1m1 0h1M7 9h1"/><path stroke="#c7582c" d="M14 1h1m-2 1h1m-2 1h1m-2 1h1m-2 1h1M9 6h1M8 7h1M7 8h1M6 9h1"/><path stroke="#3f1c0f" d="M15 1h1m-1 1h1m-2 1h1m-2 1h1m-2 1h1m-2 1h1m-2 1h1M9 8h1M8 9h1"/><path stroke="#251209" d="M2 6h2M2 7h1m1 0h1M3 8h1M3 9h1m4 2h1m-5 1h1m1 0h2m1 0h1M0 13h2m1 0h1m4 0h2M0 14h1m1 0h1m-3 1h3"/><path stroke="#593015" d="M3 7h1m-1 4h1m3 0h1m-6 1h1m5 0h1"/><path stroke="#8a3d1f" d="M4 8h1M4 9h1m1 2h1m-6 3h1"/><path stroke="#c5a86a" d="M5 8h1M5 9h1m-2 1h4m-3 1h1"/><path stroke="#896727" d="M3 12h1"/></svg>