<svg xmlns="http://www.w3.org/2000/svg" viewBox="0 -0.5 16 16" shape-rendering="crispEdges"><path stroke="#694423" d="M9 1h2M8 2h1M7 3h1M6 4h1m5 0h1M6 5h1m2 2h1M7 9h1m-2 1h1m-3 2h1m-3 2h1"/><path stroke="#eb6834" d="M9 2h2M8 3h1M7 4h1M7 5h1"/><path stroke="#3f1c0f" d="M11 2h1m-1 1h1M7 6h2m4 0h1m-1 1h1m-3 1h2"/><path stroke="#b65128" d="M9 3h2M8 4h3M8 5h2m2 1h1m-2 1h2"/><path stroke="#c6a96c" d="M11 4h1m-1 1h1m-2 1h1"/><path stroke="#8a3d1f" d="M10 5h1m0 1h1"/><path stroke="#281e0b" d="M12 5h1m-3 2h1M9 8h1M8 9h1m-2 1h1m-2 1h1m-2 1h1m-2 1h1m-2 1h1"/><path stroke="#493615" d="M9 6h1M8 7h1M7 8h1M6 9h1m-2 1h1m-2 1h1m-2 1h1m-2 1h1"/><path stroke="#896727" d="M8 8h1m-4 3h1m-3 2h1"/></svg>