<svg xmlns="http://www.w3.org/2000/svg" viewBox="0 -0.5 16 16" shape-rendering="crispEdges"><path stroke="#772500" d="M10 2h2M7 3h3m2 0h1M4 4h3m6 0h1M1 5h3"/><path stroke="#b36927" d="M10 3h2M7 4h1m4 0h1M4 5h1m8 0h1M3 9h1"/><path stroke="#ffa14a" d="M8 4h1M5 5h2M2 6h3M1 7h1M1 8h1"/><path stroke="#c98f40" d="M9 4h3M7 5h6M5 6h6M3 7h5M2 8h1m1 0h1M1 9h2"/><path stroke="#802100" d="M14 5h1M0 6h1m14 0h1M0 7h1m14 0h1M0 8h1m11 2h1m-4 1h3"/><path stroke="#99591c" d="M1 6h1m0 1h1m0 1h1"/><path stroke="#8b370b" d="M11 6h4M8 7h3M5 8h3"/><path stroke="#ac5e1d" d="M11 7h2M8 8h4M5 9h5"/><path stroke="#b75a13" d="M13 7h2m-3 1h1M3 10h1m1 0h3"/><path stroke="#a24006" d="M13 8h1M4 9h1m5 0h4M4 10h1m3 0h4m-8 1h1m1 0h1m-3 1h1"/><path stroke="#b24201" d="M14 8h1m-1 1h1M1 10h2m-1 1h2m1 0h1m1 0h2m-6 1h1m1 0h1"/><path stroke="#8a1f00" d="M15 8h1m-3 2h2m-9 2h3"/><path stroke="#912400" d="M0 9h1m14 0h1M0 10h1m0 1h1m0 1h1m0 1h3"/></svg>