<svg xmlns="http://www.w3.org/2000/svg" viewBox="0 -0.5 16 16" shape-rendering="crispEdges"><path stroke="#694523" d="M7 1h3M6 2h1m0 1h1m5 0h1m-4 3h1M8 8h1m-3 2h1m-3 2h1m-3 2h1"/><path stroke="#eb6834" d="M7 2h1"/><path stroke="#bf542a" d="M8 2h2M9 3h2m-1 1h1"/><path stroke="#3f1c0f" d="M10 2h1M8 3h1m0 1h1m2 2h1"/><path stroke="#c5a86a" d="M11 3h1m-1 1h1m-2 1h4m-3 1h1"/><path stroke="#493615" d="M12 3h1M9 6h1M8 7h1M7 8h1M6 9h1m-2 1h1m-2 1h1m-2 1h1m-2 1h1"/><path stroke="#896727" d="M12 4h1M9 7h1M7 9h1m-3 2h1m-3 2h1"/><path stroke="#281e0b" d="M13 4h1m-4 3h1M9 8h1M8 9h1m-2 1h1m-2 1h1m-2 1h1m-2 1h1m-2 1h1"/></svg>