<svg xmlns="http://www.w3.org/2000/svg" viewBox="0 -0.5 16 16" shape-rendering="crispEdges"><path stroke="#694026" d="M11 2h3m-4 1h1M9 4h1M7 9h1m-3 2h1"/><path stroke="#eb6834" d="M11 3h2m-3 1h1m2 0h1m-1 1h1m-2 1h1"/><path stroke="#bd532a" d="M13 3h1m-3 1h2m-3 1h3m-3 1h2"/><path stroke="#3f1c0f" d="M14 3h1m-1 1h1m-1 1h1m-2 1h1m-2 1h1"/><path stroke="#c5a86a" d="M9 5h1M9 6h1M8 7h4M9 8h1"/><path stroke="#493615" d="M7 8h1M6 9h1m-2 1h1m-2 1h1m-2 1h1m-2 1h1m0 1h1"/><path stroke="#896727" d="M8 8h1m-3 2h1m-3 2h1m-2 1h1"/><path stroke="#281e0b" d="M8 9h1m-2 1h1m-2 1h1m-5 1h1m2 0h1m-2 1h1m-1 1h1"/></svg>