<svg xmlns="http://www.w3.org/2000/svg" viewBox="0 -0.5 16 16" shape-rendering="crispEdges"><path stroke="#6b4624" d="M6 2h5M5 3h1m7 0h1m-4 3h1M8 8h1m-3 2h1m-3 2h1m-3 2h1"/><path stroke="#eb6834" d="M6 3h1m6 7h1"/><path stroke="#c7582c" d="M7 3h1m2 0h1m2 3h1m-1 3h1"/><path stroke="#b24f28" d="M8 3h2m0 1h1m1 2h1m0 1h1m-1 1h1"/><path stroke="#c5a86a" d="M11 3h1m-1 1h1m-2 1h4m-3 1h1"/><path stroke="#493615" d="M12 3h1M9 6h1M8 7h1M7 8h1M6 9h1m-2 1h1m-2 1h1m-2 1h1m-2 1h1"/><path stroke="#3f1c0f" d="M6 4h4m4 2h1m-3 1h1m1 0h1m-3 1h1m1 0h1m-3 1h1m1 0h1m-3 1h1m1 0h1m-2 1h1"/><path stroke="#896727" d="M12 4h1M9 7h1M7 9h1m-3 2h1m-3 2h1"/><path stroke="#281e0b" d="M13 4h1m-4 3h1M9 8h1M8 9h1m-2 1h1m-2 1h1m-2 1h1m-2 1h1m-2 1h1"/></svg>