<svg xmlns="http://www.w3.org/2000/svg" viewBox="0 -0.5 16 16" shape-rendering="crispEdges"><path stroke="#dd8626" d="M7 1h2M6 2h1M3 3h3m1 0h2m3 0h2M3 4h1m0 1h1m1 0h1m1 0h2M5 6h1M5 7h2m1 0h1m1 0h1M5 8h1M5 9h3m1 0h1m-6 1h1m-1 1h1m2 0h1m1 0h2m-7 1h1m-2 1h1m4 0h1m-6 1h1"/><path stroke="#cb7719" d="M9 1h1m0 1h1m0 1h1m1 1h1m-2 1h1m-2 1h1m-1 1h1m-1 1h1m-1 1h1m0 1h1m-1 1h1m-1 1h1m0 1h1M4 14h3m3 0h4m-7 1h3"/><path stroke="#f4b446" d="M7 2h1m1 0h1M4 4h2m3 0h1m2 0h1M5 5h1m5 0h1M6 6h1m2 0h1M8 8h1m-4 2h2m1 0h1m1 0h2m-7 1h1m-1 1h1m-2 1h2m5 0h2m-6 1h3"/><path stroke="#eaa939" d="M8 2h1M6 3h1m3 0h1M6 4h3m1 0h2M7 6h2m1 0h1M6 8h2m1 0h2m-4 2h1m1 0h1m1 1h1m-6 1h6m-6 1h1m3 0h1"/><path stroke="#e99537" d="M9 3h1M7 5h1m2 0h1M7 7h1m1 0h1M8 9h1m1 0h1m-5 2h1m1 0h1m-2 2h1m1 0h1"/></svg>