<svg xmlns="http://www.w3.org/2000/svg" viewBox="0 -0.5 16 16" shape-rendering="crispEdges"><path stroke="#363636" d="M9 1h1m1 0h1M6 2h1m1 0h1m3 0h1M1 3h1m1 0h1m8 1h1M1 5h1m11 0h1m-1 2h1M2 8h1m-1 2h1m11 0h1M3 11h1m8 1h1m1 0h1M3 13h1m3 0h1m1 0h1m-6 1h1m1 0h1"/><path stroke="#262626" d="M10 1h1m1 0h1M5 2h1m1 0h1M2 3h1m1 0h1m7 0h1M1 4h1M1 6h1m11 0h1M2 7h1m10 1h1M2 9h1m11 0h1m-1 2h1M3 12h1m7 0h1m1 0h1m-6 1h1m1 0h1m-8 1h1m1 0h1"/><path stroke="#474747" d="M9 2h1m1 0h1m-2 1h1M9 4h1m1 0h1m-2 1h1m1 0h1m-2 1h1m-2 1h1m1 0h1M9 8h1m1 0h1m-2 1h1m1 0h1m-4 1h1m1 0h1m1 0h1m-8 1h1m1 0h1m1 0h1m1 0h1m-8 1h1m1 0h1m1 0h1m-6 1h1m1 0h1"/><path stroke="#b6b6b6" d="M10 2h1M9 3h1m1 0h1m-2 1h1M9 5h1m1 0h1m-2 1h1m1 0h1M9 7h1m1 0h1m-2 1h1m1 0h1M9 9h1m1 0h1m1 0h1m-6 1h1m1 0h1m1 0h1m-8 1h1m1 0h1m1 0h1m1 0h1m1 0h1M4 12h1m1 0h1m1 0h1m1 0h1m-6 1h1"/><path stroke="#c6c6c6" d="M5 3h1m1 0h1M2 4h1m3 0h1m1 0h1M7 5h1m0 1h1M7 7h1M6 8h1m1 0h1M3 9h1m1 0h1m1 0h1m-4 1h1m1 0h1"/><path stroke="#555" d="M6 3h1m1 0h1M7 4h1m0 1h1m0 1h1M8 7h1M7 8h1M6 9h1m1 0h1m-6 1h1m1 0h1m1 0h1m-4 1h1"/><path stroke="#646464" d="M3 4h1m1 0h1M2 5h1m3 0h1m0 1h1M6 7h1M3 8h1m1 0h1M4 9h1"/><path stroke="#d6d6d6" d="M4 4h1M3 5h1m1 0h1M2 6h1m3 0h1M3 7h1m1 0h1M4 8h1"/><path stroke="#7a7a7a" d="M4 5h1M3 6h1m1 0h1M4 7h1"/><path stroke="#fff" d="M4 6h1"/></svg>