<svg xmlns="http://www.w3.org/2000/svg" viewBox="0 -0.5 16 16" shape-rendering="crispEdges"><path stroke="#aeaeae" d="M8 2h3M7 3h1m3 0h1M5 4h2M1 5h4"/><path stroke="#d6d6d6" d="M8 3h2M7 4h1m3 0h1M5 5h1M2 6h1m9 0h1M4 7h1m5 0h1M5 8h1m2 0h1M6 9h1m-2 3h1m0 1h1"/><path stroke="#e9eaeb" d="M10 3h1M6 5h1m5 0h1M3 6h1m7 0h1M9 7h1"/><path stroke="#fcfcf2" d="M8 4h3M7 5h5M4 6h7M5 7h4M6 8h2"/><path stroke="#878787" d="M12 4h1m0 1h2M1 6h1m11 0h2M2 7h2m7 0h2M4 8h1m4 0h2M1 9h1m3 0h1m2 0h1m-8 1h1m4 0h2m6 0h1M2 11h2m8 0h1m-9 1h1m4 0h2m-6 1h1m2 0h1m-3 1h2"/><path stroke="#080705" d="M13 7h1M3 8h1m10 0h1M2 9h1m10 0h2M2 10h1m7 0h1m1 0h2M4 11h1m3 0h4"/><path stroke="#16130f" d="M11 8h3M3 9h1m5 0h2m1 0h1M3 10h3m2 0h2m1 0h1m-7 1h3m-2 1h3"/><path stroke="#3b352a" d="M4 9h1m6 0h1"/><path stroke="#c1c1c1" d="M7 9h1m-1 4h1"/></svg>