<svg xmlns="http://www.w3.org/2000/svg" viewBox="0 -0.5 16 16" shape-rendering="crispEdges"><path stroke="#424242" d="M8 2h2M7 3h1m2 0h1M6 4h1m4 0h1M5 5h1m6 0h1M5 6h1m7 0h1M6 7h1m7 0h1M7 8h1m6 0h1M8 9h1m4 0h1m-5 1h1m2 0h1m-3 1h2"/><path stroke="#6c6c6c" d="M8 3h2M7 4h1m2 0h1M6 5h1m4 0h1M6 6h1m5 0h1M7 7h1m5 0h1M8 8h1m4 0h1M9 9h1m2 0h1m-3 1h2"/><path stroke="#828282" d="M8 4h1M7 5h1m1 0h2M8 6h4M8 7h4M9 8h2m1 0h1m-2 1h1"/><path stroke="#5a5a5a" d="M9 4h1M8 5h1M7 6h1m4 1h1m-2 1h1m-2 1h1"/><path stroke="#493615" d="M6 9h1m-2 1h1m-2 1h1m-2 1h1m-2 1h1"/><path stroke="#684e1e" d="M7 9h1m-3 2h1"/><path stroke="#896727" d="M6 10h1m-3 2h1m-2 1h1"/><path stroke="#281e0b" d="M7 10h1m-2 1h1m-2 1h1m-2 1h1m-3 1h2"/></svg>