<svg xmlns="http://www.w3.org/2000/svg" viewBox="0 -0.5 16 16" shape-rendering="crispEdges"><path stroke="#494949" d="M8 2h2m0 1h1M2 8h1M2 9h1m5 2h1"/><path stroke="#535353" d="M6 3h2m1 0h1M5 4h1m0 4h1m4 0h1M7 9h2m0 1h2"/><path stroke="#8e8e8e" d="M8 3h1M6 4h1m0 1h1m3 0h1M6 7h1"/><path stroke="#a7a7a7" d="M7 4h1m2 0h1M5 5h2"/><path stroke="#646464" d="M8 4h1M8 5h1M7 6h1M7 7h1m0 1h1m2 1h1m-4 1h1m-3 1h1"/><path stroke="#263f71" d="M9 4h1M6 6h1"/><path stroke="#3d3d3d" d="M11 4h1m0 1h1m-1 1h1m-1 1h1m-1 1h1m-1 1h1M3 10h1m7 0h1m-8 1h2m3 0h2m-5 1h3"/><path stroke="#346951" d="M3 5h2m5 0h1M5 6h1m2 0h1M5 7h1m3 0h1"/><path stroke="#387c5e" d="M9 5h1M3 6h1m6 0h1M4 7h1m1 3h1m0 1h1"/><path stroke="#305b48" d="M2 6h1m0 1h1m6 0h1M4 8h2m1 2h1"/><path stroke="#3d9e72" d="M4 6h1m4 0h1"/><path stroke="#6f6f6f" d="M11 6h1M7 8h1m1 0h1M3 9h1m2 0h1m2 0h2m-6 1h1"/><path stroke="#848484" d="M8 7h1M5 9h1m-2 1h1"/><path stroke="#172845" d="M11 7h1M3 8h1m6 0h1M4 9h1"/></svg>