<svg xmlns="http://www.w3.org/2000/svg" viewBox="0 -0.5 16 16" shape-rendering="crispEdges"><path stroke="#4d3a2a" d="M7 0h2M6 1h2m1 0h1M6 2h2m1 0h2M5 3h1m1 0h1m1 0h1M7 4h1M6 5h2m1 0h1M5 6h4m1 0h1m1 0h1M4 7h3m2 0h2M5 8h2m1 0h4M3 9h1m2 0h1m1 0h4m-9 1h1m1 0h1m2 0h1m3 0h1M2 11h1m3 0h1m2 0h1m1 0h1m-5 1h1m1 0h4m-6 1h1m1 0h2m2 0h1m-7 1h1m3 0h1m2 0h1m-1 1h1"/><path stroke="#cdcdcd" d="M1 1h2m0 1h1m8 0h1M2 3h3m5 0h1m2 0h1M3 4h1m5 0h1m1 0h1M3 5h1m7 0h1M3 6h1m0 5h2m-3 1h1m2 0h1m-5 1h4m-3 1h1m-2 1h1"/><path stroke="#3f3224" d="M8 1h1m4 0h1M5 2h1m2 0h1M6 3h1m1 0h1M5 4h2m1 0h1M8 5h1m1 0h1M9 6h1m1 0h1M7 7h2m2 0h1M4 8h1m2 0h1M4 9h2m1 0h1m4 0h1m-9 1h1m1 0h2m1 0h3m-9 1h1m3 0h2m1 0h1m1 0h2m-6 1h1m4 0h1m-6 1h1m2 0h2M1 14h1m6 0h1m3 0h2M1 15h1m11 0h1"/><path stroke="#a7a7a7" d="M14 1h1M1 2h2m10 0h2m-4 1h2M2 4h1m1 0h1m5 0h1m1 0h2M4 5h2m6 0h2M4 6h1m-3 6h1m1 0h2m0 1h1m-5 1h1m1 0h1"/></svg>