<svg xmlns="http://www.w3.org/2000/svg" viewBox="0 -0.5 16 16" shape-rendering="crispEdges"><path stroke="#908d7d" d="M8 0h1m4 1h1m-2 7h1"/><path stroke="#6d4431" d="M10 0h1M7 1h1m4 1h1m-2 6h1m2 0h1"/><path stroke="#656151" d="M8 1h1m1 0h1M9 2h1m3 0h1m0 1h1m-3 6h1m1 0h1m-2 1h1"/><path stroke="#9e4a4b" d="M9 1h1m4 1h1m-2 7h1"/><path stroke="#a2958c" d="M7 2h2M8 3h1m3 0h2m-1 1h1m-3 6h2m-1 1h1"/><path stroke="#703728" d="M10 2h1m-1 1h1m4 0h1m-1 1h1m-2 6h1"/><path stroke="#b19696" d="M9 3h1m4 1h1m-2 7h1"/><path stroke="#3d291c" d="M9 4h1m0 1h1m2 0h1M9 6h2M8 7h1M7 8h1M7 9h1m-2 1h1m1 0h1m-4 1h1m-2 1h1m-2 1h1"/><path stroke="#281e0b" d="M10 4h1m3 1h1m-4 1h3M9 7h2M8 8h1M8 9h1m-2 1h1m-2 1h6m-7 1h1m-2 1h1m-3 1h2"/><path stroke="#493615" d="M9 5h1m1 0h2M8 6h1M7 7h1M6 9h1m-2 1h1m3 0h2m-7 1h1m-2 1h1m-2 1h1"/></svg>