<svg xmlns="http://www.w3.org/2000/svg" viewBox="0 -0.5 16 16" shape-rendering="crispEdges"><path stroke="#4e3c22" d="M8 2h1M8 3h1m2 0h1M4 6h1m5 6h1"/><path stroke="#1f180d" d="M9 2h1M9 3h1M9 5h1M7 6h1m1 0h1M5 7h1m5 1h1m-1 3h1m-1 1h1"/><path stroke="#20190e" d="M6 3h1M2 7h1m5 3h1m-7 1h1m5 1h1"/><path stroke="#342918" d="M7 3h1m2 0h1M5 5h1m0 1h1"/><path stroke="#3f311d" d="M4 4h2m7 1h1m-4 1h1m-1 1h1m2 0h1M1 10h1"/><path stroke="#352917" d="M7 4h1M3 9h1m0 1h1m-2 1h1m6 2h1"/><path stroke="#382c1a" d="M8 4h1M4 9h1m2 4h1"/><path stroke="#221b10" d="M9 4h1M9 8h1M6 9h1m4 0h1m-6 2h1"/><path stroke="#362a18" d="M10 4h1M7 5h1m2 0h1M6 8h1m1 0h1M7 9h2m-6 1h1m8 0h1m-6 2h1"/><path stroke="#4e3d24" d="M11 4h1M4 5h1m1 2h1m-2 4h1m1 0h1m-3 1h1"/><path stroke="#342816" d="M3 5h1m2 0h1m5 2h1m-4 5h1"/><path stroke="#372b19" d="M8 5h1M3 6h1M3 7h1m8 1h2m-2 1h1m-9 3h1"/><path stroke="#4a381e" d="M11 5h1"/><path stroke="#322614" d="M5 6h1"/><path stroke="#4b391f" d="M8 6h1"/><path stroke="#2d2415" d="M11 6h1"/><path stroke="#1c150a" d="M12 6h1"/><path stroke="#503e24" d="M4 7h1"/><path stroke="#211a0f" d="M7 7h1M5 8h1m1 0h1m-6 2h1m8 0h1"/><path stroke="#4f3d23" d="M8 7h1"/><path stroke="#1e170c" d="M9 7h1m-4 3h1"/><path stroke="#261e12" d="M11 7h1m-6 6h1"/><path stroke="#382d1c" d="M3 8h1"/><path stroke="#4c3a20" d="M4 8h1m5 0h1M5 9h1"/><path stroke="#1d160b" d="M9 9h1m-2 2h1m-3 1h1"/><path stroke="#4d3b21" d="M10 9h1"/><path stroke="#4c3b22" d="M5 10h1"/><path stroke="#332715" d="M7 10h1"/><path stroke="#302516" d="M9 10h1m-1 1h1"/><path stroke="#524026" d="M10 10h1"/><path stroke="#392d1b" d="M4 11h1"/><path stroke="#513f25" d="M10 11h1"/></svg>