<svg xmlns="http://www.w3.org/2000/svg" viewBox="0 -0.5 16 16" shape-rendering="crispEdges"><path stroke="#626262" d="M6 1h2M4 2h2m3 0h4M3 3h1M2 4h1M2 5h1M2 6h1M1 7h1M1 8h1m7 0h1m2 0h1M1 9h1m10 0h1M1 10h1m5 0h1m-7 1h1m7 0h1m1 0h1M1 12h1m5 0h1m1 0h1m-9 1h1"/><path stroke="#eeeeef" d="M6 2h2M4 3h2m3 0h4M6 4h1m2 0h1M3 5h2m6 0h1M6 6h1m2 0h1M3 7h1M2 8h1M2 9h1"/><path stroke="#353535" d="M8 2h1m4 1h1m0 1h1m-1 1h1m-1 1h1m-1 1h1m-2 1h1m-1 1h1m-1 1h1m-1 1h1m-4 1h3m-9 1h6m-8 1h2"/><path stroke="#d5d5d6" d="M6 3h1M3 4h1m6 0h1M5 5h1M3 6h1m4 0h1M2 7h1m2 0h2m2 0h1M3 8h2m-3 3h1"/><path stroke="#b4b4b8" d="M7 3h1M5 6h1M4 7h1M3 9h1m-2 1h1"/><path stroke="#9e9ea2" d="M8 3h1M4 4h1m3 0h1M6 5h2m1 0h1m0 1h1M7 7h1M6 8h1m-4 3h1m-2 1h1"/><path stroke="#727274" d="M5 4h1m5 0h1m-2 1h1M4 6h1m2 0h1m5 0h1M8 7h1m1 0h1M5 8h1m1 0h1M4 9h1m5 0h1m-8 1h1m4 0h1m1 0h2m-5 1h1m-5 1h1m2 0h1m-4 1h1"/><path stroke="#aeaeaf" d="M7 4h1m0 1h1M5 9h2m-3 1h1"/><path stroke="#939396" d="M12 4h1m0 1h1m-2 1h1m-2 1h1M8 8h1m1 0h2M8 9h1m-3 1h1m-2 1h1"/><path stroke="#575759" d="M13 4h1m-2 1h1m0 2h1M9 9h1m1 0h1"/><path stroke="#848487" d="M11 6h1M7 9h1m-3 1h1m-2 1h1m-3 2h1"/><path stroke="#535355" d="M12 7h1m-4 3h1m2 0h1m-7 1h1m1 0h1m1 0h1m1 0h1m-9 1h2m2 0h1"/></svg>