<svg xmlns="http://www.w3.org/2000/svg" viewBox="0 -0.5 16 16" shape-rendering="crispEdges"><path stroke="#645448" d="M7 0h1M2 1h1m3 0h2M4 3h1m8 0h1M4 8h3m1 0h3M4 9h2m2 0h1m-3 1h2m3 0h2M2 11h4m1 0h4m-6 1h1m-3 1h4"/><path stroke="#756657" d="M8 0h1m0 1h1M6 2h1m3 0h1M8 3h1m1 0h1M6 4h1m4 0h1M5 5h1m4 0h1M5 6h1m4 0h1M6 7h1m3 2h2m-3 1h1m2 1h2m-7 1h7m-7 1h6m-6 1h2m2 0h1"/><path stroke="#312c28" d="M1 1h1m11 0h2M2 12h2m9 1h1M2 14h1m9 0h2M2 15h1"/><path stroke="#6d5e51" d="M8 1h1M2 2h1m4 0h3M2 3h2m1 0h3m1 0h1m1 0h2M2 4h4m1 0h4m1 0h2M3 5h2m1 0h4m1 0h3M3 6h2m1 0h4m1 0h2M4 7h2m1 0h4M7 8h1M3 9h1m2 0h2m1 0h1m-7 1h3m2 0h1m1 0h1m-5 1h1m4 0h1m-6 1h1"/><path stroke="#453c35" d="M1 2h1m1 0h1m8 0h2M2 13h1m-2 1h1m12 0h1M1 15h1m11 0h2"/><path stroke="#594d42" d="M5 2h1m8 0h1M4 12h1m-2 2h2"/><path stroke="#8c7f71" d="M11 7h1m-1 1h1m0 1h1"/></svg>