<svg xmlns="http://www.w3.org/2000/svg" viewBox="0 -0.5 16 16" shape-rendering="crispEdges"><path stroke="#542716" d="M9 3h2M5 4h3m1 0h1m1 0h1M3 5h2m3 0h1m1 0h1m1 0h1M3 6h1m5 0h1m1 0h2M2 7h1m7 0h1m2 0h1M2 8h1m8 0h2m1 0h1M2 9h1m8 0h1m3 0h1M2 10h1m8 0h2m1 0h1M3 11h1m6 0h1m2 0h1M3 12h2m4 0h2m-6 1h4"/><path stroke="#80604a" d="M8 4h1m2 3h2"/><path stroke="#9e492a" d="M10 4h1M5 5h1m1 0h1m3 0h1M4 6h1m1 0h1m1 0h1M3 7h1m3 0h1m1 0h1M4 8h1m5 0h1M3 9h1m1 0h1m2 0h1m1 0h1m3 0h1M3 10h2m2 0h1m1 0h2m2 0h1M4 11h2m2 0h2m-5 1h4"/><path stroke="#c65c35" d="M6 5h1M5 6h1m1 0h1M4 7h3m1 0h1M3 8h1m1 0h5m3 0h1M4 9h1m1 0h2m1 0h1m2 0h2m-9 1h2m1 0h1m-3 1h2"/><path stroke="#b19480" d="M9 5h1m0 1h1"/></svg>