<svg xmlns="http://www.w3.org/2000/svg" viewBox="0 -0.5 16 16" shape-rendering="crispEdges"><path stroke="#b4b182" d="M8 1h2M7 2h1M6 3h1M4 4h2M3 5h1M2 6h1M1 7h1m10 0h1M1 8h1m9 0h1M1 9h1m9 0h1m-8 2h1m4 0h1m-4 1h1"/><path stroke="#f2f8b9" d="M8 2h1M7 3h1m1 0h2M6 4h1m4 0h1M4 5h5m3 0h1M3 6h1m2 0h2m1 0h1m1 0h3M2 7h1m3 0h1m2 0h1m1 0h1M2 8h2m1 0h3m2 0h1M3 9h3m1 0h3m-6 1h1m1 0h1m1 0h1m2 0h1m-4 2h1"/><path stroke="#c5be8b" d="M9 2h1M8 3h1m2 0h1M7 4h1m1 0h2M9 5h1M4 6h2m2 0h1M3 7h1m3 0h1M2 9h1m2 1h1m4 1h1m-2 1h2"/><path stroke="#999e74" d="M10 2h2m0 1h1m-1 1h1m0 1h1m0 1h1m-1 1h1m-1 1h1m-1 1h1M1 10h1m11 0h1M2 11h1m9 0h1M3 12h1m7 0h1m-8 1h2m3 0h2m-5 1h3"/><path stroke="#cdc68b" d="M8 4h1m2 1h1m-2 1h1M4 7h1m3 0h1m3 1h2M6 9h1m5 0h1M3 10h1m8 0h1m-6 2h1"/><path stroke="#dee6a4" d="M10 5h1M5 7h1m3 1h1m-4 3h1m-2 1h1"/><path stroke="#d0d38d" d="M10 7h1m2 0h1m-4 2h1m2 0h1M2 10h1m4 0h1m1 0h2m-8 1h1m3 0h2m2 0h1m-8 1h1m1 1h3"/><path stroke="#d5da94" d="M4 8h1m3 0h1m-4 3h1"/></svg>