<svg xmlns="http://www.w3.org/2000/svg" viewBox="0 -0.5 16 16" shape-rendering="crispEdges"><path stroke="#030303" d="M3 4h2M2 6h1m3 0h1M2 7h1m4 0h1M1 8h1M1 9h1m-1 1h1m0 1h1m2 1h1"/><path stroke="#953300" d="M7 4h2M5 5h2m2 0h1M8 6h1M4 7h1m3 0h2M5 8h1m0 1h1"/><path stroke="#ffa300" d="M9 4h1M6 8h1"/><path stroke="#191919" d="M3 5h1"/><path stroke="#1b1b1b" d="M4 5h1m0 1h1M2 8h1M2 9h1m1 0h2m-4 1h3"/><path stroke="#282828" d="M3 6h1M3 7h1m6 0h1M3 8h2m4 0h1m1 0h1M8 9h1m-2 1h1m3 0h1m-6 1h1m4 0h1m-6 1h1m4 0h1m-6 1h5m-3 1h1"/><path stroke="#333" d="M4 6h1m5 4h1m-2 1h2m-3 1h3"/><path stroke="#e78500" d="M5 7h1"/><path stroke="#202020" d="M6 7h1M3 9h1"/><path stroke="#ca8c09" d="M7 8h1"/><path stroke="#ffcb00" d="M8 8h1M7 9h1"/><path stroke="#d3d3d3" d="M10 8h1M9 9h1m-2 1h1m-2 1h1"/><path stroke="#7f7f7f" d="M10 9h1m-2 1h1m-2 1h1m-2 1h1"/><path stroke="#070707" d="M11 9h1m0 1h1m-1 1h1m0 1h1m-1 1h1m-7 1h1m2 0h3m-5 1h2"/><path stroke="#151515" d="M5 10h2m-4 1h1m8 1h1m-2 1h2m-4 1h1"/><path stroke="#0a0a0a" d="M4 11h2m-3 1h2"/></svg>