<svg xmlns="http://www.w3.org/2000/svg" viewBox="0 -0.5 16 16" shape-rendering="crispEdges"><path stroke="#272727" d="M6 2h4M5 3h4m4 0h1m-1 5h1m-1 1h1m-1 1h1"/><path stroke="#3e2b13" d="M10 2h1M9 3h1m1 0h2M9 4h1M8 6h1M7 7h1M7 8h1"/><path stroke="#906a26" d="M10 3h1m-1 1h1m-1 1h1M9 6h1M8 7h1m-3 3h1m-3 2h1m-2 1h1"/><path stroke="#121212" d="M6 4h3m5 3h1m-3 1h1m1 0h1m-3 1h1m1 0h1m-3 1h1m1 0h1m-2 1h1"/><path stroke="#7f5c1c" d="M11 4h1m-1 1h1m-2 1h1M9 7h1M8 8h1"/><path stroke="#624716" d="M12 4h1m-1 1h1m-2 1h3m-4 1h1M9 8h1M7 9h1m-3 2h1"/><path stroke="#1d130b" d="M13 4h1m-1 1h1m0 1h1m-4 1h3m-4 1h1M8 9h2"/><path stroke="#483515" d="M9 5h1M6 9h1m-2 1h1m-2 1h1m-2 1h1m-2 1h1"/><path stroke="#281e0b" d="M7 10h1m-2 1h1m-2 1h1m-2 1h1m-3 1h2"/></svg>