<svg xmlns="http://www.w3.org/2000/svg" viewBox="0 -0.5 16 16" shape-rendering="crispEdges"><path stroke="#2c2c2c" d="M6 2h4M6 3h1m2 0h2M6 4h1m3 0h1M6 5h3m1 0h1M9 6h1m1 0h1m-2 1h2"/><path stroke="#a1a1a1" d="M7 3h1"/><path stroke="#7f7f7f" d="M8 3h1M7 4h1"/><path stroke="#535353" d="M8 4h2M9 5h1"/><path stroke="#c6a96c" d="M11 4h1m-1 1h1m-2 1h1M9 7h1"/><path stroke="#896727" d="M12 4h1M8 8h1m-3 2h1m-3 2h1m-2 1h1"/><path stroke="#281e0b" d="M12 5h1M9 8h1M8 9h1m-2 1h1m-2 1h1m-2 1h1m-2 1h1m-3 1h2"/><path stroke="#493615" d="M8 7h1M7 8h1M6 9h1m-2 1h1m-2 1h1m-2 1h1m-2 1h1"/><path stroke="#684e1e" d="M7 9h1m-3 2h1"/></svg>