<svg xmlns="http://www.w3.org/2000/svg" viewBox="0 -0.5 16 16" shape-rendering="crispEdges"><path stroke="#2a2727" d="M7 2h4M7 3h1m2 0h1M6 4h1m2 0h1M6 5h1m5 0h2M5 6h1m5 0h1m1 0h1M5 7h1m7 0h1m-2 1h2M5 9h1m4 0h2m-7 1h2m1 0h3"/><path stroke="#525050" d="M8 3h2M7 4h2M6 6h1m5 0h1M6 7h2m3 0h2M7 8h2m2 0h1M8 9h2"/><path stroke="#7f7f7f" d="M7 5h2M7 6h1m2 1h1M9 8h2"/><path stroke="#e5e5e5" d="M4 8h1m2 3h1"/><path stroke="#b5b4b4" d="M5 8h1m0 1h1m0 1h1"/><path stroke="#c9c9c9" d="M6 8h1M4 9h1m2 0h1m-2 2h1"/></svg>