<svg xmlns="http://www.w3.org/2000/svg" viewBox="0 -0.5 16 16" shape-rendering="crispEdges"><path stroke="#232323" d="M12 2h2m-4 1h2m2 0h1M9 4h1m4 0h1M8 5h1m4 0h1m-4 1h1m2 0h1m-2 1h1m-2 1h1"/><path stroke="#424242" d="M12 3h1m0 1h1M9 5h1m1 2h1"/><path stroke="#323232" d="M13 3h1m-3 1h2m-3 1h3m-2 1h1"/><path stroke="#565656" d="M10 4h1m1 2h1"/><path stroke="#c6a96c" d="M9 6h1M8 7h1m1 0h1M9 8h1"/><path stroke="#bf9e5b" d="M9 7h1"/><path stroke="#493615" d="M7 8h1M6 9h1m-2 1h1m-2 1h1m-2 1h1"/><path stroke="#896727" d="M8 8h1m-3 2h1m-3 2h1"/><path stroke="#684e1e" d="M7 9h1m-3 2h1"/><path stroke="#281e0b" d="M8 9h1m-2 1h1m-2 1h1m-2 1h1m-3 1h2"/></svg>