<svg xmlns="http://www.w3.org/2000/svg" viewBox="0 -0.5 16 16" shape-rendering="crispEdges"><path stroke="rgba(255,255,255,0.00392156862745098)" d="M1 0h7M0 1h2m2 0h4M0 2h2m2 0h4M0 3h2m2 0h4M0 4h8M0 5h7M0 6h1m3 0h1M0 7h1m0 5h1m1 2h1"/><path stroke="#232323" d="M8 4h4M7 5h1m2 0h1M6 6h1m2 0h1M8 7h1M8 8h1m-5 2h1m1 0h1"/><path stroke="#777869" d="M8 5h1M7 6h1M6 7h1"/><path stroke="#525252" d="M9 5h1M8 6h1M7 7h1M6 8h2"/><path stroke="#a29b58" d="M5 7h1M5 9h1m1 0h1m-5 2h1m1 0h1"/><path stroke="#685f37" d="M5 8h1M4 9h1m1 0h1m-2 1h1m-2 1h1"/><path stroke="#493615" d="M2 12h1m-2 1h1"/><path stroke="#684e1e" d="M3 12h1m-3 2h1"/><path stroke="#281e0b" d="M4 12h1m-2 1h1m-2 1h1"/><path stroke="#896727" d="M2 13h1"/></svg>