<svg xmlns="http://www.w3.org/2000/svg" viewBox="0 -0.5 16 16" shape-rendering="crispEdges"><path stroke="#ed302c" d="M7 1h1m1 0h1M9 2h1m2 1h1m1 0h1m-2 1h1"/><path stroke="#ffec4f" d="M6 2h1M5 3h1"/><path stroke="#bf2529" d="M7 2h1m4 0h2M9 3h1m1 0h1m2 1h1"/><path stroke="#ff4540" d="M8 2h1m2 2h2"/><path stroke="#f19d25" d="M6 3h1"/><path stroke="#9b221a" d="M7 3h1m5 0h1m-2 2h1"/><path stroke="#dfe8e8" d="M8 3h1m1 1h1m2 2h1m-3 2h1"/><path stroke="#fafafa" d="M10 3h1M9 4h1m0 1h1m3 1h1m-1 1h1M4 8h1m7 0h1m-1 1h1m-9 1h2m1 1h1"/><path stroke="#fed639" d="M5 4h1"/><path stroke="#177c04" d="M6 4h1m1 4h1m0 1h1m-5 3h1"/><path stroke="#2bc4fd" d="M7 4h2M8 5h1"/><path stroke="#e8cffe" d="M5 5h1m5 0h1m-2 1h1"/><path stroke="#1c92d6" d="M6 5h1m1 1h1M8 7h1"/><path stroke="#27a9f4" d="M7 5h1m1 0h1M7 6h1m1 0h1"/><path stroke="#742303" d="M13 5h1"/><path stroke="#c098e0" d="M4 6h1M4 7h1"/><path stroke="#d2a6f6" d="M5 6h1m5 0h1m-2 1h1"/><path stroke="#377f13" d="M6 6h1M5 7h1m1 1h1M7 9h1m-2 1h1m3 0h1m-8 1h1m4 0h2m-8 1h1m1 0h1m-2 1h1m-3 1h1"/><path stroke="#255825" d="M12 6h1m-2 1h1M9 8h2M8 9h1m1 0h1M0 14h1m-1 1h2"/><path stroke="#76af52" d="M6 7h2M5 8h1m2 2h1m-6 2h1m-2 1h1"/><path stroke="#7fc059" d="M9 7h1m4 1h1M5 9h2m0 1h1m1 0h1m-9 3h1m0 1h1"/><path stroke="#4d912c" d="M12 7h1M6 8h1m6 1h1m-3 1h2"/><path stroke="#dadada" d="M13 7h1M4 9h1m6 0h1m-6 2h1"/><path stroke="#2f4547" d="M3 8h1M3 9h1m-1 1h1m0 1h2m0 1h2"/></svg>