<svg xmlns="http://www.w3.org/2000/svg" viewBox="0 -0.5 16 16" shape-rendering="crispEdges"><path stroke="#eac66f" d="M3 4h1M2 5h1M2 6h1M1 7h3m1 0h4M4 8h1m2 0h2m4 0h1m0 2h1"/><path stroke="#f8d86b" d="M4 4h2M3 5h5M3 6h8M4 7h1m4 0h4"/><path stroke="#fff391" d="M6 4h4M8 5h3m0 1h2"/><path stroke="#d0ad59" d="M1 6h1M1 8h3m1 0h2m2 0h4M3 9h2m2 0h1m5 0h1m0 2h1"/><path stroke="#616161" d="M2 9h1m-1 1h3"/><path stroke="#838383" d="M5 9h1m2 0h5m-8 1h9m-7 1h7m-3 1h3"/><path stroke="#6a6a6a" d="M6 9h1m-5 2h2m1 0h2m0 1h4m-3 1h5m-4 1h3"/></svg>