<svg xmlns="http://www.w3.org/2000/svg" viewBox="0 -0.5 16 16" shape-rendering="crispEdges"><path stroke="#51362c" d="M8 1h4M6 2h2M5 3h1M4 4h1M3 5h1M3 6h1m6 0h1M2 7h1m8 0h1m1 0h1M2 8h1m6 0h1M1 9h1m5 0h1m1 0h1m2 0h1M1 10h1m6 0h1m1 0h1m-4 1h2m-4 2h1"/><path stroke="#a67360" d="M8 2h1m1 0h1M7 3h1m2 0h3M6 4h1m1 0h5M7 5h4M4 6h2M5 7h2M3 8h3M2 9h3m-3 1h2m-1 1h2m-2 1h1m0 1h1"/><path stroke="#d4a28b" d="M9 2h1M6 3h1m2 0h1M5 4h1m1 0h1M5 5h1m0 1h1M3 7h2"/><path stroke="#75645e" d="M11 2h1M6 5h1m5 1h1m-2 3h1m-6 3h1"/><path stroke="#31211b" d="M12 2h1m0 1h1m-1 1h1m0 1h1M8 6h1m5 0h1m-5 1h1m3 0h1m-2 1h1M5 9h1m7 0h1m-2 1h1M2 11h1m6 0h3M2 12h1m5 0h2m-7 1h1m2 0h2m-4 1h2"/><path stroke="#e8d9d2" d="M8 3h1M4 5h1"/><path stroke="#684639" d="M11 5h1m1 0h1M9 6h1m3 0h1M7 7h2m3 0h1M6 8h3m1 0h1m1 0h1M6 9h1m1 0h1m-5 1h1m1 0h2m3 0h1m-7 1h1m-2 1h2"/><path stroke="#3d2c25" d="M12 5h1M7 6h1m3 0h1M9 7h1m1 1h1m-2 1h1m-6 1h1m3 0h1m-4 1h1m0 1h1"/></svg>