<svg xmlns="http://www.w3.org/2000/svg" viewBox="0 -0.5 16 16" shape-rendering="crispEdges"><path stroke="#130c00" d="M1 1h1M1 2h1M1 3h1M1 4h1M1 5h1m12 9h1"/><path stroke="#38280d" d="M2 1h4m8 1h1m-1 1h1m-1 1h1m-1 1h1M1 10h1m-1 1h1m-1 1h1m-1 1h1m8 1h4"/><path stroke="#1e1606" d="M10 1h5m-1 9h1m-1 1h1m-1 1h1m-1 1h1M1 14h5"/><path stroke="#037800" d="M2 2h1m2 0h1m4 0h1m2 0h1m-4 1h1M2 4h1m2 1h1m4 0h2m1 0h1M2 10h1m2 0h1m2 0h1m1 0h1m2 0h1M2 13h1m1 0h1m1 0h3m2 0h1m1 0h1"/><path stroke="#118700" d="M3 2h2m3 0h1m2 0h1M2 3h1m2 0h1M5 4h1m4 0h1m2 0h1M3 5h1m2 0h1m1 0h1m3 0h1M2 6h1m2 0h1m4 0h1m2 0h1M5 7h1m7 0h1M2 8h1m2 0h1m4 0h1m2 0h1M5 9h1m4 0h1m2 0h1M3 10h2m1 0h1m2 0h1m1 0h2m-8 1h1m4 0h1m-6 1h1m4 0h1m-2 1h1m2 0h1"/><path stroke="#1d9300" d="M6 2h2m1 0h1m2 0h1m0 1h1M4 5h1m2 0h1m1 0h1M2 7h1m7 0h1M2 9h1m4 1h1m-6 1h1m10 0h1M2 12h1m10 0h1M3 13h1"/><path stroke="#006900" d="M2 5h1m2 8h1m4 0h1"/></svg>