<svg xmlns="http://www.w3.org/2000/svg" viewBox="0 -0.5 16 16" shape-rendering="crispEdges"><path stroke="#663d0b" d="M7 3h1m0 1h1m2 1h1M9 7h1m2 0h1M8 8h1m1 0h1M8 9h1m2 1h1"/><path stroke="#7a500c" d="M8 3h1M7 4h1m1 0h2M7 5h1m2 0h1M6 6h1m1 0h4M4 7h1m2 0h2m1 0h1M6 8h1m2 0h1m1 0h2M9 9h1m1 0h1m-5 1h1m2 0h1m-3 2h1"/><path stroke="#352304" d="M6 4h1M5 5h1m2 0h1M4 6h1m0 1h1m5 0h1M6 9h1m-2 2h1m1 0h1"/><path stroke="#56350a" d="M6 5h1m2 0h1M5 6h1m1 0h1M6 7h1M5 8h1m1 0h1M5 9h1m1 0h1m2 0h1m-5 1h1m1 0h2m-2 1h1m1 0h1"/></svg>