<svg xmlns="http://www.w3.org/2000/svg" viewBox="0 -0.5 16 16" shape-rendering="crispEdges"><path stroke="#8c5f2c" d="M7 0h1M6 1h2m1 0h1M3 2h1m3 0h1m1 0h2m1 0h1M3 3h3m1 0h3m1 0h2M2 4h2m1 0h1m1 0h4M7 6h3m1 0h1M4 7h4m1 0h3M5 8h3m1 0h1M5 9h1m1 0h2m-4 1h3m-4 1h1m-1 1h2m2 0h1m-1 1h1m-8 1h1m2 0h1m3 0h1m3 0h1M1 15h1"/><path stroke="#936532" d="M8 0h1M8 1h1M5 2h1m2 0h1M6 3h1m3 0h1M6 4h1m4 0h1M7 5h2m2 0h1M5 6h2m3 0h1M3 9h2m1 0h1m-4 1h2m-3 2h2m2 0h2m1 0h1m2 0h2M4 13h4m1 0h1m2 0h1"/><path stroke="#7b3e17" d="M1 1h2m10 0h2M1 2h2m10 0h2M2 3h1m10 0h1M2 13h2m9 0h1M2 14h2m9 0h2M2 15h1m10 0h2"/><path stroke="#845724" d="M6 2h1M4 4h1m7 0h2M3 5h4m2 0h2m1 0h2M3 6h2m7 0h1M8 7h1M4 8h1m3 0h1m1 0h2M9 9h4m-5 1h5M2 11h2m1 0h9m-4 1h2m-2 1h2m-5 1h1m3 0h1"/></svg>