<svg xmlns="http://www.w3.org/2000/svg" viewBox="0 -0.5 16 16" shape-rendering="crispEdges"><path stroke="#00b0dc" d="M5 4h2m1 0h2M4 5h1m2 0h1m2 0h1M3 6h1m7 0h1M3 7h1m7 0h1M3 8h1m7 0h1M4 9h1m5 0h1m-6 1h1m3 0h1m-4 1h1m1 0h1m-2 1h1"/><path stroke="#00cdff" d="M5 5h2m1 0h2M4 6h1m1 0h5M4 7h4m1 0h2M5 8h2m1 0h2M6 9h3m-2 1h1m-3 2h1m4 0h1m-6 1h1m4 0h1m-1 1h1"/><path stroke="#92f0ff" d="M5 6h1"/><path stroke="#0df" d="M8 7h1"/><path stroke="#00bdec" d="M4 8h1m2 0h1m2 0h1M5 9h1m3 0h1m-6 1h1m1 0h1m1 0h1m1 0h1m-6 1h1m1 0h1m2 0h1"/></svg>