<svg xmlns="http://www.w3.org/2000/svg" viewBox="0 -0.5 16 16" shape-rendering="crispEdges"><path stroke="#374e87" d="M7 1h2M5 2h2m2 0h2M3 3h2m6 0h1M2 4h1M2 5h1M2 6h1M2 7h1M2 8h1M2 9h1m-1 1h1"/><path stroke="#b2ddff" d="M7 2h1M5 3h1m2 0h1M3 4h1m1 0h5M5 5h2M3 6h1m3 0h1M4 7h1m0 2h1m0 1h1"/><path stroke="#8ebfff" d="M8 2h1m0 1h2m0 1h2M9 5h2M4 6h1m3 0h1M3 7h1m1 0h2m3 0h1M3 8h5m1 0h1M3 9h2m1 0h2m3 0h1m-7 1h1m1 0h1m2 0h1m-4 1h1"/><path stroke="#fff" d="M6 3h2M4 4h1m5 0h1M7 5h2"/><path stroke="#283663" d="M12 3h1m0 1h1m-1 1h1m-1 1h1m-1 1h1m-1 1h1m-1 1h1m-1 1h1M3 11h2m6 0h2m-8 1h2m2 0h2m-4 1h2"/><path stroke="#77a9ff" d="M3 5h2m0 1h2m4 0h1M7 7h1m1 0h1m1 0h1M8 8h1m1 0h2M8 9h3m-8 1h2m3 0h2m1 0h1m-7 1h2m1 0h1m-2 1h1"/><path stroke="#6588d8" d="M11 5h2M9 6h2m1 0h1M8 7h1m3 0h1m-1 1h1m-1 1h1m-1 1h1m-4 1h2m-3 1h1"/></svg>