<svg xmlns="http://www.w3.org/2000/svg" viewBox="0 -0.5 16 16" shape-rendering="crispEdges"><path stroke="#633937" d="M4 1h1M3 2h1m1 0h2m4 0h1M3 3h1m3 0h2m1 0h1M2 4h1m6 0h1M2 5h1M2 7h1M2 8h1M1 9h1m0 1h1m-2 1h1"/><path stroke="#e8d6d6" d="M4 2h1m6 1h1M3 4h1m1 0h1m2 0h1m3 1h1M7 6h1m1 0h1M3 7h1m1 0h1m1 0h1m5 1h1M2 9h1m3 0h2m1 1h1m-8 1h1m2 0h1m6 2h1"/><path stroke="#f4ebeb" d="M4 3h2M4 4h1m6 0h1M8 5h2m1 0h1M4 6h2m2 0h1M4 7h1M3 8h1m2 0h1m4 0h2M5 9h1m4 0h1m-7 2h1m7 1h1"/><path stroke="#caa7a7" d="M6 3h1m0 1h1m2 0h1M3 5h1m5 2h2m1 0h2M7 8h1m1 0h1M3 9h1m4 0h1m4 0h1M3 10h1m2 0h1m3 0h1m1 0h1m-5 1h1m2 0h2m-7 1h1m2 0h1m-4 1h3"/><path stroke="#4c1d1c" d="M12 3h1m-1 1h1m0 1h1m-1 1h1m0 1h1m-1 1h1m-1 1h1m-2 1h1M3 11h1m9 0h1M2 12h1m1 0h1m5 0h1m2 0h1m-9 1h1m3 0h1m1 0h1m1 0h1m-8 1h3m3 0h1"/><path stroke="#7f5351" d="M6 4h1M4 5h2m1 0h1m2 0h1M3 6h1m2 0h1m3 0h1m1 0h1M6 7h1m4 0h1M5 8h1m2 0h1m1 0h1M4 9h1m4 0h1m2 0h1m-9 1h2m1 0h2m2 0h1m-6 1h1m2 0h2m-6 1h1m1 0h2m2 0h1"/><path stroke="#872d2d" d="M6 5h1m4 1h1M8 7h1M4 8h1m6 1h1m-5 2h1"/></svg>