<svg xmlns="http://www.w3.org/2000/svg" viewBox="0 -0.5 16 16" shape-rendering="crispEdges"><path stroke="#8e8e8e" d="M10 3h1m1 1h2m-2 1h2M9 7h1M9 8h2M4 9h2m4 0h3m-7 1h1m-1 2h1"/><path stroke="#c4af9a" d="M11 3h1M4 6h3M5 7h2m3 0h1M6 8h1m0 2h1m-1 1h1"/><path stroke="#e8d1bb" d="M12 3h1M5 5h4M7 6h1m3 0h2M7 7h1m3 0h2m-1 1h1m-5 2h1m-1 1h1"/><path stroke="#6c6c6c" d="M8 4h2M8 6h1M8 7h1m4 0h1M7 8h1m5 0h1M4 10h1m4 0h1m1 0h2m-9 1h1m4 0h3m-8 1h2m3 0h2m-6 1h4"/><path stroke="#7e7e7e" d="M10 4h1M9 5h3M9 6h2m2 0h1M8 8h1M6 9h4m-5 1h1m4 0h1m-6 1h1m1 1h2"/><path stroke="#a7988a" d="M11 4h1M4 7h1M4 8h2m5 0h1m-6 3h1"/></svg>