<svg xmlns="http://www.w3.org/2000/svg" viewBox="0 -0.5 16 16" shape-rendering="crispEdges"><path stroke="#594219" d="M8 2h1m-6 9h1"/><path stroke="#372813" d="M9 2h1"/><path stroke="#3e2f13" d="M6 3h1"/><path stroke="#3a2d13" d="M7 3h1m1 2h1m3 0h1M9 7h1"/><path stroke="#463713" d="M8 3h1m0 9h1"/><path stroke="#503e17" d="M9 3h1"/><path stroke="#75571f" d="M10 3h1"/><path stroke="#776827" d="M11 3h1"/><path stroke="#786729" d="M4 4h1"/><path stroke="#7d622d" d="M5 4h1"/><path stroke="#795823" d="M7 4h1"/><path stroke="#684e20" d="M8 4h2"/><path stroke="#59471b" d="M10 4h1M7 8h1"/><path stroke="#59481c" d="M11 4h1"/><path stroke="#554418" d="M3 5h1"/><path stroke="#514019" d="M4 5h1"/><path stroke="#523f19" d="M5 5h1"/><path stroke="#392913" d="M6 5h1"/><path stroke="#3e3013" d="M7 5h1m3 0h1M4 8h1m1 0h1"/><path stroke="#3a2a13" d="M8 5h1M5 8h1"/><path stroke="#3b2d13" d="M10 5h1m1 3h2"/><path stroke="#3d2f13" d="M3 6h1m0 6h1m2 0h1"/><path stroke="#382913" d="M4 6h1M3 8h1"/><path stroke="#3c2d13" d="M5 6h1m2 6h1"/><path stroke="#5b471c" d="M6 6h1M3 7h1m2 0h1m3 0h1m-6 4h1"/><path stroke="#5a471b" d="M7 6h1"/><path stroke="#7d5d26" d="M8 6h1m-2 7h1"/><path stroke="#775722" d="M9 6h1"/><path stroke="#5b481d" d="M10 6h1m-8 4h1"/><path stroke="#5e4a1e" d="M11 6h1M2 7h1"/><path stroke="#7d5b26" d="M12 6h1"/><path stroke="#7d5e27" d="M4 7h1M3 9h2"/><path stroke="#574217" d="M5 7h1"/><path stroke="#3d3013" d="M7 7h2m-4 5h1"/><path stroke="#594419" d="M11 7h1m1 0h1m-9 3h1m-2 1h1m1 0h1"/><path stroke="#59461a" d="M12 7h1M9 8h1m-8 2h1"/><path stroke="#7c5e27" d="M8 8h1"/><path stroke="#584219" d="M10 8h1"/><path stroke="#5b491d" d="M11 8h1"/><path stroke="#7c5925" d="M5 9h1"/><path stroke="#785924" d="M6 9h1"/><path stroke="#3b3213" d="M7 9h1"/><path stroke="#392f13" d="M8 9h1"/><path stroke="#534316" d="M9 9h1"/><path stroke="#57491a" d="M10 9h1"/><path stroke="#655320" d="M11 9h2"/><path stroke="#5a491d" d="M1 10h1"/><path stroke="#5e4b1e" d="M4 10h1"/><path stroke="#5b4b1e" d="M6 10h1"/><path stroke="#726324" d="M7 10h1"/><path stroke="#786928" d="M8 10h1"/><path stroke="#766626" d="M9 10h1"/><path stroke="#776927" d="M10 10h1"/><path stroke="#635820" d="M11 10h2"/><path stroke="#5c491d" d="M2 11h1m7 1h2"/><path stroke="#5d4d1f" d="M7 11h1"/><path stroke="#59491d" d="M8 11h1"/><path stroke="#5a4a1d" d="M9 11h1"/><path stroke="#574419" d="M10 11h1"/><path stroke="#584519" d="M11 11h1"/><path stroke="#423515" d="M6 12h1"/><path stroke="#7e5e29" d="M6 13h1"/><path stroke="#533f19" d="M10 13h1"/></svg>