<svg xmlns="http://www.w3.org/2000/svg" viewBox="0 -0.5 16 16" shape-rendering="crispEdges"><path stroke="#008102" d="M9 0h1M8 1h1M7 2h1m1 0h1M7 3h1m1 0h1m3 1h2m-3 1h1m2 0h1M3 6h1m6 0h2m3 0h1M2 7h1m10 0h1M1 8h1m1 0h1m6 0h3M1 9h1m1 0h1m9 1h1"/><path stroke="#006c00" d="M13 0h2m-5 1h1m1 0h1m2 0h1m-6 1h1m3 0h1M7 4h1M4 5h1m2 0h1M5 6h1m8 0h1M4 7h1m9 0h1m-2 1h1m-4 1h1m2 0h1M1 10h1m7 0h2M1 11h1m7 0h1"/><path stroke="#271c02" d="M15 0h1m-3 1h2M8 2h1m2 0h1m1 0h1m-4 1h1M8 5h1m1 0h1M4 6h1M3 7h1M2 8h1M2 9h1m-1 1h2m-3 2h1"/><path stroke="#342604" d="M9 1h1m2 1h1M8 3h1m3 0h1M8 4h2m1 0h1m1 1h2M7 6h3m2 0h1M6 7h7M5 8h1m1 0h2M4 9h1m1 0h1m-2 1h1m-4 1h1m1 0h1m-2 1h1m-4 1h3m-3 1h2"/><path stroke="#604b10" d="M11 3h1m-2 1h1M9 5h1m3 1h1M6 8h1M5 9h1m-2 1h1m-2 1h1m-2 1h1"/></svg>