<svg xmlns="http://www.w3.org/2000/svg" viewBox="0 -0.5 16 16" shape-rendering="crispEdges"><path stroke="#332705" d="M4 3h1m1 0h1m1 0h1m1 0h1M3 4h1m1 0h1m1 0h1m1 0h1m1 0h1M3 5h1m8 0h1M3 6h1m8 0h1M3 7h1m8 0h1M3 8h1"/><path stroke="#ece632" d="M4 4h1m1 0h1M5 5h1M5 6h2M4 7h1"/><path stroke="#e8b31c" d="M8 4h1m1 1h1M7 6h3"/><path stroke="#b68411" d="M10 4h1m0 1h1m-2 1h1"/><path stroke="#e51010" d="M4 5h1M4 6h1"/><path stroke="#313131" d="M6 5h4M5 7h7M4 8h1m7 0h1M2 9h1m10 0h1M2 10h1m10 0h1M2 11h1m10 0h1M2 12h1m10 0h1M3 13h10"/><path stroke="#944e0d" d="M11 6h1"/><path stroke="#73c261" d="M5 8h7M6 9h7m-7 1h6m-6 1h4"/><path stroke="#5faa49" d="M3 9h1m-1 1h1m8 0h1M3 11h3m4 0h3M3 12h2m1 0h7"/><path stroke="#4b7b3f" d="M4 9h2m-2 1h2m-1 2h1"/></svg>