<svg xmlns="http://www.w3.org/2000/svg" viewBox="0 -0.5 16 16" shape-rendering="crispEdges"><path stroke="#321f14" d="M6 1h3M5 2h1m3 0h1M4 3h1m3 0h1m1 0h1M3 4h5m1 0h3M3 5h1m4 0h1m3 0h1M3 6h1m3 0h1m3 0h1m1 0h1M2 7h1m3 0h5m3 0h1M6 8h1m7 0h1M6 9h1m7 0h1M5 10h1m7 0h1m-2 1h1m-4 1h3m-4 1h1"/><path stroke="#825234" d="M6 2h1m2 1h1M8 4h1M4 5h4m1 0h1M4 6h2M3 7h3M3 8h2M4 9h1"/><path stroke="#5a3824" d="M7 2h2M5 3h3m2 2h2M8 6h3m2 2h1m-2 1h2m-3 1h2m-5 1h4m-5 1h2"/><path stroke="#70472d" d="M6 6h1m5 0h1m-2 1h3M5 8h1m1 0h6M5 9h1m1 0h5m-6 1h5m-5 1h2"/><path stroke="#1e130c" d="M1 8h2M1 9h3m-2 1h3m-2 1h3m-2 1h3m-2 1h3m-2 1h2"/></svg>