<svg xmlns="http://www.w3.org/2000/svg" viewBox="0 -0.5 16 16" shape-rendering="crispEdges"><path stroke="#794a26" d="M7 0h2m0 1h1m-5 9h1"/><path stroke="#b9863c" d="M1 1h1m4 0h1m2 2h2M6 4h1m2 0h1M7 5h1m2 0h1m2 0h1M3 6h1m2 0h2m3 0h1M7 7h1m2 0h2m-4 3h1m1 0h1m-3 1h5m-4 1h1m1 1h1m-8 1h1"/><path stroke="#be8e40" d="M2 1h1m4 0h1m5 0h1M3 2h1m1 0h1m8 0h1M6 3h1m4 1h1m-1 1h2M9 7h1m0 1h2m-1 2h2m-5 2h1m1 0h1m-7 1h1m2 0h2m1 0h1m-8 1h1m4 0h1m-8 1h1m12 0h1"/><path stroke="#8f5c2c" d="M8 1h1M2 3h1m4 0h1M3 5h2m0 2h1M5 8h1M5 9h3m2 0h1m-7 1h1m1 0h1m-1 1h1m5 3h2"/><path stroke="#c69041" d="M14 1h1M2 2h1m9 0h2m-3 1h1m-2 1h1m-8 9h1m1 0h2m-6 1h1"/><path stroke="#aa6f33" d="M1 2h1m3 1h1m2 0h1m3 0h2M6 7h1m1 0h1M8 8h1M4 9h1m6 0h2M3 11h1m0 1h1m-3 2h1m11 0h1"/><path stroke="#b57d37" d="M6 2h5M4 3h1m0 1h1m7 0h1M6 5h1m5 1h1M4 8h1m4 0h1m-1 2h1m-8 2h2m1 0h3m3 0h2M2 13h1m8 1h1"/><path stroke="#9f7035" d="M3 3h1M3 4h2m2 0h1m0 1h2M8 6h2M4 7h1m1 1h2m1 1h1m-3 1h1m5 2h1m-5 1h1m2 0h1M2 15h1"/><path stroke="#996730" d="M2 4h1m5 0h1m3 0h1M5 5h1M4 6h2m4 0h1M3 9h1m4 0h1m-6 1h1m-2 1h1m1 0h2m1 0h1m5 0h1m-1 2h1m-7 1h1m5 1h1"/></svg>