<svg xmlns="http://www.w3.org/2000/svg" viewBox="0 -0.5 16 16" shape-rendering="crispEdges"><path stroke="#630900" d="M8 1h1M7 2h1m1 0h3M6 3h1m5 0h1M6 4h1m6 0h1M4 5h2m8 0h1M3 6h1m10 0h1M2 7h1m10 0h1M2 8h1m9 0h1M3 9h1m7 0h1m-8 1h1m6 0h1m-8 1h1m5 0h1m-6 1h1m3 0h1m-4 1h3"/><path stroke="#f48522" d="M8 2h1M7 4h1m5 1h1M5 6h1m-1 5h1m1 1h1"/><path stroke="#f89e44" d="M7 3h1m4 1h1M6 5h1m2 6h1m-2 1h1"/><path stroke="#5a2c1e" d="M8 3h1M8 4h4M7 5h2m2 0h1M6 6h2M4 7h3m1 0h1M4 8h2M5 9h2m-1 1h3"/><path stroke="#ca4e06" d="M9 3h1m2 4h1M3 8h1m7 0h1M4 9h1m5 1h1"/><path stroke="#e66410" d="M10 3h2M4 6h1m8 0h1M3 7h1m6 2h1m-6 1h1m0 2h1"/><path stroke="#4b251b" d="M9 5h2M8 6h4M7 7h1m1 0h1M6 8h3M7 9h2m-3 2h2"/><path stroke="#34180d" d="M12 5h1m-1 1h1m-3 1h2M9 8h2M9 9h1m-1 1h1m-2 1h1"/></svg>