<svg xmlns="http://www.w3.org/2000/svg" viewBox="0 -0.5 16 16" shape-rendering="crispEdges"><path stroke="#351003" d="M7 0h1M1 1h2m6 0h1M1 2h1m7 0h1M4 6h1m3 1h1m2 2h2m-3 1h1m-1 1h4M2 12h2m8 0h2M2 13h2m6 0h4M2 14h2m7 0h3m-1 1h1"/><path stroke="#1d0504" d="M8 0h1m4 1h2m-1 1h1m-4 10h1M1 14h1m12 0h1M1 15h2m11 0h1"/><path stroke="#492106" d="M6 1h3M2 2h1m2 0h4m3 0h2M2 3h1m1 0h6m1 0h3M2 4h1m1 0h6m1 0h3M3 5h3m2 0h1m1 0h1m2 0h1M3 6h1m2 0h5m1 0h1M5 7h3m1 0h3M7 8h2m1 0h2M3 9h1m3 0h4m-8 1h1m4 0h2m1 0h1M2 11h1m1 0h1m3 0h2m-6 1h1m4 0h2m-7 1h1m2 0h3m-6 1h1m2 0h2"/><path stroke="#542b0e" d="M3 2h1m6 0h1M3 3h1m6 0h1M3 4h1m6 0h1M6 5h2m1 0h1m1 0h2M5 6h1m5 0h1M4 7h1M4 8h3m2 0h1M4 9h3m-3 1h4m4 0h1M3 11h1m1 0h3m-3 1h4m-4 1h2"/></svg>