<svg xmlns="http://www.w3.org/2000/svg" viewBox="0 -0.5 16 16" shape-rendering="crispEdges"><path stroke="#a30f10" d="M7 0h2M8 1h2m3 0h1M6 2h2m6 0h1M8 3h3m2 0h1M3 4h1m3 0h1m1 0h1m2 0h1M4 5h2m2 0h2m1 0h3M4 6h1m4 0h1m2 0h1M4 7h1m2 0h5m-1 1h1M9 9h3m-3 1h4m-3 1h1m-9 1h1m-2 2h2m4 0h1m4 0h3M2 15h1m10 0h1"/><path stroke="#818181" d="M1 1h2M1 2h1m0 1h2m1 0h1M4 4h1m1 0h1m4 0h1M5 7h2M6 8h2M3 9h2m1 0h1m-4 1h1m2 0h3m-6 1h1m1 0h3m-2 1h1m2 0h2m-8 1h1m1 0h2m5 0h2"/><path stroke="#940e0f" d="M6 1h2m6 0h1M8 2h3m1 0h2M6 3h2m3 0h2M2 4h1m5 0h1m4 0h1M3 5h1m2 0h2m2 0h1M3 6h1m1 0h4m1 0h2M8 8h3m1 1h1M2 11h1m8 0h1M2 13h1m7 0h2m-9 1h1m7 0h1M1 15h1m12 0h1"/><path stroke="#b3b3b3" d="M2 2h1m1 6h1m3 3h1m3 1h2"/><path stroke="#a1a1a1" d="M3 2h1m1 0h1M4 3h1m0 1h1m4 0h1M5 8h1M5 9h1m1 0h2m-5 1h2m-2 1h1m4 0h1m2 0h2M3 12h3m1 0h2m2 0h1m-8 1h1m2 0h3m-6 1h1m3 0h1"/></svg>