<svg xmlns="http://www.w3.org/2000/svg" viewBox="0 -0.5 16 16" shape-rendering="crispEdges"><path stroke="#351a1a" d="M4 2h4M3 3h1m5 0h1M3 4h1M2 5h1M1 6h1M1 7h1M1 8h1M1 9h1m-1 1h1"/><path stroke="#1e0a0a" d="M8 2h1m1 1h1m0 1h1m0 1h1m0 1h1m0 1h1m-1 1h1m-1 1h1m-2 1h1M2 11h1m10 0h1M3 12h1m8 0h1m-9 1h1m5 0h2m-7 1h5"/><path stroke="#6b2c2c" d="M4 3h1m3 0h1M5 4h1m1 0h3M3 5h2m1 0h4M2 6h1m1 0h3m1 0h2M3 7h6M2 8h2m1 0h1m1 0h1m1 0h1M5 9h1"/><path stroke="#854242" d="M5 3h3M4 4h1m1 0h1M3 6h1m3 0h1"/><path stroke="#521a1a" d="M10 4h1M5 5h1m4 0h2m-2 1h3M2 7h1m6 0h4M4 8h1m1 0h1m1 0h1m1 0h3M2 9h1m1 0h1m1 0h1m1 0h2m1 0h1m-9 1h3m1 0h1m1 0h2m-7 1h1m1 0h3m-1 1h1"/><path stroke="#411616" d="M13 7h1m-1 1h1M3 9h1m3 0h1m2 0h1m1 0h2M2 10h1m3 0h1m1 0h1m2 0h2M3 11h1m1 0h1m3 0h4m-9 1h4m1 0h3m-7 1h5"/></svg>