<svg xmlns="http://www.w3.org/2000/svg" viewBox="0 -0.5 16 16" shape-rendering="crispEdges"><path stroke="#493615" d="M8 2h1m4 0h1M9 3h1m2 0h1m-2 1h1M8 5h1m1 0h1M9 6h1M8 7h1M7 8h1M6 9h1m-2 1h1m-2 1h1m-2 1h1m-2 1h1"/><path stroke="#281e0b" d="M14 2h1m-1 1h1m-2 1h1m-2 1h1m-2 1h1m-2 1h1M9 8h1M8 9h1m-2 1h1m-2 1h1m-3 2h1m-3 1h2"/><path stroke="#00af14" d="M6 3h1m0 10h1"/><path stroke="#684e1e" d="M8 3h1m0 1h1m1 1h1M9 7h1M7 9h1m-3 2h1m-1 1h1m1 0h1"/><path stroke="#896727" d="M13 3h1M8 4h1m3 0h1M9 5h1m0 1h1M8 8h1m-3 2h1m-3 2h1m1 0h1m-4 1h1"/><path stroke="#009611" d="M6 4h1m6 1h1m-6 8h1"/><path stroke="#00700d" d="M7 4h1m6 1h1"/></svg>