<svg xmlns="http://www.w3.org/2000/svg" viewBox="0 -0.5 16 16" shape-rendering="crispEdges"><path stroke="#987849" d="M8 2h1M8 3h1m2 0h1"/><path stroke="#3c2f1c" d="M9 2h1M9 3h1M7 6h1m1 0h1m1 2h1m-1 4h1"/><path stroke="#3e311e" d="M6 3h1M2 7h1m5 3h1"/><path stroke="#685332" d="M7 3h1m2 0h1M5 5h1m0 1h1"/><path stroke="#7c623e" d="M4 4h2m7 1h1m-4 1h1m-1 1h1m2 0h1M1 10h1"/><path stroke="#675231" d="M7 4h1M3 9h1m0 1h1m-2 1h1m6 2h1"/><path stroke="#6e5938" d="M8 4h1m-2 9h1"/><path stroke="#423522" d="M9 4h1M9 8h1M6 9h1m4 0h1m-6 2h1"/><path stroke="#6a5534" d="M10 4h1M7 5h1M7 9h2m-6 1h1m8 0h1m-6 2h1"/><path stroke="#9a7a4b" d="M11 4h1M4 5h1m1 2h1m-2 4h1m1 0h1m-3 1h1"/><path stroke="#665130" d="M3 5h1m2 0h1m5 2h1"/><path stroke="#6b5635" d="M8 5h1M3 7h1m9 1h1m-2 1h1m-9 3h1"/><path stroke="#3d301d" d="M9 5h1M5 7h1m5 4h1"/><path stroke="#695433" d="M10 5h1M6 8h1m1 0h1"/><path stroke="#8f6f40" d="M11 5h1"/><path stroke="#6c5736" d="M3 6h1m8 2h1"/><path stroke="#977748" d="M4 6h1m5 6h1"/><path stroke="#624d2c" d="M5 6h1"/><path stroke="#917142" d="M8 6h1"/><path stroke="#59472c" d="M11 6h1"/><path stroke="#372a17" d="M12 6h1"/><path stroke="#9b7b4c" d="M4 7h1"/><path stroke="#413421" d="M7 7h1M5 8h1"/><path stroke="#99794a" d="M8 7h1"/><path stroke="#3a2d1a" d="M9 7h1m-4 3h1"/><path stroke="#4c3d26" d="M11 7h1m-6 6h1"/><path stroke="#705b3a" d="M3 8h1"/><path stroke="#947445" d="M4 8h1m0 1h1"/><path stroke="#403320" d="M7 8h1m-6 2h1m8 0h1"/><path stroke="#937344" d="M10 8h1"/><path stroke="#6d5837" d="M4 9h1"/><path stroke="#392c19" d="M9 9h1"/><path stroke="#957546" d="M10 9h1"/><path stroke="#967647" d="M5 10h1"/><path stroke="#644f2e" d="M7 10h1"/><path stroke="#5e4b2f" d="M9 10h1m-1 1h1"/><path stroke="#9f7f50" d="M10 10h1"/><path stroke="#3f321f" d="M2 11h1m5 1h1"/><path stroke="#6f5a39" d="M4 11h1"/><path stroke="#382b18" d="M8 11h1m-3 1h1"/><path stroke="#9d7d4e" d="M10 11h1"/><path stroke="#65502f" d="M9 12h1"/></svg>