<svg xmlns="http://www.w3.org/2000/svg" viewBox="0 -0.5 16 16" shape-rendering="crispEdges"><path stroke="#a99151" d="M7 1h3M6 2h1m3 0h1M3 3h3m5 0h3M3 4h1m9 0h1M4 5h1m7 0h1M5 6h1m5 0h1M5 7h1m5 0h1M5 8h1m5 0h1M5 9h1m5 0h1m-8 1h1m7 0h1m-9 1h1m7 0h1m-9 1h1m7 0h1M3 13h1m9 0h1M3 14h4m3 0h4m-7 1h3"/><path stroke="#e4c570" d="M7 2h1M7 3h1M4 4h2m6 0h1M5 5h1m1 0h1m1 0h1m1 0h1M6 6h1m2 0h1M6 7h1m3 0h1M8 9h1m-4 1h2m1 0h1m2 0h1m-4 1h1m-5 2h2m2 0h1m2 0h2m-6 1h2"/><path stroke="#efde7d" d="M8 2h2M6 3h1m1 0h1M7 4h2m2 0h1M8 5h1m1 0h1M8 6h1m1 0h1M7 7h1m1 0h1M6 8h2m1 0h2M7 9h1m1 0h1m-3 1h1m1 0h1m-4 1h1m2 0h3m-6 1h1m1 0h2m1 0h1m-6 1h2m2 0h1"/><path stroke="#5a4026" d="M9 3h1M6 5h1m1 2h1m1 3h1m-6 1h1m3 2h1"/><path stroke="#edcc97" d="M10 3h1M6 4h1m3 5h1m-4 2h1"/><path stroke="#b58c52" d="M9 4h1M8 8h1m-4 4h1m1 0h1m1 2h1"/><path stroke="#e1b869" d="M10 4h1M7 6h1M6 9h1m3 3h1"/></svg>