<svg xmlns="http://www.w3.org/2000/svg" viewBox="0 -0.5 16 16" shape-rendering="crispEdges"><path stroke="#ea8886" d="M7 0h2M7 1h3m4 0h1M8 2h2M6 3h1m3 0h1M8 4h1M7 5h3M7 6h1M7 7h1m2 0h1M5 8h1m1 0h1m2 0h1M3 9h3m1 0h1m-3 1h2m1 0h1m-4 1h1m1 0h1m5 2h1m-1 1h1"/><path stroke="#ec9391" d="M1 1h2m2 1h3m6 0h1M3 3h3m1 0h2m4 0h1M4 4h1m1 0h2m2 0h1M5 5h2m6 0h1M3 6h4m1 0h2M4 7h3M4 8h1m1 0h1"/><path stroke="#e8807e" d="M6 1h1m6 0h1m-4 1h1m1 0h2M9 3h1m2 0h1M9 4h1m1 0h3m-3 1h1m-2 1h1m1 0h1M8 7h2m1 0h1M8 8h2m1 0h1M6 9h1m1 0h4m-8 1h1m2 0h1m1 0h2m-8 1h2m1 0h1m1 0h1m1 0h1m-6 1h2m1 0h1m1 0h1m-3 1h1m-6 1h1m4 0h1"/><path stroke="#ed9f9d" d="M1 2h3M2 3h1M2 4h2m1 0h1M3 5h2"/><path stroke="#e67878" d="M11 3h1m-2 2h1m1 0h1m-2 1h1m0 3h1M3 10h1m8 0h1M2 11h1m6 0h1m2 0h2M2 12h3m2 0h1m1 0h1m3 0h1m-9 1h1m1 0h1m1 0h1m2 0h1M2 15h1m10 0h1"/><path stroke="#d96260" d="M11 10h1m-1 1h1m-1 1h1m-9 1h1m2 0h1m4 0h1m-1 1h1m2 0h1m-1 1h1"/><path stroke="#e36e70" d="M12 12h1M2 13h1m1 0h1m5 0h1M1 14h2m1 0h1m2 0h1m4 0h1M1 15h1"/></svg>