<svg xmlns="http://www.w3.org/2000/svg" viewBox="0 -0.5 16 16" shape-rendering="crispEdges"><path stroke="#000" d="M7 3h1M6 4h1m1 0h1M5 5h1m3 0h1M4 6h1m5 0h1M3 7h2m5 0h2M3 8h1m7 0h1M3 9h1m7 0h1m-9 1h1m7 0h1m-8 1h1m5 0h1m-6 1h5"/><path stroke="#25bc00" d="M7 4h1m0 1h1M6 8h2M6 9h1m-1 2h1"/><path stroke="#146800" d="M6 5h2M5 6h1m2 0h1M7 7h1m1 0h1M4 8h1m3 0h3M4 9h2m1 0h1m2 0h1m-5 1h2m1 0h1m-5 1h1m1 0h1m1 0h1"/><path stroke="#0d4400" d="M6 6h2m1 0h1M8 7h1m0 2h1m-6 1h2m4 0h1m-3 1h1"/><path stroke="#1d9100" d="M5 7h2M5 8h1m2 1h1m-1 1h1"/></svg>