<svg xmlns="http://www.w3.org/2000/svg" viewBox="0 -0.5 16 16" shape-rendering="crispEdges"><path stroke="#9f9f94" d="M6 1h1m1 0h1M2 2h1M2 3h1m8 0h1M4 6h1M4 7h1m6 2h1m-9 3h1m0 2h1m8 0h1"/><path stroke="#a6a69b" d="M7 1h1m1 0h1M5 2h1M4 3h1M3 4h1M3 5h1m0 4h1m-2 1h1m-2 3h1m-1 1h1"/><path stroke="#aaaa9f" d="M3 2h1"/><path stroke="#ebebd3" d="M6 2h1m2 0h1M3 3h1m5 0h1m1 1h1M9 5h1m1 0h1M6 6h1M5 7h1m4 0h1M7 8h1M7 9h1m-4 1h2m1 0h1m2 0h2m-7 2h3m1 0h1m1 0h1m-9 1h2m6 0h1"/><path stroke="#f4f4eb" d="M7 2h2M5 3h2m1 0h1m1 0h1M5 4h1m2 0h3M5 5h1m1 0h2m1 0h1M5 6h1m1 0h3M6 7h3M5 8h1m2 0h3M5 9h2m1 0h2m-4 1h1m1 0h1m-5 1h1m1 0h1m1 0h3m-1 1h1"/><path stroke="#95958b" d="M10 2h1m1 0h2m-1 1h1m-2 1h1m-1 1h1m-2 1h1m-1 1h1m-1 1h1m0 2h1m-1 1h1m-1 1h1m-8 1h2m2 0h2m2 0h1M3 14h1m3 0h2m2 0h2"/><path stroke="#f0f0dd" d="M7 3h1m4 0h1M4 4h1m1 0h2M4 5h1m1 0h1m3 1h1M9 7h1M6 8h1m3 1h1m-2 1h1m-5 1h1m1 0h1m3 0h1m-8 1h1m3 0h1m-2 1h2m3 0h1"/><path stroke="#a9a99e" d="M4 8h1m-2 3h1"/></svg>