<svg xmlns="http://www.w3.org/2000/svg" viewBox="0 -0.5 16 16" shape-rendering="crispEdges"><path stroke="#697272" d="M10 2h1M7 3h3M4 4h3M1 5h3m9 0h1M0 6h1m10 0h1M0 7h1m7 0h1m5 0h1M3 8h1m2 0h1m6 0h1M5 9h1m5 0h1m-4 1h2m-4 1h1"/><path stroke="#4b5050" d="M11 2h1m0 1h1m0 1h1m0 1h1m-3 1h2M9 7h3M0 8h1m6 0h2m5 0h1M0 9h1m3 0h1m7 0h3M4 10h1m5 0h2m-8 1h1m2 0h2m-6 1h1m1 0h1"/><path stroke="#eee" d="M10 3h1M7 4h3M4 5h4M2 6h4M1 7h1m1 0h1M1 8h2M2 9h1"/><path stroke="#d6dede" d="M11 3h1m-2 1h1M8 5h1M6 6h1M4 7h1M3 9h1"/><path stroke="#cdd3d3" d="M11 4h1M9 5h2M7 6h1M5 7h1m6 0h1M9 8h1M1 9h1m4 0h2m-5 1h1m1 0h1"/><path stroke="#838f8f" d="M12 4h1M9 6h2M2 7h1m4 0h1m3 1h2M9 9h2M1 10h1m5 0h1m-6 1h1m2 0h1"/><path stroke="#a5b5b5" d="M11 5h2M1 6h1m6 0h1M6 7h1m6 0h1M4 8h2m4 0h1M8 9h1m-7 1h1m3 0h1m-4 1h1"/><path stroke="#333636" d="M14 6h2m-1 1h1m-1 1h1m-1 1h1M0 10h1m11 0h3M1 11h1m7 0h3M2 12h1m1 0h1m1 0h3m-6 1h3"/></svg>