<svg xmlns="http://www.w3.org/2000/svg" viewBox="0 -0.5 16 16" shape-rendering="crispEdges"><path stroke="#697272" d="M6 3h1M5 4h1M4 5h1m1 3h1m4 0h1M8 9h1"/><path stroke="#838f8f" d="M7 3h2m0 1h1m0 1h1m0 1h1M5 7h1m2 0h1m2 0h1m-2 1h1M7 9h1m1 0h1"/><path stroke="#efefef" d="M6 4h3M7 5h3M9 6h2m-1 1h1"/><path stroke="#4b5050" d="M5 5h1M4 6h1m1 0h1m0 1h1m0 1h2m0 1h1m-2 1h1"/><path stroke="#d6dede" d="M6 5h1m1 1h1"/><path stroke="#cdd3d3" d="M5 6h1m0 1h1"/><path stroke="#a5b5b5" d="M7 6h1m1 1h1M7 8h1"/><path stroke="#333636" d="M4 7h1m0 1h1m0 1h1m0 1h2"/></svg>