<svg xmlns="http://www.w3.org/2000/svg" viewBox="0 -0.5 16 16" shape-rendering="crispEdges"><path stroke="#19140c" d="M4 0h2m3 0h2m4 4h1m-1 1h1m-1 2h1M0 8h1m14 0h1M0 9h1m14 0h1M0 10h1m14 0h1m-1 1h1M4 15h1m6 0h1"/><path stroke="#0e0b06" d="M6 0h3m2 0h1M0 5h1M0 6h1m14 0h1M0 7h1m-1 4h1"/><path stroke="#2b2315" d="M3 1h1M1 3h1m12 0h1M1 12h1m1 2h1m8 0h1"/><path stroke="#af7246" d="M4 1h4m2 0h2M7 4h2m5 0h1M1 5h1m2 0h1m9 0h1M1 6h1m12 0h1M1 7h1m2 0h1m2 0h2m5 0h1M1 8h1m2 0h1m2 0h2m2 0h1m2 1h1m-1 1h1M5 11h1m2 0h1m5 0h1M4 14h1m3 0h2m1 0h1"/><path stroke="#ab6e42" d="M8 1h1m2 6h1m-6 7h2m2 0h1"/><path stroke="#ae7144" d="M9 1h1M1 4h1m-1 6h1m-1 1h1m5 0h1"/><path stroke="#2c2316" d="M12 1h1m1 11h1"/><path stroke="#261f12" d="M2 2h1m10 0h1M2 13h1m10 0h1"/><path stroke="#a26b3e" d="M3 2h2m1 0h1m2 0h4m0 1h1m-1 1h1M5 5h1m2 0h1M2 6h1m10 0h1M2 7h1m2 0h1m4 0h1m2 0h1M5 8h1m4 0h1m-9 2h1m2 0h1m1 0h1m2 0h1m2 0h1M2 11h1m-1 1h1m10 0h1M3 13h1m1 0h3m1 0h2"/><path stroke="#a0683b" d="M5 2h1m1 0h1M2 4h1M2 5h1m10 0h1m-1 3h1m-1 1h1m-6 4h1"/><path stroke="#a56e41" d="M8 2h1M2 3h1m10 8h1M4 13h1m6 0h2"/><path stroke="#523521" d="M3 3h1m2 1h1M4 6h1m7 0h1M4 9h1m6 0h1m-6 2h1m2 0h1"/><path stroke="#4d2d19" d="M4 3h1m3 0h1M8 6h1M3 9h1m4 0h1"/><path stroke="#543723" d="M5 3h3m2 0h3M3 4h1m8 0h1M3 5h1m8 0h1M3 6h1m2 0h2m1 0h1M6 7h1m2 0h1m2 0h1M3 8h1m2 0h1m2 0h1m2 0h1M6 9h2m1 0h1m2 0h1m-1 1h1M3 11h1m8 0h1M3 12h2m1 0h7"/><path stroke="#4b2a18" d="M9 3h1M9 4h1m1 2h1m-9 4h1m1 2h1"/><path stroke="#120e09" d="M0 4h1"/><path stroke="#9e5a33" d="M4 4h1m5 0h1m0 1h1m-8 5h1m-1 1h1m5 0h1"/><path stroke="#a35e34" d="M5 4h1"/><path stroke="#b27448" d="M11 4h1m2 4h1M1 9h1m9 1h1m-1 1h1m-7 3h1"/><path stroke="#442414" d="M6 5h1m2 5h1m-4 5h1"/><path stroke="#8e512d" d="M7 5h1m2 0h1m-3 5h1"/><path stroke="#4b311c" d="M9 5h1M5 6h1m4 0h1M5 9h1m4 0h1m-5 1h1"/><path stroke="#583b27" d="M3 7h1"/><path stroke="#985b33" d="M2 8h1"/><path stroke="#8b4d2c" d="M2 9h1"/><path stroke="#502616" d="M5 15h1m1 0h4"/></svg>