<svg xmlns="http://www.w3.org/2000/svg" viewBox="0 -0.5 16 16" shape-rendering="crispEdges"><path stroke="#8f5e26" d="M6 1h4M2 2h2m1 0h1m4 0h1m1 0h2M2 3h1m1 0h1m6 0h1M3 4h1M3 5h1m0 1h1M4 7h1M4 8h1M4 9h1m-2 1h1m-1 1h1m-1 1h1m-2 1h1m-1 1h1"/><path stroke="#c6a061" d="M6 2h1m2 0h1M3 3h1m5 0h1m2 0h1M6 4h1m4 0h1M4 5h1m1 0h1m2 0h1m1 0h1M6 6h1m3 0h1M5 7h1m4 0h1M7 8h1M7 9h1m-4 1h2m1 0h1m1 0h3m-1 1h1m-7 1h5m1 0h1m-9 1h2m2 0h2m2 0h2"/><path stroke="#d8bd85" d="M7 2h2M5 3h4m1 0h1M4 4h2m1 0h4M5 5h1m1 0h2m1 0h1M5 6h1m1 0h3M6 7h4M5 8h2m1 0h3M5 9h2m1 0h3m-5 1h1m1 0h1m-5 1h7m-7 1h1m5 0h1"/><path stroke="#754517" d="M13 3h1m-2 1h1m-1 1h1m-2 1h1m-1 1h1m-1 1h1m-1 1h1m0 1h1m-1 1h1m-1 1h1m-8 1h2m2 0h2m2 0h1M3 14h2m2 0h2m2 0h3"/></svg>