<svg xmlns="http://www.w3.org/2000/svg" viewBox="0 -0.5 16 16" shape-rendering="crispEdges"><path stroke="#803e0d" d="M8 2h2M7 3h1m2 0h1M6 4h1m4 0h1M5 5h1m6 0h1M5 6h1m7 0h1M6 7h1m7 0h1M7 8h1m6 0h1M8 9h1m4 0h1m-5 1h1m2 0h1m-3 1h2"/><path stroke="#b55c22" d="M8 3h1M7 5h1m1 0h2M8 6h3M7 7h5m1 0h1m-2 1h2m-3 1h1m-1 1h1"/><path stroke="#aa571f" d="M9 3h1M7 4h2m1 0h1M6 5h1m4 0h1M6 6h1m4 0h2M8 8h3M9 9h1m2 0h1m-3 1h1"/><path stroke="#925219" d="M9 4h1M8 5h1M7 6h1m4 1h1m-2 1h1M7 9h1m2 0h1m-8 4h1"/><path stroke="#473413" d="M6 9h1m-2 1h1m-2 1h1m-2 1h1m-2 1h1"/><path stroke="#664c1c" d="M6 10h1m-2 1h1m-2 1h1m-3 2h1"/><path stroke="#261c0b" d="M7 10h1m-2 1h1m-2 1h1m-2 1h1m-2 1h1"/></svg>