<svg xmlns="http://www.w3.org/2000/svg" viewBox="0 -0.5 16 16" shape-rendering="crispEdges"><path stroke="#723b16" d="M5 1h4M4 2h1m5 0h2M3 3h2M2 4h1M2 5h1M2 6h1M2 7h1M1 8h1M1 9h1m-1 1h1"/><path stroke="#a95720" d="M5 2h4M5 3h7M3 4h10M5 5h7M5 6h6M3 7h1m2 0h3M3 8h1m3 0h1M4 9h1m0 1h1m0 1h1"/><path stroke="#571a00" d="M9 2h1m2 1h1m0 1h1m0 1h1m-1 1h1m-1 1h1m-1 1h1m-2 1h2m-3 1h2M1 11h1m8 0h3M2 12h1m5 0h4m-9 1h1m1 0h5m-6 1h3"/><path stroke="#9e4c15" d="M3 5h2M4 6h1m0 1h1M2 8h1m2 0h2M3 9h1m2 0h1m-5 1h1m1 0h1m-2 1h1m1 0h1m-2 1h1"/><path stroke="#8d3c05" d="M12 5h2m-3 1h2M9 7h3m1 0h1M8 8h1m3 0h1M9 9h3m-5 1h2m0 1h1m-4 1h2"/><path stroke="#843200" d="M3 6h1m9 0h1M4 7h1m7 0h1M4 8h1m4 0h3M2 9h1m2 0h1m1 0h2m-6 1h1m2 0h1m-5 1h1m1 0h1m-2 1h1m1 0h1"/><path stroke="#762500" d="M13 8h1m-2 1h1m-4 1h3m-5 1h2m-5 2h1"/></svg>