<svg xmlns="http://www.w3.org/2000/svg" viewBox="0 -0.5 16 16" shape-rendering="crispEdges"><path stroke="#d72828" d="M4 3h8M2 4h6m2 0h1M3 5h3"/><path stroke="#f48f8f" d="M8 4h2M2 5h1m5 0h2m3 0h1M3 6h2m6 0h2M5 7h6m-3 5h1"/><path stroke="#f53b3b" d="M11 4h3M6 5h2m2 0h3M5 6h6"/><path stroke="#cb2323" d="M1 5h1M1 6h2M2 7h3M3 8h2m5 0h1M4 9h2m3 0h1m-5 1h1m3 0h1m-4 1h1m1 0h1"/><path stroke="#821313" d="M14 5h1m-2 1h2M1 7h1m9 0h3M2 8h1m8 0h2M3 9h1m6 0h2m-8 1h1m5 0h1m-6 1h1m3 0h1m-4 1h1m0 1h1"/><path stroke="#b22222" d="M14 7h1M5 8h5m3 0h1M6 9h3m3 0h1m-7 1h3m2 0h1m-5 1h1m2 0h1m-4 1h1m1 0h1m-2 1h1"/><path stroke="#570909" d="M1 8h1m12 0h1M2 9h1m10 0h1M3 10h1m8 0h1m-9 1h1m6 0h1m-7 1h1m4 0h1m-5 1h1m2 0h1m-3 1h2"/></svg>