<svg xmlns="http://www.w3.org/2000/svg" viewBox="0 -0.5 16 16" shape-rendering="crispEdges"><path stroke="#d0aa97" d="M6 1h2m1 0h1M3 3h2m6 0h1M3 5h2m4 0h1m1 0h1M4 6h1m5 0h1M4 8h1m5 2h1m-8 1h1m7 0h1m-7 1h1m1 0h1m-6 1h1m9 0h1M2 14h1"/><path stroke="#b36949" d="M8 1h1M2 2h2m1 0h1m7 0h1M2 3h1m1 4h1M4 9h1m-2 1h1m-1 2h1"/><path stroke="#c57250" d="M6 2h1m2 0h1M9 3h1m2 0h1M6 4h1m4 0h1M6 6h1M5 7h1m4 0h1M7 8h1M7 9h1m-4 1h2m1 0h1m1 0h1m1 0h1m-6 2h1m1 0h2m1 0h1m-9 1h2m2 0h2m2 0h1"/><path stroke="#e2d0c6" d="M7 2h1m4 0h1M6 3h1M5 4h1m0 1h1m1 0h1M7 6h1M6 9h1m-3 2h1m1 0h1m1 0h1"/><path stroke="#e3bea8" d="M8 2h1M8 3h1m1 1h1M7 5h1M5 6h1m0 1h4M5 8h2m3 0h1M5 9h1m2 0h2m-4 1h1m1 0h1m0 1h1m-6 1h1m5 0h1"/><path stroke="#c9bcb7" d="M10 2h1M3 4h1m8 0h1m-7 9h1m-3 1h1"/><path stroke="#e1976b" d="M5 3h1m1 0h1m2 0h1M4 4h1m2 0h3M5 5h1m4 0h1M8 6h2M8 8h2m0 1h1m-6 2h1m1 0h1m2 0h1"/><path stroke="#b09488" d="M13 3h1m-3 3h1m-1 3h1m0 2h1"/><path stroke="#7c4734" d="M12 5h1m-2 2h1m-1 1h1m0 2h1m-1 2h1m-8 1h1m3 0h2m2 0h1M3 14h1m3 0h2m2 0h3"/></svg>