<svg xmlns="http://www.w3.org/2000/svg" viewBox="0 -0.5 16 16" shape-rendering="crispEdges"><path stroke="#e7e2df" d="M6 4h2m2 1h1M4 6h1m6 2h1m-1 1h1"/><path stroke="#cfcac7" d="M8 4h1M5 5h1m0 1h1M3 7h1m2 1h1m3 1h1m-2 1h1"/><path stroke="#beb9b6" d="M9 4h1m1 2h1"/><path stroke="#fffdfc" d="M6 5h4M7 6h3M6 7h2M5 9h1"/><path stroke="#ddd8d5" d="M5 6h1M5 7h1m2 0h1M4 8h1m2 0h2m0 1h1m-3 1h2"/><path stroke="#a8a3a0" d="M10 6h1m1 1h1m-1 1h1M3 9h1m1 1h1m4 0h1"/><path stroke="#f8f3f0" d="M4 7h1m4 0h2M5 8h1m3 0h1M7 9h2m-3 1h1"/><path stroke="#c8c3c0" d="M11 7h1M4 9h1m1 0h1"/><path stroke="#9d9895" d="M3 8h1m0 2h1m2 1h1"/><path stroke="#d2cdca" d="M10 8h1"/><path stroke="#847f7c" d="M12 9h1m-2 1h1m-6 1h1m1 0h2"/></svg>