<svg xmlns="http://www.w3.org/2000/svg" viewBox="0 -0.5 16 16" shape-rendering="crispEdges"><path stroke="#767248" d="M8 2h2M7 3h1m2 0h1M6 4h1m4 0h1M5 5h1m6 0h1M5 6h1m7 0h1M6 7h1m7 0h1M7 8h1m6 0h1M8 9h1m4 0h1m-5 1h1m2 0h1m-3 1h2"/><path stroke="#ede4b7" d="M8 3h1M7 5h1m0 2h3m1 1h2"/><path stroke="#e2daad" d="M9 3h1M7 4h1m2 0h1M9 5h2M6 6h1m1 0h5m-2 1h1m-2 1h1M9 9h1m1 0h2"/><path stroke="#dad3a1" d="M8 4h1M6 5h1m4 0h1M8 8h2m0 2h1"/><path stroke="#bfb771" d="M9 4h1M8 5h1M7 6h1m4 1h1m-2 1h1m-2 1h1"/><path stroke="#c8c284" d="M7 7h1m5 0h1m-3 3h1"/><path stroke="#473413" d="M6 9h1m-2 1h1m-2 1h1m-2 1h1m-2 1h1"/><path stroke="#876525" d="M7 9h1m-5 4h1"/><path stroke="#664c1c" d="M6 10h1m-2 1h1m-2 1h1m-3 2h1"/><path stroke="#261c0b" d="M7 10h1m-2 1h1m-2 1h1m-2 1h1m-2 1h1"/></svg>