<svg xmlns="http://www.w3.org/2000/svg" viewBox="0 -0.5 16 16" shape-rendering="crispEdges"><path stroke="#ada682" d="M5 1h4M4 2h1m5 0h2M3 3h2M2 4h1M2 5h1M2 6h1M2 7h1M1 8h1M1 9h1m-1 1h1"/><path stroke="#f3ebb6" d="M5 2h1m1 0h2M5 3h3m1 0h3M3 4h1m1 0h5m1 0h2M5 5h1m1 0h1m1 0h3M5 6h5M7 7h2"/><path stroke="#f5e9a1" d="M6 2h1m1 1h1M4 4h1m5 0h1M6 5h1m1 0h1m1 1h1M6 7h1m0 1h1"/><path stroke="#877e5b" d="M9 2h1m2 1h1m0 1h1m0 1h1m-1 1h1m-1 1h1m-1 1h1m-1 1h1m-2 1h1M1 11h1m10 0h1M2 12h1m7 0h2m-9 1h1m3 0h3m-6 1h3"/><path stroke="#ebe1af" d="M3 5h1m0 1h1M3 7h1m1 0h1M3 8h1m1 0h1M4 9h1m1 0h1m-2 1h1m0 1h1"/><path stroke="#ded6a8" d="M4 5h1M2 8h1m3 0h1M3 9h1m-2 1h1m1 0h1m-3 1h2m1 0h1m-2 1h1"/><path stroke="#d5c68c" d="M12 5h2m-3 1h2M9 7h3m1 0h1M8 8h1m3 0h1M9 9h3m-5 1h2m0 1h1m-4 1h2"/><path stroke="#c5bd95" d="M3 6h1m0 1h1M4 8h1M2 9h1m2 0h1m-3 1h1m2 0h1m-3 1h1m-2 1h1m1 0h1"/><path stroke="#c9bc86" d="M13 6h1m-2 1h1M9 8h3M7 9h2"/><path stroke="#baae7d" d="M13 8h1m-2 1h1m-4 1h3m-5 1h2m-5 2h1"/><path stroke="#a59b70" d="M13 9h1m-2 1h1m-3 1h2m-4 1h2m-5 1h2"/></svg>