<svg xmlns="http://www.w3.org/2000/svg" viewBox="0 -0.5 16 16" shape-rendering="crispEdges"><path stroke="#d3d3d3" d="M10 3h1M7 4h1m1 0h1m2 0h1M6 5h1m1 0h1m3 0h2M4 6h1m2 0h1M5 7h2M3 8h1m3 0h1M2 9h1m3 0h1m-4 1h1m1 0h2m-5 1h1m3 1h1m-3 1h1m-1 1h1"/><path stroke="#fff" d="M10 4h2M7 5h1M6 6h1M4 7h1M4 8h1M3 9h2m2 0h1m-6 1h1m2 1h2m-3 1h2"/><path stroke="#bdbec0" d="M9 5h1M8 7h1M5 8h1m3 2h1m-9 1h1m2 0h1m-4 1h2m0 1h1"/><path stroke="#969696" d="M10 5h2M8 6h2M7 7h1M6 8h1M5 9h1m-2 1h1m-2 1h1m-1 1h1m-2 1h1m-1 1h1m-1 1h1"/><path stroke="#40454a" d="M10 6h2M9 7h1m2 0h1M8 8h1m4 0h1M8 9h1m4 0h1m-7 1h1m6 0h1m-8 1h1m1 0h1m2 0h1m1 0h1m-8 1h1m3 0h4m-8 1h2m1 0h3m1 0h1m-8 1h2m5 0h1m-7 1h6"/><path stroke="#b19488" d="M10 7h1"/><path stroke="#616870" d="M11 7h1m0 1h1m-5 2h1m4 0h1m-6 1h1"/><path stroke="#7d93a6" d="M9 8h1m1 0h1m-1 2h2"/><path stroke="#c6d3de" d="M10 8h1m-1 2h1"/><path stroke="#515c65" d="M9 9h1m2 0h1m0 2h1m-6 1h1m4 1h1m-1 1h1"/><path stroke="#6a7c8b" d="M10 9h2"/><path stroke="#3a3e42" d="M10 11h2m-3 1h2m-2 1h1m-1 1h4"/></svg>