<svg xmlns="http://www.w3.org/2000/svg" viewBox="0 -0.5 16 16" shape-rendering="crispEdges"><path stroke="#c2a995" d="M7 0h1M1 1h1M1 2h1m1 0h1m4 0h1m3 0h1M3 3h3m4 0h2M3 4h1m1 0h1m1 0h2m2 0h1M4 5h1m3 0h2m1 0h1M3 6h2m2 0h1m3 0h1M6 7h1M4 8h3M3 9h4m-2 1h2m2 0h2m-8 1h2m1 0h1m-2 1h2m1 0h1m2 0h1M2 13h5m-5 1h1m1 0h1m-4 1h1"/><path stroke="#b1937c" d="M8 0h1m5 1h1M6 2h1m6 2h1M9 8h2M9 9h1m-2 1h1m2 0h1m-3 3h3m-1 1h1"/><path stroke="#b59882" d="M2 1h1m4 0h1m5 0h1m-1 1h2M4 4h1m4 0h1m2 0h1m0 1h1M6 6h1m1 0h1M5 7h1m4 0h2M7 8h1M7 9h1m-5 1h1m4 1h1m1 0h2m-2 1h1m-3 1h1m-1 1h1"/><path stroke="#bda18c" d="M6 1h1m1 0h2M5 2h1m1 0h1m1 0h1M2 3h1m9 0h2M3 5h1m6 0h1M5 6h1m3 0h2m1 0h1M7 7h3M8 8h1m2 0h1m-5 2h1m4 0h1m-6 1h1m1 0h1m-3 2h1m5 0h1M3 14h1m3 0h1m4 0h1M2 15h1"/><path stroke="#c7af9d" d="M2 2h1m3 1h2m1 0h1M6 4h1m3 0h1M5 5h3m4 0h1M8 9h1m1 0h1m-6 2h1m-4 1h1m1 0h1"/><path stroke="#cbcbcb" d="M10 2h1M1 14h1"/><path stroke="#ceb6a3" d="M8 3h1M2 4h1m1 3h1m-3 4h1m0 1h1m3 0h1"/><path stroke="#a8866d" d="M11 9h2m-9 1h1m7 1h2m-5 1h1m2 0h2m-2 1h1m0 1h2m-2 1h2"/></svg>