<svg xmlns="http://www.w3.org/2000/svg" viewBox="0 -0.5 16 16" shape-rendering="crispEdges"><path stroke="#353535" d="M5 1h6M3 2h1m8 0h1M2 3h1m10 0h1M2 4h1m10 0h1M2 5h3m6 0h3M2 6h1m3 0h2m5 0h1M2 7h1m10 0h1M2 8h1m10 0h1M2 9h1m10 0h1M2 10h1m10 0h1M3 11h1m8 0h1M3 12h1m8 0h1m-9 1h1m6 0h1m-7 1h6"/><path stroke="#549a50" d="M4 2h2m4 0h2M4 3h1m6 0h1M4 4h1m6 0h1m-2 3h1m-1 1h1m0 1h1"/><path stroke="#62a95f" d="M6 2h4M7 5h2m0 2h1M9 9h1m-1 1h1"/><path stroke="#727272" d="M3 3h1m8 0h1m-2 3h1m-1 1h1m-1 1h1m-2 1h1m-8 1h1m6 0h2m-2 1h1m-1 1h1m-2 1h1"/><path stroke="#62b774" d="M5 3h1m3 0h2M7 4h2M5 7h1m1 0h1m1 1h1"/><path stroke="#a9d7ae" d="M6 3h3"/><path stroke="#4d634c" d="M3 4h1m8 0h1M5 6h1m2 0h3"/><path stroke="#13210e" d="M5 4h2m2 0h2M5 5h2m2 0h2"/><path stroke="#d8d8d8" d="M3 6h1M3 7h2m1 0h1M3 8h2m1 0h1M4 9h1m1 0h1m-3 1h1m1 0h1m-3 1h3m-2 1h2m-1 1h1"/><path stroke="#a8a8a8" d="M4 6h1m3 1h1M7 8h2m3 0h1M3 9h1m3 0h2m3 0h1m-6 1h2m-2 1h2m-5 1h1m2 0h1m-3 1h1m1 0h1"/><path stroke="#969696" d="M12 6h1m-1 1h1m-1 3h1m-4 1h1m1 0h1m-4 1h2m1 0h1m-4 1h1m1 0h1"/><path stroke="#fff" d="M5 8h1M5 9h1m-1 1h1"/></svg>