<svg xmlns="http://www.w3.org/2000/svg" viewBox="0 -0.5 16 16" shape-rendering="crispEdges"><path stroke="#a1e68d" d="M4 3h2M2 4h2m7 0h1M1 5h1M0 6h1m0 3h1"/><path stroke="#42733d" d="M6 3h1m4 2h1M1 7h1M0 8h1M0 9h1m0 1h1m0 1h2m6 0h1m-2 1h1"/><path stroke="#395f35" d="M7 3h1m5 0h2M6 4h1m1 0h1m3 0h1m1 0h1M6 5h1m1 0h1M7 6h1m1 0h2m2 0h1M7 7h1m5 0h1M7 8h1m4 0h1M6 9h1m-2 1h1m-2 1h1m3 2h2"/><path stroke="#92d688" d="M12 3h1m0 1h1M7 5h1m0 1h1m3 0h1M0 7h1m9 0h2M2 10h2"/><path stroke="#62a659" d="M4 4h2M2 5h2m6 0h1M1 6h1m6 1h1M6 8h1m2 0h1m1 0h1M5 9h1m4 0h1m-7 1h1m5 0h1m-2 1h1"/><path stroke="#daf0d6" d="M7 4h1"/><path stroke="#34532f" d="M12 5h1m1 0h1m-4 1h1M8 8h1m0 1h1m-1 1h1m-2 1h1m-1 1h1"/><path stroke="#71ac63" d="M13 5h1M9 7h1m2 0h1m-3 1h1"/><path stroke="#22381e" d="M11 9h1m-1 1h1m-1 1h1m-2 1h1m-4 1h1m2 0h1m-4 1h3"/></svg>