<svg xmlns="http://www.w3.org/2000/svg" viewBox="0 -0.5 16 16" shape-rendering="crispEdges"><path stroke="#69b352" d="M4 3h2m4 0h2M3 4h1M3 5h1m-1 6h1"/><path stroke="#50913c" d="M6 3h4m2 1h1m-1 1h1M3 6h1m8 0h1M3 7h1m8 0h1M3 8h1m8 0h1M3 9h1m8 0h1M3 10h1m8 0h1m-1 1h1m-9 1h8"/><path stroke="#7bc764" d="M4 4h2m3 2h1m0 3h2m-8 1h1m6 0h1m-8 1h1"/><path stroke="#97f37b" d="M6 4h1m4 0h1M5 5h2m3 1h1M5 8h3M6 9h1m-1 1h4m-2 1h2"/><path stroke="#90e477" d="M7 4h4m-1 1h2m-1 1h1m-1 1h1m-1 1h1"/><path stroke="#7dd761" d="M4 5h1m2 0h3M4 6h1m2 0h2M4 7h1m2 0h2M4 8h1m3 0h1M4 9h2m2 0h2m-5 1h1m4 0h1m-6 1h3m2 0h2"/><path stroke="#162710" d="M5 6h2M5 7h2m2 0h2M9 8h2M7 9h1"/></svg>