<svg xmlns="http://www.w3.org/2000/svg" viewBox="0 -0.5 16 16" shape-rendering="crispEdges"><path stroke="#213151" d="M3 1h2M2 2h1m2 0h4M1 3h1m1 0h2m4 0h1M0 4h1m1 0h1m1 0h1m5 0h1M0 5h1m1 0h1m7 0h1M0 6h1m9 0h2M1 7h1m7 1h1m2 0h1M9 9h1m2 0h1m-3 2h2"/><path stroke="#73c260" d="M3 2h1M2 3h1m3 0h1M1 4h1m4 0h2m1 1h1m1 3h1"/><path stroke="#4b7b3f" d="M4 2h1m3 1h1M5 4h1M5 5h1m2 0h1M1 6h1m5 0h1m3 1h1m-2 2h2m-1 1h1"/><path stroke="#5faa49" d="M5 3h1m1 0h1m0 1h2M1 5h1m4 0h2M6 6h1m1 0h1m1 1h1m-1 1h1m-1 2h1"/><path stroke="#323232" d="M3 5h2M2 6h1m2 0h1m3 0h1m5 0h1M2 7h1m3 0h4m2 0h2m1 0h1M3 8h1m11 0h1M3 9h1m10 0h2M4 10h1m2 0h3m2 0h2M4 11h1m1 0h2m-5 1h1m2 0h1m1 0h2m-7 1h3"/><path stroke="#707769" d="M3 6h1m0 1h1m0 1h1m2 0h1m4 1h1M4 12h1"/><path stroke="#96a08e" d="M4 6h1m0 1h1m8 0h1m-2 1h1M5 9h2m1 0h1m-4 3h1"/><path stroke="#4a5442" d="M3 7h1m0 1h1M4 9h1m2 0h1m-3 1h2m-2 1h1"/><path stroke="#bbb" d="M6 8h2m6 0h1"/></svg>