<svg xmlns="http://www.w3.org/2000/svg" viewBox="0 -0.5 16 16" shape-rendering="crispEdges"><path stroke="#0d321b" d="M10 0h1M8 1h1m2 0h1M8 2h1m2 0h1M6 4h1M5 5h1m0 1h1m6 0h1M3 7h1m1 0h1m7 1h1M2 9h1m1 0h1m7 0h1m-2 1h1m-4 1h1m3 0h1m-4 2h1m-2 1h1"/><path stroke="#17502d" d="M9 1h2m3 0h1m-2 1h3M5 3h1m2 0h1m1 0h1m3 0h1M4 4h2m1 0h1m0 1h1M4 6h1m7 0h1m1 0h1m-4 1h1m1 0h2M2 8h2m1 0h1M5 9h1m5 0h1m-8 1h1m5 0h1m1 0h1m-4 1h1m1 1h1m-2 1h2m-5 1h1m1 0h2m-3 1h1"/><path stroke="#2e1704" d="M9 2h2M9 3h1m1 1h1m1 0h1M6 5h2m1 0h2m1 0h1M7 6h3m1 0h1M4 7h1m2 0h2m1 0h1m1 0h1M4 8h1m2 0h1m2 0h3M3 9h1m2 0h1m-2 1h1m-3 1h2m1 0h1m3 0h1m-6 1h1m3 0h2m-7 1h1m2 0h2"/><path stroke="#0d0100" d="M12 3h1M9 4h1M9 8h1M8 9h1m-6 1h1m3 0h1m3 1h1m-9 1h1m4 0h1m-7 1h1m-1 1h2"/><path stroke="#573312" d="M13 3h1m-2 1h1m-2 1h1m-2 1h1M9 7h1M8 8h1M7 9h1m-2 1h1m-2 1h1m-2 1h1m1 0h2m-5 1h1"/><path stroke="rgba(15,27,15,0.32941176470588235)" d="M5 6h1"/></svg>