<svg xmlns="http://www.w3.org/2000/svg" viewBox="0 -0.5 16 16" shape-rendering="crispEdges"><path stroke="#50361a" d="M8 2h1M8 3h1m2 0h1M8 7h1"/><path stroke="#130803" d="M9 2h1M6 3h1m2 0h1M9 5h1M7 6h1m1 0h1M2 7h1m2 0h1m5 1h1m-4 2h1m2 1h1m-1 1h1"/><path stroke="#2f1e0b" d="M7 3h1m2 0h1M5 5h1m4 0h1M6 6h1M6 8h1m1 0h1"/><path stroke="#3b2713" d="M4 4h2m7 1h1m-4 1h1m-1 1h1m2 0h1M1 10h1"/><path stroke="#2e1d0a" d="M7 4h1M3 9h1m0 1h1m-2 1h1m6 2h1"/><path stroke="#33230f" d="M8 4h1m-2 9h1"/><path stroke="#140a04" d="M9 4h1M7 7h1M5 8h1m1 0h1m1 0h1M6 9h1m4 0h1M2 10h1m8 0h1M2 11h1m3 0h1m1 1h1"/><path stroke="#301f0c" d="M10 4h1M7 5h1M7 9h2m-6 1h1m8 0h1m-6 2h1"/><path stroke="#52371c" d="M11 4h1M4 5h1m1 2h1m-2 4h1m1 0h1m-3 1h1"/><path stroke="#2d1c09" d="M3 5h1m2 0h1m5 2h1"/><path stroke="#31210d" d="M8 5h1M3 6h1M3 7h1m8 1h2m-2 1h1m-9 3h1"/><path stroke="#4a3014" d="M11 5h1"/><path stroke="#4f3519" d="M4 6h1m5 6h1"/><path stroke="#2b1907" d="M5 6h1"/><path stroke="#4a3116" d="M8 6h1"/><path stroke="#241606" d="M11 6h1"/><path stroke="#0f0403" d="M12 6h1"/><path stroke="#53381d" d="M4 7h1"/><path stroke="#110603" d="M9 7h1M9 9h1m-4 1h1"/><path stroke="#1d1005" d="M11 7h1m-6 6h1"/><path stroke="#342310" d="M3 8h1"/><path stroke="#4d3317" d="M4 8h1m5 0h1M5 9h1"/><path stroke="#32210e" d="M4 9h1"/><path stroke="#4e3418" d="M10 9h1m-6 1h1"/><path stroke="#2b1a07" d="M7 10h1"/><path stroke="#291909" d="M9 10h1m-1 1h1"/><path stroke="#553a1f" d="M10 10h1"/><path stroke="#322210" d="M4 11h1"/><path stroke="#0f0503" d="M8 11h1m-3 1h1"/><path stroke="#54391e" d="M10 11h1"/><path stroke="#2c1b08" d="M9 12h1"/></svg>