<svg xmlns="http://www.w3.org/2000/svg" viewBox="0 -0.5 16 16" shape-rendering="crispEdges"><path stroke="#4f4f4f" d="M6 2h2M4 3h1m3 0h3M3 4h2m6 0h2M2 5h1M1 6h1m11 0h1M1 7h1m8 0h1M1 8h1m8 0h1m3 0h1m-4 1h2m1 0h1M2 10h1m9 0h1M3 11h1m7 0h1m-7 1h1m3 0h2m-3 1h1"/><path stroke="#424242" d="M5 3h1m6 2h1m-2 2h1m1 0h1m-3 1h2M2 9h1m10 0h1m-1 1h1M4 11h1m5 0h1m1 0h2m-8 1h2m3 0h2m-4 1h2"/><path stroke="#878787" d="M6 3h2M6 4h2m0 2h3M8 7h2M7 8h1M5 9h2m1 0h1m-4 1h1"/><path stroke="#787878" d="M5 4h1m2 0h1M3 5h3m1 0h1M2 6h3m1 0h1M2 7h4M2 8h3m3 0h1M3 9h1m3 0h1m-2 1h2m-3 1h3"/><path stroke="#5d5d5d" d="M9 4h2m-1 1h2m-1 1h2m-1 1h1m0 1h1m-6 2h1m1 0h2m-3 1h1m-2 1h1"/><path stroke="#696969" d="M6 5h1m1 0h2M5 6h1m1 0h1M6 7h2M5 8h2m2 0h1M4 9h1m4 0h2m-8 1h2m4 0h1m-2 1h1"/></svg>