<svg xmlns="http://www.w3.org/2000/svg" viewBox="0 -0.5 16 16" shape-rendering="crispEdges"><path stroke="#30444e" d="M6 2h4M4 3h2m4 0h2M3 4h1m8 0h1M2 5h1m10 0h1M2 6h1M1 7h1M1 8h1M1 9h1m-1 1h1"/><path stroke="#d7ebee" d="M6 3h4M4 4h2m4 0h2M3 5h1M3 6h1m8 0h1M2 7h1M2 8h1M2 9h1m5 0h1m-7 1h1m4 0h3m3 0h1M3 11h1m2 0h4m2 0h1M2 12h1m0 1h1"/><path stroke="#6e6e6e" d="M6 4h2m1 0h1M6 5h2m1 0h1M7 6h1M7 7h1"/><path stroke="#ccbf8e" d="M8 4h1M8 5h1"/><path stroke="#627799" d="M4 5h2M4 6h2"/><path stroke="#8f4f40" d="M10 5h2m-1 1h1"/><path stroke="#fefefe" d="M12 5h1m0 2h1m-1 1h1M7 9h1m5 0h1M3 10h1m2 0h1m5 0h1m-9 1h2m4 0h2m-8 2h1"/><path stroke="#7b95c0" d="M6 6h1M5 7h2M6 8h2"/><path stroke="#ffefb2" d="M8 6h1M8 7h1M8 8h1"/><path stroke="#b36350" d="M9 6h2M9 7h2M9 8h1"/><path stroke="#1c2c34" d="M13 6h1m0 1h1m-1 1h1m-1 1h1m-1 1h1M1 11h1m12 0h1M1 12h1m12 0h1M2 13h1m10 0h1M3 14h10"/><path stroke="#5f87cc" d="M3 7h2M3 8h2M3 9h2m-1 1h2"/><path stroke="#e54720" d="M11 7h1m-2 1h2m-2 1h2"/><path stroke="#b73819" d="M12 7h1m-1 1h1M9 9h1m2 0h1m-3 1h2"/><path stroke="#77a9ff" d="M5 8h1M5 9h2"/><path stroke="#596f7b" d="M2 11h1m10 0h1M3 12h10"/><path stroke="#9eb4be" d="M13 12h1m-3 1h2"/><path stroke="#c2cfd1" d="M5 13h6"/></svg>