<svg xmlns="http://www.w3.org/2000/svg" viewBox="0 -0.5 16 16" shape-rendering="crispEdges"><path stroke="#353535" d="M5 1h6M3 2h2m6 0h2M2 3h1m10 0h1M2 4h1m10 0h1M2 5h3m6 0h3M2 6h1m2 0h5m3 0h1M2 7h1m10 0h1M2 8h1m10 0h1M2 9h1m10 0h1M2 10h1m10 0h1M3 11h1m8 0h1M3 12h1m8 0h1m-9 1h1m6 0h1m-7 1h6"/><path stroke="#727272" d="M5 2h1M3 3h1m8 0h1m-2 3h1m-1 1h1m-2 1h2m-1 1h1m-9 1h1m6 0h2m-2 1h1m-1 1h1m-2 1h1"/><path stroke="#969696" d="M6 2h3m3 4h1M9 7h1M9 8h1M9 9h1m-1 1h1m2 0h1m-4 1h1m1 0h1m-4 1h2m1 0h1m-4 1h1m1 0h1"/><path stroke="#a8a8a8" d="M9 2h2M4 6h1m2 1h2m3 0h1M7 8h2m3 0h1M3 9h1m3 0h2m3 0h1m-6 1h2m-2 1h2m-5 1h1m2 0h1m-3 1h1m1 0h1"/><path stroke="#bebdbd" d="M4 3h1M3 4h1m6 1h1"/><path stroke="#d6d6d6" d="M5 3h1m4 0h1M4 4h1m6 0h2M5 5h1m1 0h1M3 6h1M3 7h4M3 8h2m1 0h1M4 9h1m1 0h1m3 0h1m-7 1h1m1 0h1m-3 1h3m-2 1h2m-1 1h1"/><path stroke="#e8e8e8" d="M6 3h1m2 0h1m1 0h1M7 4h1m2 0h1M8 5h2m0 2h1"/><path stroke="#fff" d="M7 3h2M5 4h2m1 0h2M6 5h1m3 1h1M5 8h1M5 9h1m-1 1h1"/></svg>