<svg xmlns="http://www.w3.org/2000/svg" viewBox="0 -0.5 16 16" shape-rendering="crispEdges"><path stroke="#494949" d="M8 2h2m0 1h1M2 8h1M2 9h1m5 2h1"/><path stroke="#545454" d="M6 3h2m1 0h1M5 4h1M4 5h1M3 6h1M3 7h1m1 1h2m4 0h1M7 9h2m1 1h1m-4 1h1"/><path stroke="#8b8b8b" d="M8 3h1m0 1h1M5 7h2m1 0h1"/><path stroke="#989898" d="M6 4h1m3 0h1M7 5h1M5 6h1m2 0h1"/><path stroke="#aaa" d="M7 4h1M5 5h1M4 6h1m1 0h1M4 7h1"/><path stroke="#636363" d="M8 4h1M8 5h1M7 6h1M7 7h1M3 8h1m4 0h1M4 9h1m6 0h1m-6 2h1"/><path stroke="#3e3e3e" d="M11 4h1m0 3h1m-4 4h2m-5 1h1"/><path stroke="#d7cfa9" d="M12 4h1M6 5h1m3 0h2M9 6h1m1 0h1M5 9h1m-2 1h1m3 0h1"/><path stroke="#aea374" d="M13 4h1m-2 1h1M6 9h1m-2 1h1m3 0h1"/><path stroke="#6d6d6d" d="M9 5h1M7 8h1m1 0h1M9 9h2m-4 1h1"/><path stroke="#8b8053" d="M13 5h1m-2 1h1M9 7h3m-6 3h1m-3 1h2"/><path stroke="#a4996a" d="M10 6h1"/><path stroke="#7c7c7c" d="M4 8h1m5 0h1M3 9h1"/><path stroke="#3b3b3b" d="M12 8h1m-2 2h1m-5 2h2"/><path stroke="#414141" d="M12 9h1M3 10h1"/></svg>