<svg xmlns="http://www.w3.org/2000/svg" viewBox="0 -0.5 16 16" shape-rendering="crispEdges"><path stroke="#959595" d="M10 2h2M7 3h3M4 4h3M1 5h3M0 6h1M0 7h1M0 8h1M0 9h1m-1 1h1m0 1h1m0 1h1m3 0h1m-4 1h2"/><path stroke="#bababa" d="M10 3h2M7 4h1m4 0h1M4 5h1m8 0h1M1 7h1m12 0h1M1 8h2m11 0h1M1 9h3m8 0h3M2 10h2m6 0h2m-9 1h1m0 1h1"/><path stroke="#a2a2a2" d="M12 3h1m0 1h1m0 1h1m0 1h1m-3 1h1m-4 1h4M7 9h5M1 10h1m3 0h5m2 0h1M2 11h1m2 0h5m-7 1h1m1 0h1"/><path stroke="#d1d1d1" d="M8 4h4M5 5h8M2 6h10m2 0h1M3 7h6m3 0h1M4 8h2m3 0h1M6 9h1m-3 1h1m-1 1h1"/><path stroke="#e5e5e5" d="M1 6h1m10 0h2M2 7h1m6 0h3M3 8h1m2 0h3M4 9h2"/><path stroke="gray" d="M15 7h1m-1 1h1m-1 1h1m-3 1h2m-5 1h3m-6 1h3m-5 1h2"/></svg>