<svg xmlns="http://www.w3.org/2000/svg" viewBox="0 -0.5 16 16" shape-rendering="crispEdges"><path stroke="#979e68" d="M10 1h1M9 3h1m1 1h1M3 6h1m9 0h1M6 7h1m1 0h1M2 8h1m7 0h1m3 0h1M6 9h1m5 0h1m-9 1h1m9 0h1m-9 1h1m1 0h1m1 0h1m1 1h1m-3 1h1"/><path stroke="#cbcc90" d="M9 2h1m1 0h1m-2 2h1M4 5h1m7 0h1M2 7h1m4 0h1m1 0h1m4 0h1M5 8h1m5 0h1M3 9h1m10 0h1M5 10h1m5 0h1m-5 1h1m1 0h1m3 0h1m-5 2h1m1 0h1"/><path stroke="#50523f" d="M10 2h1m0 1h1M9 4h1m0 1h2M4 6h1m7 0h1M3 7h1m9 0h1M6 8h4M2 9h1m2 0h1m4 0h2m-9 1h1m2 0h2m4 0h1m-9 1h2m5 0h1m2 0h1m-9 1h5m2 0h1m-6 1h1m3 0h1m-4 1h3"/></svg>