<svg xmlns="http://www.w3.org/2000/svg" viewBox="0 -0.5 16 16" shape-rendering="crispEdges"><path stroke="#4c3d26" d="M3 8h1m8 0h1M2 9h1m-2 1h2m-2 1h1m-1 1h1m2 0h2m5 0h2M1 13h1"/><path stroke="#59462b" d="M4 8h3m2 0h3M7 9h2m-2 1h2m-7 1h1m3 0h1m6 0h1M3 12h1m6 0h1m-3 1h3"/><path stroke="#bd9860" d="M3 9h3m4 0h3M3 10h1m1 0h1m4 0h1m1 0h1M3 11h2m5 0h2"/><path stroke="#c96c03" d="M6 9h1m2 0h1"/><path stroke="#362b1b" d="M13 9h1m-1 1h2m-1 1h1m-1 1h1m-1 1h1M1 14h14"/><path stroke="#967645" d="M4 10h1m6 0h1m-7 1h1m3 0h1m2 0h1m-6 1h2m-7 1h2m2 0h1m6 0h1"/><path stroke="#b13f00" d="M6 10h1m2 0h1"/><path stroke="#745a36" d="M7 11h2m-7 1h1m3 0h1m2 0h1m3 0h1M4 13h2m1 0h1m3 0h2"/></svg>