<svg xmlns="http://www.w3.org/2000/svg" viewBox="0 -0.5 16 16" shape-rendering="crispEdges"><path stroke="#881c00" d="M3 1h1M2 2h1m11 5h1m-1 1h2M9 9h1"/><path stroke="#df2d00" d="M4 1h1M3 2h1m1 0h1m8 4h1m0 1h1M9 8h1m-3 2h1"/><path stroke="#4f671b" d="M1 2h1m2 0h1m1 0h5M0 3h1m2 0h1m2 0h1m1 0h1m2 0h1M0 4h1m2 0h1m2 0h1m1 0h1m2 0h1M0 5h1m2 0h1m2 0h1m1 0h1m1 0h1M1 6h1m1 0h4m1 0h6M0 7h1m10 0h1M0 8h1m10 0h3M0 9h1m7 0h1m3 0h1M1 10h3m2 0h1m2 0h4M3 11h1m2 0h1m1 0h1m-7 1h1m3 0h2m-6 1h1m2 0h1m-4 1h1m2 0h1m-3 1h2"/><path stroke="#8ab72f" d="M1 3h1m5 0h1M2 4h1M2 7h1m4 0h1M6 8h1M3 9h3m4 0h1m-6 2h1m-1 1h1m-2 1h1m-1 1h1"/><path stroke="#b0d760" d="M2 3h1M1 4h1m5 0h1M1 7h1m1 0h2m5 0h1M2 8h1m2 0h1m1 0h1M6 9h1m-2 1h1m-2 2h1m-2 2h1"/><path stroke="#30d862" d="M4 3h2m3 0h2"/><path stroke="#22b14c" d="M4 4h1m5 0h1M4 5h2m3 0h1"/><path stroke="#8be9a7" d="M5 4h1m3 0h1"/><path stroke="#6a8c24" d="M1 5h2m4 0h1M2 6h1m4 0h1M5 7h2M1 8h1m1 0h2m5 0h1M1 9h2m4 0h1m3 0h1m-8 1h1m-1 1h1m-2 1h1m-1 1h1"/><path stroke="#ff552b" d="M15 6h1M9 7h1"/><path stroke="#c3c3c3" d="M8 7h1m4 0h1"/><path stroke="#7f7f7f" d="M12 7h1M8 8h1"/></svg>