<svg xmlns="http://www.w3.org/2000/svg" viewBox="0 -0.5 16 16" shape-rendering="crispEdges"><path stroke="#96918d" d="M7 0h1M2 1h1m5 0h2M2 2h1m4 0h2m-7 9h1m6 0h2m-4 1h3m3 0h1m-6 1h1m1 0h1m2 0h1m-6 1h1m2 0h1m1 0h1"/><path stroke="#a39d9a" d="M8 0h1M7 1h1M3 2h1m6 0h1m1 0h1M8 3h2M8 4h1m4 0h1M3 9h2m4 0h1m-2 1h2m-5 1h1m1 0h1m5 0h1m-8 1h1m3 0h1m1 0h1M2 13h1m2 0h1m3 0h1m1 0h1m-9 1h1m10 0h1"/><path stroke="#9c9693" d="M1 1h1m4 0h1m6 0h1M1 2h1m4 0h1m2 0h1m3 0h2M2 3h1m4 0h1m3 0h1m-9 7h1m2 0h1m3 0h1m-8 1h2m3 0h1m2 0h1M2 12h1m1 0h2m5 0h1m0 1h1m-6 1h1m-7 1h2m10 0h1"/><path stroke="#c8c4c4" d="M14 1h1m-2 2h1m-4 2h2M5 6h3m2 1h2M6 8h2m-4 2h1m1 1h1m-4 1h1m0 1h1m-3 1h1"/><path stroke="#c0bcbc" d="M5 2h1m4 1h1M7 5h1m2 3h1m-4 2h1m4 1h1m-7 2h1m-3 1h1m7 0h1m1 1h1"/><path stroke="#aba5a1" d="M3 3h1m2 0h1m5 0h1M7 4h1m3 0h1M6 9h1m3 0h1m-6 1h1m5 0h1m-5 3h1"/><path stroke="#d2cece" d="M4 3h2M4 4h2m3 0h2m1 0h1M6 5h1m2 0h1m3 0h1M8 6h1m1 0h2M6 7h2m1 0h1M4 8h1m3 0h1m2 0h1M5 9h1m1 0h2m2 0h2m-1 1h1M3 13h1m-3 1h1"/><path stroke="#b0a9a6" d="M2 4h1m5 1h1m0 3h1"/><path stroke="#dad6d7" d="M3 4h1m2 0h1M3 5h3m6 0h1M3 6h2m4 0h1m2 0h1M4 7h2m2 0h1M5 8h1"/></svg>